<svg width="1469" height="712" viewBox="0 0 1469 712" fill="none" xmlns="http://www.w3.org/2000/svg">
<g opacity="0.75">
<path d="M1119.13 362.62L1120.87 361.97L1122.73 360.12L1126.42 359.93L1125.12 357.06L1125.5 356.06H1127.36L1128.66 354.45L1133.13 351.39L1132.75 347.2L1131.84 344.3L1131.65 340.92M606.18 124.55V126.2L604.28 127.76L603.82 129.18L604.7 130.24L606.58 129.31L609.58 130.84M1036 270.75L1036.4 273.12L1039.4 274.87L1045.2 274.93L1050.2 272.1L1049.77 269.62M997 256.89L994.82 259.67V263.58L999.82 266.52L1004.2 268.72L1005.72 268.82L1009.63 271.82L1012.87 270.47L1016.5 270.75L1021.83 273.34V275.44L1026.9 275.73L1032.61 277.05L1032.99 274.66L1031.66 272.57L1031.22 269.18M1055.71 301.36L1059.89 298.84L1058.41 296.18L1059.68 294.01L1059.38 290.15L1063.19 289.94L1063.31 287.3L1064.62 283.47L1064.2 282.47L1066.09 278.77L1064.88 276.77L1068.56 272.52L1072.77 272.35L1072.87 269.79L1073.65 267.13L1069.36 265.84L1069.06 263.92L1065.71 261.53L1064.27 262.94L1059.19 261.7L1056.5 264.89L1054.88 265.01L1051.6 269.62H1049.86L1046.25 268.06L1043.9 268.19L1041.47 267.19H1038.83L1036.08 270.75L1033.84 268.32L1031.22 269.14L1028.85 269.27L1025.36 268.27L1023.06 268.61L1017.73 266.61L1015.65 265.06L1012.21 261.62L1009.21 261.42L1007.21 259.54L1004.21 258.38L999.77 255.16L997 256.85L991.54 252.94L990.19 252.6L987.84 250.3L985.41 250.09L982.92 244.44L983.72 243.91H985.88L986.23 241.74L983.72 238.65L982.64 233.92L979.47 232.92L977.99 228.92L975.91 228.78M943.46 291.56L946.38 288.09L950.63 288.57L953.53 287.81L955.75 288.02L953.46 280.67L950.63 279.86L950.29 276.08L947.46 275.15L947.33 274L950.58 268.26L954.07 269.35L955.49 269.08L958.58 264.96L961.15 262.61L962.83 258.44L964.04 256.83L964.18 254.72L966.68 251.09L965.79 248.4L968.56 245.55L963.44 241.11L962.97 239.37L961.97 237.95L962.23 236.12L960.62 233.7L961.02 232.21L963.58 232.56L964.87 233.09L969.1 232.96L975.04 229.96L975.92 228.75L970.45 226.67L967.23 224.31L966.69 221.94L963.79 220.46L960.07 220.73M694.28 146.07L694 144.31L692.67 143.01L692.48 138.01L690.94 136.37L691.66 135.14L691.97 131.67M668.71 126.48L673.52 126.6M778.43 564.04L775.63 563.62M115.88 160.48L119.94 160.14L122.78 159.14M291.89 188.75L293.16 186.97L293.73 184.2H304.4L307.16 180.77L315.16 177.33L322.31 177.42L327.55 177.52L331.46 176L336.46 172.38L336.55 170.67L342.38 165.32L347.89 166.19L348.37 168.56L346.76 172.1L347.61 174.77L347.7 177.4M262.99 374.69L262.89 376.05L259.79 379.45M294 312.76L294.13 316.97L293.35 318.4L293.3 321.9M861.63 275.52L860.89 276.81L860.56 278.27L861.29 278.04L861.8 277.21L861.97 276.09L861.63 275.52ZM668.47 398.71L668.07 399.58L668.16 400.41L668.73 400.17L668.87 399.54L668.47 398.71ZM338.3 360.27L336.91 363.15L339.26 364.15L340.82 361.7L338.3 360.27ZM315.09 319.87L315.34 321.87L319.23 321.62L320.65 320.52L318.35 319.32L315.09 319.87ZM281.98 319.65L289.21 318.77L289.61 315.66L287.15 312.42L292.93 312.97L296.93 312.1L299.88 314.49L302.02 314.71L308.36 317.58L308.21 319.08L307.01 319.8L304.01 318.8L301.23 320.47H296L294.73 321.97L291.81 321.9L281.98 319.65ZM235.69 300.84L241.19 295.84L249.73 293.58L260.39 296.58L261.86 298.58H265.55L273 305L275.81 305.57L275.92 307.47L279.53 308.38L283.12 310.61L279.19 313.19L274.12 310.61L268.3 311.41L268.85 308.26L264.92 306.02L262.77 302.42L259.97 302.08L255.72 299.72L249.08 299.16L248.53 297.92L243.8 297.69L241.22 299.95L235.69 300.84ZM1390.08 526.6L1394.24 533.18L1399.63 537.66L1400.76 536.26L1396.66 531.44L1390.08 526.6ZM1387.77 473.6L1389.48 474.17L1390.61 474.88V475.97L1389.13 475.73L1387.95 474.89L1387.77 473.6ZM1384.33 463.18L1385.7 467L1387.26 469.48L1387.97 468.8L1386.55 466.51L1385.45 463.24L1384.33 463.18ZM1380.6 467.99L1380.94 470.57L1383.54 471.67L1384.45 470.38L1383.45 468.14L1383.28 467.23H1381.28L1380.6 467.99ZM1375.34 459.62L1380.6 463.22L1380.88 462.47L1379.17 460.8L1376.63 459.26L1375.8 459.09L1375.34 459.62ZM1369.71 461.92L1373.29 464.46L1373.63 463.93L1372.63 462.56L1370.52 461.48L1369.71 461.92ZM1366.12 460.47L1366.29 461.82L1366.91 461.5V460.63L1366.12 460.47ZM1366.12 454.47L1368.66 456.54L1368.98 455.75L1368.04 454.7L1366.12 454.47ZM1357.94 446.47L1359.46 450.91L1362.63 454.57L1363.9 453.38L1361.61 450.91L1357.94 446.47ZM1340.64 433.53L1344.53 434.23L1347.3 436.95L1349.84 439.56L1351.04 441.31L1350.32 443.61L1349.12 441.78L1349.05 440.19L1344.61 435.58L1340.64 433.53ZM1135.64 434.61L1135.84 432.26L1137.84 432.36L1138.3 435.16L1135.64 434.61ZM1125.07 428.32L1128.07 430.12L1129.52 434.27L1132.22 434.73L1132.79 432.15L1130.53 431.35L1129.3 427.19L1126.72 426.42L1125.07 428.32ZM1206.29 443.44L1208.15 443.59L1207.73 445.54L1208.21 446.87L1207.68 447.5L1206.16 445.86L1205.83 444.48L1206.29 443.44ZM1230.99 425.44L1232.99 426.5L1232.19 427.41L1230.65 426.28L1230.99 425.44ZM1274.67 635.16L1275.67 634.94V635.28L1274.67 635.16ZM1274.23 632L1274.56 634.24L1275.35 634.07L1275.03 632.32L1274.23 632ZM1259.15 629.63L1257.56 632L1258.98 631.22L1259.15 629.63ZM861.63 275.63L860.89 276.92L860.56 278.38L861.29 278.15L861.8 277.32L861.97 276.2L861.63 275.63ZM736.05 228.46L740.47 228.82L745.7 229.88L745.65 230.53L742.06 230.59L740.06 229.77L736.19 229.13L736 228.59L736.05 228.46ZM1462.08 507.71L1464.89 505.71L1467.89 505.88L1467.55 507.35L1465.69 508.64L1462.77 508.47L1462.08 507.71ZM1455.78 511.46H1459.62L1461.31 515.56L1459.9 516.46L1456.58 516.35L1454.5 514.21L1455.78 511.46ZM1328.48 448.46C1330.54 448.595 1332.61 448.622 1334.68 448.54L1335.86 447.74L1338.33 448.06L1341.33 446.22L1342.33 444.95L1344.25 443.13V440.76L1346.39 442.03L1346.31 443.78L1343.45 448.54L1341.3 450.28L1339.3 451.48L1333.44 451.63L1330 451L1328.48 448.46ZM1389.72 639.86L1394.08 633.75L1393.44 631.36L1391.22 629.77L1392.64 628.27L1395.83 626.27L1398.3 624.52L1401.72 615.52L1401.14 605.02L1402.49 602.88L1407.02 607.02L1406.7 610.11L1404.33 614.25L1404.73 615.44L1407.67 614.72L1407.98 619.01L1410.76 621.23L1416.48 619.73V621.48L1409.09 627.48L1405.36 627.95L1402.49 631.95L1399.72 635.13L1389.72 639.86ZM1334.28 664.39L1337.7 661.47L1345.32 656.94L1350.24 653.45L1358.41 651.13L1365.65 647.24L1372.8 640.89L1375.49 640.41L1379.7 635.5L1381.45 636.3L1381.77 638.3L1385.77 636.87L1385.38 640.36L1382.93 643.22L1372.21 651.22L1370.61 653.22L1360.52 655.45L1355.44 659.82L1351.22 663.06L1346.16 665.38L1343.16 666.97L1338.95 665.78L1335.36 665.85L1334.28 664.39ZM1257.48 639.94L1257.31 643.94L1255.89 646.41L1256.89 651.49H1258.65L1265.16 648.63L1272.94 639.9L1274.06 637.28L1268.18 637.51L1264.84 637.91L1262.45 636.17L1259.68 635.84L1257.48 639.94ZM1144.78 602.15C1144.9 601.97 1145.09 599.2 1145.26 599.2C1145.43 599.2 1148.9 596.53 1148.9 596.53L1152.41 588.63L1151 583.12L1151.18 569.02L1148.55 560.95L1148.35 557.03L1149.7 556.38L1151.7 558.38L1152.8 556.64L1151.3 550.43L1151.93 547.7L1155.3 541.5L1155.51 537.61L1156.35 538.48L1159.84 534.55L1163.4 533.55L1167.62 529.66L1174.16 528.97L1176.76 526.4H1180.37L1181.64 525.09L1186.04 525.2L1191.77 522.62L1195.85 517.06L1198.43 515.17L1198.79 509.64C1199.78 508.472 1200.85 507.37 1201.98 506.34C1202.13 506.46 1204.86 511.34 1204.86 511.34L1206.61 509.53L1206.42 505.02L1208.24 504.37L1209.72 504.85L1210.59 502.74L1209.94 500.74L1211.86 499.58L1215.07 498.9V496.24L1219.45 493.24L1221.12 493.49L1223.53 492.01L1228.25 495.71V498.22L1234.09 498.58L1235.47 497.58L1234.09 494.73L1238.26 489.73L1240.92 485.59L1243.92 483.84L1249.16 484.13L1250.74 481.66L1248.54 478.57L1251.74 478.91L1255.44 481.26L1261.06 482.49L1264.83 482.55L1266.5 483.84L1268.5 482.49L1270.5 484.18L1267.03 490.24L1264.73 491.15L1265.11 493.44L1262.76 496.82L1266.02 499.82L1267.75 502.89L1275.75 508.36L1279.17 511.43L1283.95 512.22L1286.53 508.3L1288.67 501.05L1290.51 497.33L1291.81 490.82L1293.38 487.07L1297.88 475.78L1299.68 481.28L1300.68 485.61L1301.51 494.98L1304.27 494.75L1308.44 498.85L1307.94 503.04L1309.76 507.97L1308.89 514.64L1309.89 519.57L1314.58 522.43L1318.79 526.8L1318.54 529.34L1320.78 532.76L1320.86 537.12L1324.12 538.07L1325.38 541.07L1325.62 544.4L1328.62 548.14L1331.71 554.82L1333.78 553.55L1331.88 555.69L1331.64 559.69L1330.14 563.69L1330.91 566.8L1325.2 580.22L1322.51 582.44L1322.58 585.06L1320.04 588.39L1317.9 589.39L1316.9 591.53L1303.72 603.37L1302.45 606.95L1298.31 609.48L1291.8 619.57L1282.37 621.09L1275.52 626.15L1272.05 626.44L1269.45 623.69L1269.28 621.83L1261.43 625.76L1249.3 621.94L1248.73 619.31L1249.53 611.2L1248.96 609.42L1246.38 608.97L1248.68 602.4L1245.58 606.16L1241.16 607.11L1244.64 602.29L1248.18 599.29L1249.42 595.13L1244.29 599.13L1236.73 604.87L1234.64 602.63L1234.58 596.95L1233.17 594.26L1232.51 592.46L1226.51 589.6L1223.51 587.6L1220.24 587.31L1210.7 588.77L1203.02 591.69L1196.83 591.98L1189.83 595.41L1186.07 595.64L1184.93 598.05L1181.18 600.17H1165.73L1161.4 603.66L1155.5 606.87L1151.86 607.48L1148.39 605.9L1147.08 602.43L1144.78 602.15ZM1245.49 422.64L1247.61 423.72L1254.12 420.97L1258.28 421.64L1261.66 424.56L1262.15 428.83L1266.65 436.13L1271.71 430.13L1273.71 429.79L1277.81 426.15L1293.6 431.88L1303.31 435.58L1305.83 435.97L1309.38 438.56L1316.46 445.01L1315.66 447.72L1318.93 448.5L1320.99 449.79L1323.99 450.47L1325.85 453.05L1321.41 455.23L1322.26 458.04L1325.91 462.04L1328.26 467.16L1331.12 466.16L1331.58 469.48L1333.5 469.71L1337.42 473.81L1336.63 474.99L1333.38 475.1L1330.74 472.75L1324.27 472.46L1321.41 470.6L1318.83 467.6L1316.31 461.21L1313.55 460.98L1310.01 458.57L1306.82 459.63L1303.82 463.12L1303.25 465.88L1299.55 467.88L1293.77 467.7L1287.53 461.25L1283.26 461.42L1281.13 463.78L1277.13 463.44L1278.88 459.28L1282.17 456.81L1278.42 446.7L1269.08 442.38L1266.39 442.11L1260.22 437.27L1257.7 437.22L1257.47 440.37L1256.07 441.37L1253.38 435.37L1251.74 433.53L1254.74 433.02L1260.13 430.33L1258.55 429.43L1252.55 429.21L1251.09 426.57L1248.28 425.57L1245.7 424.9L1245.49 422.64ZM1216.95 427.53L1220.54 428.2L1225.15 427.99L1223.92 432.26L1223.01 429.66L1220.31 429.22L1216.95 427.53ZM1233.46 434.16L1239.46 434.5L1245.85 436.5L1245 438L1239.15 436.88L1233.76 436.33L1233.46 434.16ZM1224.24 437.16L1226.61 435.59L1231.43 436.16L1230.88 437.62L1224.24 437.16ZM1231.24 407.74L1231.03 414.13L1231.47 416.94L1230.58 419.65L1228.89 422.01L1231.81 423.12L1232.5 421L1231.58 419.75L1232.04 415.82L1237.31 410.66L1235.74 409.54L1233.74 411.44L1231.24 407.74ZM1191.93 447.5L1193.39 440.98L1191.93 436.71L1190.04 436.04L1189.12 432.67L1191.49 430.54L1191.93 426.05L1193.3 423.69L1193.96 418.19L1196.88 414.03L1199.23 412.78L1200.15 411L1205.53 412.67L1212.61 413.12L1215.08 411.66L1218.08 408.19L1218.75 409.43L1216.96 415.04L1212.58 416.61L1206.4 415.27L1196.97 416.5L1195.62 419.97L1197.31 423.46L1199.66 425.26L1202.13 422.35L1204.39 423.23L1210.32 421.78L1211.24 423.12L1206.85 425.7L1205.94 426.94L1202.59 428.08L1204.27 431.89L1205.27 434.24L1205.93 437.39L1208.19 439.85L1208.86 441.55L1204.93 442L1201.77 444.24L1201 439.74L1199.54 436.82L1199.19 432.12L1195.72 433.69L1197.41 438.51L1195.84 447.28L1193.58 448.96L1191.93 447.5ZM1209.18 472.83L1210.98 468.28L1214.51 467.76L1217.2 466.19L1219.92 462.83L1225.92 463.32L1225.43 464.58L1215.43 469.23L1211.16 473.1L1209.18 472.83ZM1192.78 464.52L1194.59 463L1198.8 463.55H1203.28L1204.36 464.47L1201.61 465.3L1196.61 464.79L1192.78 464.52ZM1189.12 468.79L1193.12 468.57L1196.6 470.29L1196.77 472.15L1195.54 472.43L1193.12 470.58L1189.58 470.08L1189.12 468.79ZM1179.35 464.41L1183.13 464.3L1184.59 463.12L1189.87 462.89V464L1188.18 465.23L1184.87 463.95L1183.62 464.4L1183.74 466.3L1180.98 467.21L1178.92 466.3L1179.64 464.78L1179.35 464.41ZM1175.43 462.09C1175.43 462.61 1174.76 465.64 1174.76 465.64L1177.34 464.84L1178.4 463.9L1175.43 462.09ZM1202.96 380.43C1203.5 379.77 1204.74 373.92 1204.74 373.92L1208.11 373.7L1209.24 371.23L1213.05 374.15L1215.65 369.66L1217.89 369.32L1218.89 365.96L1221.04 367.3L1224.19 378.53L1223.73 380.89L1220.73 379.43V382.43L1221.19 385.7L1220.51 388.05L1214.66 385.7L1212.77 381.98L1213.09 379.98L1211.53 377.28L1210.39 378.06L1207.93 376.83L1206.03 377.17L1202.96 380.43ZM1204.74 364.93L1207.22 360.68L1210.22 358.08L1211.22 361.91L1209.3 365.61L1208.18 367.53L1204.74 364.93ZM1202.84 355.93V360.98L1204.63 360.43L1205.87 359.86L1206.08 358.4L1203.73 356.59L1202.84 355.93ZM1192.39 345.04L1196.77 347.16L1197.66 349.63L1197.11 351.63L1194.64 349.63L1192.39 345.04ZM1211.59 351.2L1216.42 352.2L1217.66 357.91H1215.76L1216.31 360.72L1216.77 364.32L1213.05 360.72L1213.16 356.9L1214.74 358.02L1214.62 355.67L1211.7 353.32L1210.47 353.66L1206.31 353.09L1205.65 349.39L1207.11 352.2L1210.11 352.75L1211.59 351.2ZM1189.81 319.42L1193.18 319.31L1195.65 320.43L1196.88 319.88L1198.46 325.15L1199.46 327.28L1199.23 330.28L1196.77 333.09L1197.45 339.51L1199.23 341.97L1203.96 341.63L1208.69 343.21L1210.14 347.7L1210.35 349.6L1200.35 344.44L1197.54 343.21L1193.95 341.86L1192.49 339.72L1190.69 340.51L1188.34 335.9L1188.79 331.74L1190.14 328.39L1189.81 319.42ZM1144.5 424.01C1144.65 423.53 1144.1 416.07 1144.1 416.07L1142.98 412.26L1145.37 408.44L1152.37 409.07L1155.01 402.64L1162.55 400.5L1166.83 393.27L1173.36 389.62L1180.09 380.62L1183.09 385.86L1186.83 386.98L1190.56 389.43L1187.15 392.29L1188.15 393.71L1184.26 395.95L1183.64 398.33L1184.33 399.99L1183.86 402.29L1186.01 405.95L1185.78 408.34L1189.02 413.11L1185.28 413.41L1183.46 416.35L1183.14 421.51L1177.75 425.82L1178.22 430.88L1176.4 433.67L1176.48 437.67L1174.09 437.84L1171.55 439.02L1169.8 440.28L1167.73 436.28L1165.29 436.76L1162.58 434.29L1159.4 436.84L1155.74 436.91L1155.92 434.62L1151.46 435.17L1148.91 434.06L1147.02 424.62L1144.5 424.01ZM1126.5 454.83L1128.8 450.37L1134.2 451.82L1138.57 451.97L1140.57 454.43L1148.82 454.98L1150.17 452.69L1155.58 454.59L1163.93 454.51L1164.08 456.18L1161.29 456.98L1161.61 458.8L1165.5 459.35L1167.5 460.94L1172.42 461.82L1172.66 462.94L1168.22 463.88L1162.97 462.88L1155.66 463.68L1143.12 459.31L1137.79 459.47L1132.23 457.72L1130.23 455.67L1126.5 454.83ZM1185 284.45C1185.52 284.26 1187.15 283.35 1187.15 283.35L1189.65 284.49L1190.01 287.24L1189.33 289.35L1188.85 293.09L1187.91 295.89L1187.19 299.46L1183.7 296.4L1183.01 293.56L1183.45 289.14L1185 284.45ZM1134.77 313.61C1135.85 312.972 1136.89 312.258 1137.87 311.47L1143.66 311.95V313.61L1142.47 317.33L1140.09 319.8L1137.09 319.95L1135.02 316.95L1134.77 313.61ZM1227.85 235.61L1229.85 234.69L1232.56 236.04L1232.33 238.53L1229.41 239.31L1227.41 242L1224.05 239.88L1225.28 236.5L1227.85 235.61ZM1212.69 240.77L1215.69 237.39L1218.94 238.64L1223.09 242.12L1223.2 248.41L1220.06 250.88L1217.06 247.96L1217.5 245.15L1215.92 243.8L1212.69 240.77ZM1215.5 235.15L1222.23 227.62L1228.4 227.41L1230.54 226.06L1233 227.51L1234.13 226.73L1233.92 224.14L1235.81 218.99L1237.05 220.99L1240.99 217.99L1243.35 214.86L1243.01 207.33L1241.01 204.18L1240.01 200.02L1240.58 197.67L1242.15 196.87L1245.85 199.36L1248.77 203.17L1251.01 207.44L1251.13 210.25L1252.04 211.94L1251.24 213.49L1252.81 217.44L1253.39 220.13L1254.73 223.95L1254.62 229.95L1252.26 228.03L1250.26 231.03L1247.8 230.8L1245.99 233.49L1241.99 232.37L1240.19 230.91L1241.1 233.91L1239.41 237.72H1237.27L1233.8 232.44L1229.64 231.76L1223 234.68L1222.79 236.49L1215.5 235.15ZM1232.23 175.96C1234.01 176.07 1247.73 182.69 1247.73 182.69L1250.65 181.57L1252.32 184.49L1255.13 186.49L1254.8 187.72L1250.54 188.28L1249.19 190.08V193.46L1241.09 189.96L1237.16 190.31L1239.74 193.68V194.8L1236.5 196.15L1236.38 193.34L1233.46 190.97L1234.01 186.15L1236.93 186.61L1236.73 182.78L1234.47 180.2L1233.34 177.2L1232.23 175.96ZM1202.58 129.57L1206.84 134.06L1208.42 136.87L1211.66 137.76L1214.03 142.26L1217.62 145.41L1221.34 150.91L1227.05 153.83L1228.62 155.64L1224.81 156.07L1226.04 160.34L1228.74 164.72L1234.36 169.22L1231.66 169.79L1232.66 171.46L1231.43 172.37L1229.19 171.02L1224.92 164.02L1223.58 161.02L1221.58 158.56L1220.46 156.07L1211.8 144.41L1207.65 141.41L1203.27 134.67V132L1202.58 129.57ZM1078.58 387.96L1083.75 389.23L1088.9 390.43L1091.29 393.99L1097.55 400.42L1103.19 406.61L1107.33 407.33L1108.12 409.48L1112.96 412.74L1114.88 413.93L1115.68 415.51L1117.97 417.18L1117.42 422.11L1120.59 423.11L1121.54 427.57L1124.54 430.35L1126.84 431.14L1128.43 435.14L1127.71 436.41V443.88L1126.91 444.88L1126.59 448.69L1124.85 447.97L1122.15 449.65L1116.67 443.86L1112.78 440.44L1107.47 432.97L1104.83 430.27L1100.24 420.65L1097.92 417.81L1096.5 417.64L1092.14 405.81L1089.67 405.49L1087.6 400.88L1083.07 397.22L1081.02 394.3L1078.02 391.3L1078.58 387.96ZM1005.27 367L1009.33 370.21L1010.83 373.8L1013.43 377.46C1013.43 377.46 1013.76 380.87 1013.76 381.38C1013.61 382.291 1013.41 383.193 1013.15 384.08L1008.99 386.83L1006.35 387.11L1003.93 380.59L1003.49 375.37L1004.27 372.1L1005.18 368.81L1005.27 367ZM829.57 549.52L828.88 541.21L827.88 536.72L829.68 533.36L834.5 524.36L833 512L836 505.82L846.45 502L852.61 493.69L853.52 490.88L857 489.54L858.46 483.54L861.27 488.7L863.27 497.92L863.04 501.85L860.78 501.39L861.12 507.39L858.88 510.39L858.43 514.89L854.84 524.31L853.84 528.24L851.61 533.97L848.91 540.16L847.91 546.44L844.91 552.16L838.91 554.42L837.34 555.55L834.08 553.63L829.57 549.52ZM774.57 232.44L774.79 230.53L778.49 229.41L780.96 228.84L782.88 228.29L780.88 229.75L780.44 231.22L778.18 232.67L774.57 232.44ZM685.57 214.71L691.57 214.8L694.04 215.03L697.04 213.68L699.04 213.34L697.35 216.05V219.3L696.12 220.99L694.54 220.42L692.29 218.64L685.57 214.71ZM667.71 199.32L668.5 202.68L668.29 209.09L670.18 209.18L671.98 207.84H672.77V200.76L671.87 198.07L667.71 199.32ZM668.71 190.99L668.83 193.14L670.63 196.14L671.75 193.67L672 189L668.71 190.99ZM673.95 123.83L676.19 122.71L677.08 124.62L676.64 126.08L674.33 125.08L673.95 123.83ZM678.95 126.46L680.95 125.52H682.95L682.34 126.93L680.2 127.72L678.95 126.46ZM678.66 122.1L679.52 121.1L680.69 121.84L683.39 120.38L683.77 122.56L683.22 124.08L679.89 124.53L678.66 122.1ZM611 150.56L617.43 145.15L621.24 144.68V143.08L614.11 142.54L615.21 140.71L617.28 139.52L616.08 136.73L617.28 135.3L621.41 134.9L622.99 131.74L620.37 128.47L621.24 126.8L619.9 125.86L617.9 126.25L615.52 124.98L613.93 124.41L614.01 123.07L611.46 122.19L612.46 120.52L614.29 118.7L611.99 118.23L611.92 115.69L610.55 114.49L610.8 114.02L613.09 113.62L613.49 110.93L615.88 109.73L616.2 108.21H623.43L623.03 109.58L619.52 111L619.22 112.35L627 112.52L628.2 115.76L625.2 117.11L624.95 120.85L628.44 123.64L629.24 127.13L633.24 129.42L633.09 131.49L632.94 132.61L634.29 133.88L634.61 135.78L639.77 137.6L639.68 139.27L636.91 142.37L635.31 143.37L637.78 144.79L639.05 145.27L638.5 146.46L624.99 148.46L620.38 148.13L614.59 151L611 150.56ZM601.4 125.56L604.4 124.36L609.89 125L612.26 127.85L612.03 129.92L609.64 130.92L608.84 135.36L607.65 139.36L602.26 140.17L594.56 143.82L591.84 139.36L595.43 138.1L596.7 135.72L594.56 132.31L594.96 129.52L600.27 129.04L601.4 125.56ZM552.86 73.7798L555.25 71.7798L558.58 70.4399L562.64 71.8599L563.64 74.6499L566.58 71.6499L570.58 73.1499L574.4 71.7998L578.76 71.6499L581.46 70.6499L585.52 71.1201L589.23 74.9399L587.57 77.6499L578.76 80.6499L573.91 82.3198L570.66 84.1401L563.9 82.54L557.32 82.1401L559.77 80.1401L556.83 77.75L559.37 75.6802L558.27 74.1899L556.6 73.46L552.86 73.7798ZM964.14 21.2998L956.74 23.9902L957.41 25.4502L947.41 26.5898L933.15 28.98L928.79 29.7202L926.53 31.3101L920.8 33.1899L922.37 36.48L906.53 37.48L904.86 39.3999L905.96 39.7402L907.31 42.6401L912.47 45.5601L906.98 44.2202L900.57 43.6499L896.76 45.5601L893.59 45.2202L891.49 42.6401L889.02 41.75L889.23 45.2202L886.76 45.4702L886.32 47.3501L890.57 51.2998L890.8 53.4199L893.5 56.9302L901.01 57.9302L898.11 59.1401L897.54 60.71L900.82 63.8501L897.44 69.3799L896.09 71.1699L889.02 70.6001L886.76 68.6001L890.36 68.5L893.74 63.5498L893.16 60.0801L890.8 58.3901L888.33 53.1001L884.64 49.1001L882.11 46.29V43.2002L880 41L873.86 40.4302L869.15 42.77L869.46 46.3301L866.93 47.6802L865.68 50.2002L869.82 55.8999L878.24 60.1401L875.89 61.23L858.22 54.4502L848.22 54.3198L846.4 55.5698L848.4 58.1899L847.53 59.54L842.84 58.1299L832.37 59.79L827.21 60.1802L826.21 58.8301L822.72 58.6602L816.13 61.8701L807.48 63.9199L807.01 67.3101L805.32 67.9102L800.74 67.0898L797.88 64.3901L801.5 62.3901L800.4 60.8599L790.73 60.4502L793.02 61.9102L792.38 65.71L795.19 69.3501L788.73 70.6401L783.9 73.3301L780.79 75.1499L783.25 78.3198L781.34 78.7202L771.66 75.21L770.71 77.54L775.23 81.7598L765.93 79.29L765.63 76.8999L762.42 74.3799L763.29 72.9199L757.43 70.4702L754.34 68L766.16 71.5098L778.4 71.8101L783.08 68.5698L783.31 65.25L770.54 59.25L761.41 57.8101L752.69 55.21L745.14 54.9502L744.91 53.7002L745.74 51.7002L736.49 50.1299L733.05 50.3501L732.05 49.48L729.83 50.3501L728.01 49.3501L720.01 49.75L715.16 53.4302L711.99 53.4902L710.32 54.77L708.67 54.6602L707.45 53.4302L705.33 52.9502L703 56L699.35 60.1499L695.61 60.9702L693.39 63.5498L691.27 66.8301L687.71 68.75L686.02 71.4399L684.1 71.8398L683.4 75.0801L680.4 76.8301L679.19 78.3999L676.58 80.0898L672.85 83.98L668.52 84.4399L663.7 87.7202L655.53 91.21L655.7 99.3701L657.82 104.06L658.22 107.89L662.03 110.26L666.87 109.61L672.6 105.34L674.67 105.44L676.58 102.8L679.75 109.61L685.49 117.39L684.61 120.03L686.02 123.6H691.35L691.57 121.38L692.69 120.68L697.43 120.5L699.6 108.27L705.6 105.74L706.32 103.68L707.66 101.46L705.2 98.6699L702.56 98.02L701.38 95.3301L700.74 91.1201L702.03 87.8901L710.59 83.5601L716.24 79.77L714.97 77.23L719.41 73.4902L727.41 74.0601L729.16 76.6001L723 82L715.68 87L715.8 91.46L717.9 94.0601L717.75 98.3599L719.97 99.2402L721.58 100.58L727.58 100.89L733.21 98.6699L743.85 97.2402L746.24 100.19L749.58 100.98L743.78 102.58L744.33 104.32L733.44 102.8L728.35 104.8L727.71 107.09L729.93 109.61L729.62 114.17L727.1 115.44L723.84 112.18L719.46 113.92L717.81 120.12L718.45 124L712.95 128.21L710.08 129.21L709.08 127.63L706.86 127.22L690.86 132.15L687.12 128.73L684.66 128.11L678.66 130.72L678.18 129.21L676.18 128.98L673.47 126.74L672.68 122.74L674.5 120.28L674.82 116.28L676.32 113.21L674.97 112.47L671.5 114.81L669.41 115.67L667.76 118.85L666 122L667.74 124.35L669.87 129.35L666.93 132.99L666.36 132.29L663.02 132.61L662.25 134.43L658.34 134.21L655.34 136.09L652.78 136.26L650.97 140.71L644.22 145.62L640.08 146.73L639.31 150.64L637.88 151.36L634.88 152.88L634.23 154.28L629.71 154.35L627.15 152.88L625.56 153.58L626.04 157.39L622.77 158.56L619.6 157.39L612.39 158.39L613.65 161.96L620.25 163.38L623.99 167.82L627.86 175.07L624.46 186.55L601.11 185.62L597.11 184.9L595.59 186.49L592.9 187.84L593.29 191.18L592.43 195.62L593.05 201.43L588.38 209.85L590.26 211.99L590.36 219.37L596.69 218.9L600.77 219.54L604.58 224.23L606.94 223.66L608.94 223.83L611.64 221.89L620.7 221.19L626.7 216.34L626.87 213.81L629.79 211.12L628.62 207.69L635.13 199.19L638.69 198.19L644.69 193.64V188.08L647.61 185.95L650.95 185.46L659.45 187.2L663.07 183.73L665.23 183.98L668.23 181.17L670.23 180.87L674.75 183.98L676.97 187.98L685.15 195.66L689.83 196.88L694 200L696 202.3L699.69 203.57L700.74 209.85L699.56 214.52L702.98 212.71L703.55 210.02L704.73 208.09L703.28 205.16L705.03 201.52L708.54 202.77L710.45 204.21L710.93 202.13L706.37 198.73L700.21 196.09V194.27L696.47 194.04L690.82 189.36L690.04 186.36L684.71 181.77L683.89 179.68L684.89 178.03L684.15 175.64L687.24 175.24L689.63 174.13L692.57 174.6L691.87 176.46L696.71 179.68L701.05 184.14L703.61 184.94L712.11 190.67L715.93 195.49L716.32 202.73L718.37 204.9L722.83 212.51L724.52 214.63L726.1 220.84L727.44 221.48L729.36 220.59L732.53 222.05L731.88 216.49L729.26 214.63L726.17 214.02L730.24 213.02L735 215.31L735.52 211.98L732.61 208.58L733.61 206.76L731.3 203.48L732.57 201.66L734.96 201.6L735.21 200.38L738.03 199.27L749.25 201.09L750.84 199.04L756.84 197.99L753.18 195.23L751.98 193.23L750.23 191.47L751.23 189.59L752.23 186.59L754.05 184.06L755.17 178.75L757.56 178.11L758.04 174.77L760.73 171.91L761.2 170.48L766.46 169.55L769.86 172L773.86 172.15L774.09 173.15L771.87 175.5L774.79 178.06L776.79 180.83L779.79 177.89L785.18 177.97L787.65 176.72L786.83 175.72H781.52L777.52 172.55L781.96 169.69L789.34 168.59L791.64 166.12L796.49 165.95L792.28 168.89L793.38 171.03L792.75 172.38L791.47 175.89L788.77 176.14L789.89 178.28L802.89 184.96L810.89 191.96V195L804.69 198.28H801.99L797.06 198.42L789.85 196.16L786.97 194.24L785.03 194.13L781.9 192.9L775.9 193.9L770.17 196.39L766.57 198.51L760.4 198.17L759.15 199.96L757.61 201.55L749.85 201.65L748.16 202.12L745.81 204.92L747.93 206.5L746.59 208.29L749.19 211.76L746.82 213.76L750.19 215.9L751.75 221.16L756.36 220.38L760.97 222.75L763.66 222.85L765.45 221.06L769.16 220.97L774.31 223.85L778.5 224.19L781.5 221.97L787.5 222.31L789 221L790.44 222L790.23 234L788.09 238.63L786.74 244.46L784.18 251.32L774.98 251.57L768.77 248.73L762.91 252.54L760.58 252.67L757.66 251.32L749.4 249.44L742.73 248.1L734.73 245.4L733.95 243.72L727.65 241.95L725.43 243.16H722.43L719.15 247.62L719.79 250.45L718.52 254.67L713.76 255.23L710.5 252.62L706.5 250.79L699.89 249.92L698.24 245.54L695.24 243.16L686.86 242.94L680.18 239.94L675.18 236.69L675.02 234.83L678.59 229.22L678.34 227.63L677.11 224.46L678.93 222.31L678.45 219.54L675.65 220.49L674.95 218.8L672.65 218.2L668.91 219.92L658.91 219.79L654.76 222.07L650.96 220.15L640.17 222.48L632.3 222.88L628.65 226.7L625.31 226.83L623.31 229.56L618.15 230.09L615.93 228.92L614.71 229.69L607.71 229.45L603.97 226.28L598.41 236.6L594.41 238.12L591.01 240.9L587.92 243.43L587.27 245.5L584.41 249.94L584.58 256.54L581.31 262.1L574.09 267.01L568.53 269.31L567.53 274.98L563.53 276.86L561.06 278.3L560.36 283.94L559.88 287.03L557.42 288.38L553.51 292.06L552.41 296.34L551.41 297.69L550.11 299.51L549.06 306.59L550.18 305.64L551.93 310.21L551.53 315.47L552.87 318.47L551.28 329.13L549.28 331.82L549.22 334.04L546.05 339.3L548.52 341.52L549.52 344.69L548.17 347.8L548.87 351.59L551.43 355.27L553.25 355.5L557.25 359.39L558.65 362.49L562 365L564.87 369.67L565.04 373.12L566.44 374.52L567 377L573.43 379.93L575.65 384.48L578.42 385.25L581.86 388.99L590.41 394.63L599.31 390.81L601.93 390.68L607.17 389.22L611.47 391.55L614.22 390.55L616.63 392.35L627.92 387.21L630.79 387.07L632.02 385.21L634.71 384.97L635.53 383.97L638.7 383.74L644.25 383.79L648.87 385.08L652 388L653.27 392.34L655.62 394.2L667.8 393.08L669.8 396.19L672.35 396.72L674.26 401.41L673.62 406.02L672.27 410.13L672.58 412.47L672.92 416.04L671.92 417.69L671.79 419.69L669.7 422.48L671.22 426.92L674.22 431.13L682.65 442.02L684.65 444.96L684.78 447.58L685.78 448.53L685.38 450.92L689.5 458.36L690.6 462.81L689.65 467.98L692.82 475.98V481.32L691.95 483.93L687.26 489.83L685.61 498.47L683.33 503.25L682.69 510.32V510.8L682.39 514.61L686.52 521.92L689.52 528.99L696.2 538.5L695.55 540.64L695.5 548.64L696.84 552.64L697.49 560.5L700.36 567.97L704.36 571.31L707.05 575.31L707.84 582.22L712.3 588.88L712.13 592.94L709.67 594.28L712.47 598.42L711.83 601.29L713.88 601.51L719.38 604.06L723.02 601.82L726.59 602.46L728.64 600.89L740.4 600.81L741.67 600.07L745.43 599.6L747.43 598.25L751.37 597.61L755.28 595.33L759.74 590.64L765.52 585.09L768.34 580.47L772.51 574.14L776.59 571.14L778.16 566.87L778.47 564.01L779.28 560.89L778.56 556.15L780.56 553.29L784.74 553.06L789.29 550.51L792.23 544.63L792.7 537.25L790.41 531.62L789.41 525.41L793.41 520.41L796.41 519.41L800.22 513.68L807.73 510.76L808.95 510.28L813.09 506.45L817.03 501.29L818.38 495.08L817.68 488.52L817.6 480.52L817.54 474.52L813.69 469.74L812.69 464.53L813.39 460.94L812.39 457.62L813.91 455.45L814.25 454.58L811.16 451.72L811.22 446.33L813.44 443.05L815.96 437.49L818.37 432.49L820.82 429.37L824.25 427.37L824.86 425.29L832.35 415.14L837.74 409.41L841.74 407.59L848.35 402.59L855.73 392.17L863.85 374.37L867.18 367.17L868.42 354.87L866.31 354.06L864.31 355.74L862.15 356.22L860.33 357.56L856.19 357.7L853.72 358.82L851.43 357.96L848.43 361.04L845.32 361.38L842.72 360.09L840.41 361.85L836.99 362.16L830.99 357.39L831.39 352.48L829.95 349.84L827.58 347.7L824.37 343.98L821.23 339.68L819.71 339.43L813.71 336.58L810.85 332.29L811.02 327.85L808.46 322.22L806.09 321.51L804.57 319.75L802.43 317.61L801.43 307.93L797.16 297.76L797.06 297.52L793.06 294.96L786.16 278.51L782.55 273.15L782.34 270.33L777.9 263.59L776.65 259.48L781.43 265.38L785.43 268.77L786.9 262.99L788.29 261.56L788.08 267.2L789.64 267.54L791.46 270.9L792.8 273.8L798.72 282.13L801.23 286.93L804.02 288.87L808.84 297.52V297.76L809.48 302.24L811.83 308.5L816.44 311L821.51 317.74V320.97L826.65 326.03L828.58 330.3L828.13 333.9L831.03 342.76L831.16 348.61L838.36 349.75L841.62 347.05L847.88 346.24L850.23 343.36L855.64 343.2L858.81 339.5L868.33 337.38L871.46 334.78L872.05 330.55L882.74 326.16L884.84 326.7L885.84 322.45L890.99 321.78L891.9 318.52L897.06 316.15V311.44L897.63 309.07H900L901.57 306.28L904.36 299.28L903.09 297.74L897.97 291.42L892.81 290.86L886.81 280.86L886.22 277.73L882.08 284.37L876.45 288.94L869.71 289.41L866.24 288.73L864.32 286.38L865.77 284.56V281.08L863.98 278.3L861.98 280.74L860.29 282.87L858.85 279.99L859.52 275.79L857.83 274.01L852.78 271.22L851.64 268.28L849.17 264.67L848.83 260.1L850.27 257.27L853.44 255.81L857.35 257.16L862.3 263.16L864.67 268.54L879.15 276.15L881.86 275.15L884.79 274.8L886.13 273.12L889.61 273.46L892.3 279.66L914.88 284.14L924.3 282.36L933.3 282.15H935.42L936.2 285.15L941.27 290.89L943.62 291.66L948.62 295.5L952.57 296.27L948.62 298.97L953.57 303.26L956.48 306.38L962.68 304.81L962.43 301.09L964.03 298.65L965.03 299.22L965.38 304.03L966.38 309.42L967.04 313.71L968.04 319.88L971.17 328.53L973.08 334.6L977.24 341.87L980.71 351.54L983.63 357.84L986.1 362.09L990.49 373L993.75 373.55L996.35 369.74L999.82 367.95L1001.05 364.35L1002.74 362.76L1004.18 360.31L1003.08 356.02L1003.86 352.32L1005.09 349.19L1005.53 344.69L1003.86 333.78L1005.99 333.25L1007.66 330.75L1011.85 329.4L1012.04 326.5L1017.24 323.5L1018.34 321.13L1020.46 319.13L1023.97 314.06L1031.05 310.12L1032.15 307.42L1031.39 304.29L1036.78 301.37L1039.9 300.71L1041.69 297.85L1046.08 289.74L1049.53 294.94L1052.06 295.42L1053.52 297.85L1053.8 304.05L1055.85 305.75L1061.14 312.24H1063.4L1069.13 324.24V332.44L1071.48 332.78L1073.7 334.47L1075.29 332.47L1079.29 330.91L1081.07 325.96L1085.78 335.41L1085.34 337.19L1090.41 347.76L1092.41 357.21L1091.74 361.21L1092.18 365.44L1091.4 368.04L1091.5 375.55L1092.85 375.21L1095.44 377.15L1101.52 387.01L1103.96 396.58L1106.43 400.96L1108.25 405.34L1115.67 409.34L1118.23 411.47L1120.59 409.78L1119.24 407.2L1116.88 401.26L1116.54 397.08L1116.11 392.7L1111.29 385.76L1108.46 385.09L1105.9 381.49L1102.39 379.69L1101.71 375.76L1098.58 369.25L1097.58 368.34L1095.58 369.01L1095.26 361.7L1097.18 356.54L1097.7 350.81V345.67L1101.42 346.88L1101.88 349.8L1107.29 350.15L1113.55 357.79L1113.68 360.01L1115.9 360.83L1117.49 363.73L1119.41 362.61L1121.97 363.96L1121.76 365.96L1122.76 372.44L1125.89 370.44V369.1L1129.25 367.1L1130.02 364.75L1130.37 362.39L1132.19 362.72L1137.44 360.15L1141.14 355.88L1141.05 353.63L1141.28 350.72L1140.48 347.02L1139.61 342.02L1138.69 338.89L1133.97 331.34L1124.64 322.04L1121.64 318.76L1120.86 314.28L1123.23 307.42L1127.16 305.63V303.26L1129.87 301.59L1136.36 303.17L1138.73 308.89L1140.73 308.42L1140.85 302.94L1147.24 301.59L1151.24 301.25L1153.85 297.44L1155.19 297.1L1160.19 297.53L1167.83 293.53L1170.53 291.4L1174.24 287.23L1175.69 284.44L1178.63 280.63L1178.38 277.63L1180.38 273.25L1181.49 268.2L1183.17 266.2L1183.08 258.8L1181.73 256.55L1177.73 256.43L1180.65 251.92L1179.17 248.22L1175.26 244.4L1173.78 241.14L1167.27 232.94L1162.57 231.28L1163.01 227.33L1165.7 225.43L1166.5 223.29L1168.74 221.07L1172.57 219.81V218.7L1167.71 218.56L1162.11 216.87L1160.54 219.13L1158.54 219.24L1155.96 217.01L1154.61 214.08L1148.33 212.96L1146.98 209.26L1151.92 207.92L1152.58 204.22L1155.18 202.96L1156.62 199.96H1160.48L1162.83 203.34L1161.57 206.47L1163.04 208.04L1163.6 209.83L1168.77 205.92L1173.47 204.78L1179.54 208.16L1179.88 213.54L1183.49 215.69L1184.59 214.55L1189.66 216.81L1191.32 220.18L1190.23 222.18L1192.23 224.87L1193.23 228.34L1195.14 233.86L1206.14 229.94L1203.45 222.61L1197.17 214L1189.77 209.48L1188.61 204.55L1193.47 200.55L1193.9 198.06L1193.24 194.82L1194.02 192.47L1194.15 190.3L1195.93 187.42L1197.51 187.27L1200.76 189.98L1206.14 189.53L1209.14 185.73L1211.05 177.84L1213.18 172.45L1213.52 166.85L1214.18 161.68L1214.66 155.83L1206.23 143.95L1205.89 141.24L1200.72 134.37L1194.98 131.91L1186.78 130.24L1186.9 132.81L1183.32 131.68L1181.06 131.91L1177.93 127.77L1169.93 126.51L1174.56 119.51L1174.41 115.04L1176.78 111.75L1176.09 109.87L1178.09 106.93L1178.76 104.36L1189.21 103.67L1191.57 105.02L1196.08 103.33L1201.58 103.67L1202.36 102.55L1213.14 104.92L1219.53 105.24L1220.44 104.58L1225.26 104.68L1226.08 103.58L1221.7 101.79L1221.01 98.8501L1222.13 96.25L1221.7 92.25L1232 91.9102L1235.28 95.52L1237.06 95.4199L1240.23 97.3198L1241.77 93.5098L1243.7 92.5098L1240.57 89.04L1240.76 87.6899L1243.59 88.1201L1245.39 91.0498L1248.85 94.9502L1249.32 96.9502L1246.97 98.7798L1246.05 104.38L1246.97 107.98L1245.05 109.98L1241.92 111.98L1243.46 115.11L1243.7 117.94L1249.44 125.11L1254.92 130.18L1260.12 135.47L1271.55 145.24L1274.02 145.33L1272.68 139.17L1272.01 135.17L1275.8 133.82L1272.01 131.45L1271.76 128.62L1274.71 127.52L1275.27 124.92L1269.89 119.1L1270.42 117.31L1264.82 110.68H1260.44L1257.75 109.33L1257.52 105.17L1256.6 101.17L1260.31 100.7L1262.81 99.48L1266.17 102.86L1268.07 99L1271.33 98.9102L1278.5 99.9102L1281.2 97.1201L1283.57 92.3901L1289.43 88.6899L1292.78 89.6899L1298.38 87.77L1296.94 85.77L1294.47 85.3398L1285.92 81.98L1281.44 79.04L1284.04 78.7002L1285.92 75.9102L1283.7 72.6499L1287.27 74.77L1292.99 74.6602L1299.29 77.3501L1310.18 79.7202L1314.45 79.3799L1312.77 76.4399L1310.85 73.7402L1313.85 73.6499L1304.22 69.04L1291.62 67.25L1284.44 64.25L1274.56 60.5298L1265.13 59.0898L1255.02 57.6099L1245.12 55.7202L1234.57 54.1401L1222.1 53.46L1220.66 54.46L1226.48 56.71L1227.48 58.9399L1215.48 56.8101L1207.87 55.1201L1190.55 55.5601L1185.3 54.1201L1180.78 51.3301L1176.62 50.8501L1171.01 49.7402L1164.6 49.3999L1154.07 50.0801L1148.77 47.71L1142.7 46.71L1133.7 44.4502L1105.27 41.4502L1103.27 43.9502L1105.62 46.0698L1096.44 45.8301L1088.58 48.0898L1081.26 46.0898L1083.06 50.48L1070.25 45.0698L1068.79 42.1499L1061.05 39.02L1052.85 40.1201L1046.85 37.2402L1043.57 38.3398L1045.03 40.46L1011.22 37.9902L1005.83 36.9902L1002.23 39.25L990.77 40.25L998.32 33.8599L1001.57 32.5098L1003.04 31.0298L994.04 26.21L982.04 25.6401L977.66 23.96L971.59 23.3999L964.14 21.2998ZM456.23 94.1001L451.23 84.8799L451.46 78.6001V75L450.34 67.5801L455.73 60.8398L462.46 59.5L463.59 57.9302L460.23 50.73L466.23 51.8701L466.91 49.6201L462.3 46.77L457.78 46.6201L460.48 38.9199L458.18 30.7402L449.91 27.3999L427.13 26L426.96 22.9102L424.82 18.7002L450.54 15.2798L450.39 12.6602L453.39 11.8599L473.88 6.70996L482.78 6.85986L493.78 4.49023L508.54 4.64014L526.74 2.64014L545 2L556 0.799805H570L583.59 3.33984L582.86 5.64014L585.08 7.08008L609.79 6.68994L604.23 9.52979L597.87 10.73L589.62 14.3901L586.53 14.8599L583.74 17.4102L579.93 19.6299L584.46 21.8501L584.53 23.3599L578.1 25.3599L580.25 29.2598L580.32 30.6099L577.88 33.7002L577.23 34.8999L569.28 39.2598L563.42 38.8701L556.27 40.7798L561.18 44.3501L563.81 44.8999L565.96 46.9702L565.86 51.4102L560 51.5L557.38 48.3101L554.92 48.48V49.75L552.92 52.1299L556.19 52.2002L560.88 54.04L558.09 55.04L548.64 59.3301L531.24 62.8901L527.82 61.6201L527.52 62.9902L521.24 66.8799L518.3 69.4199L506.3 73.23L504.87 72.8301L504.95 71.2402L503.28 71.0898L501.06 73.7798L494.86 74.1802L490.09 79.3398L486.83 84.8301L480.83 87.77V91L471.46 100.06L467.64 98.6299L465.82 95.9399L461.93 94.1001L458.74 95.46L456.23 94.1001ZM326.93 45.8101L323.26 47.0801L317.77 49.25L314.18 54.3301L317.05 56.6201L314.3 60.7598L305.23 64.6299L305.57 62.8799L298.32 61.8799L296.9 63.5298L279.26 63.23L275.37 59.8901L265 61L259.54 63.9502L256.75 62.75L252.88 64.1001L241.29 64.8198L240.48 62.1802L243.48 60.7002L240.84 58.7002L234.49 59.0801L228.55 55.3599L218.28 55.27L216.38 54.73L213.86 56.3799L208.91 55.9102L208.3 52.1699L204 54L197.8 53.4702L185.8 55.6899L177.37 56.3901L169.82 58.3901L166.18 55.9302L160.7 55.7598L156.35 53.23L143.2 53L135.01 50.8599L130.01 50.7798L117.55 47.9102L113.49 49.6802L107.06 49.5098L103.59 50.4399L94.1896 50.7798L83.6496 54.52L73.2296 58.2402L66.7196 58.8599L62.5896 60.6201L65.0496 64.1201L64.7496 66.5098L67.4396 67.6299L69.3596 70.46L64.4396 71.1001L57.0296 71.5698L56.5496 69.8501L40.3496 73.1899L38.1296 79.2998L44.6496 78.3501L49.2496 78.8799L58.7696 78.1802L53.0796 81.1802L48.8696 83.48L43.1396 84.1802L38.9296 86.4902L35.5296 86.7402L23.8396 91.5601L20.5996 92.4302L18.9096 94.0098L18.2896 98.1602L15.5096 99.7402L17.5096 102.74L24.4196 100.92L18.9296 107.26L23.7096 106.61L29.1796 107.33L33.9596 108.21L18.6896 114.34L9.5096 120.67L4.09961 121.96L11.1496 122.19L15.2096 119.55L49.0596 106.08L49.5196 104.81L65.7996 97.7402L73.1196 95.7402L68.9096 97.6001L60.3196 104.4L76.6096 100.66L78.0396 97.1802L87.0996 94.96L87.1596 96.3101L91.1596 98.8301L95.5496 98.7002L108.37 101.95L111.72 108.72L115.93 109.72L116.57 113.06L114.98 115.06L117.84 120.49L116.97 121.44L118.56 123.58L118.01 126.52L115.57 129.92L116.02 139.52L114.27 143.2L113.88 146.2L118.49 147.71L121.96 152.16L124.75 156.84L122.75 159.01L119.17 154.57L118.86 151.76L116.86 149.46L111.3 148.36L111.19 151.85L115.82 157.71V160.35L111.76 170.99L96.4296 189.8L94.7596 196.1L89.5996 203.1L90.0696 205.15L88.4196 208.73L91.0396 215.33L90.1696 217.95L90.0696 222.17L91.0696 225.03L91.3096 232.89L96.0596 233.84L101.79 240.32L103.54 258.63L107.35 265.63L106.78 268.09L103.91 268.97L103.78 271.83L107.78 275.95L110.07 275.57L113.41 279.57L112.59 281.64L112.37 285.37L116.28 287.54L120.09 294.54L121.02 293.84L121.67 289.62L118.16 286.06L118.33 283.25L116.92 280.73L116.75 277.39L112.94 268.26L112.77 264.26L108.77 258.13L109.17 250.86L111.17 248.53L115.04 249.53L117.28 250.53L117.85 261.65L123.14 268.96V271.35L126.88 278.03L126.97 281.72L134.43 290.02L140.14 298.4V304.47L138.33 307.17L139.91 315.02L144.03 316.2L147.29 320.58L151.9 321.7L156.25 325.49L162.58 327.83L177.48 333.29L186.28 331.23L197.97 342.34L204.3 342.76L204.4 344.64L207.98 346.72L215.82 347.33L220.82 353.71L223.59 356.71L224.35 358.99L223.99 363.45L231.37 368.31L236.11 373.92L241.78 374.22L246.78 378.61L249.57 377.09L248.28 372.99L253.39 370.18L259 373.3L258 376.08L259.83 379.31L262.39 387.74L261.39 399.33L257.1 404.58L254.41 408.39L254.1 411.57L248.37 413.16L247.58 418.24L246.46 419.69V421.41L244.24 424.41L245.81 430.61L248.68 432.21L248.85 435.37L246.85 436.17L242.39 442.85L245.73 449.53L244.73 451.75L249.17 453.63L254.6 461.42L257.6 469.2L269.66 491.95L276.49 499.86L286.03 504.95L300.66 516.37L303.83 574.2L308.27 595.2L307 613.6L305.1 618.04L311.44 640.93L316.53 640.28L319.69 661.28L326.07 677.78L334.97 694.94L341.97 701.94L351.51 699.41L355.95 709.58L375.04 710.83L359.29 700.34L358.51 697.18L352.81 691.92L351.51 686.87L353.9 684.18L354.21 679.57L357.55 676.57L357.72 672.28L356.6 670.37L351.38 668.94L348.65 664.81L347.7 661.64L354.55 656.73L353.26 653.39L354.38 649.23L352.96 646.71H357.07L356.12 644.66L351.21 643.54L348.82 636.71L355.97 638.45L361.06 636.24L359.94 634.02L360.11 631.02L357.89 626.43L369.14 626.9L377.43 622.59L378.68 613.39L375.97 611.34L375.04 607.53L369.04 604.53L368.7 600.88L371.7 602.95L375.21 602.78L378.04 604.36L384.57 605.82L388.68 602.14L391.07 597.22L394.24 590.07L394.58 586.9L397.45 581.51L400.27 581.64L400.61 576.9L406.35 571.8L406.95 568.18L405.83 561.18L405.53 554.05L417.46 545.62L424.12 542.62L434.44 540.38L436.19 537.19L438.71 535.29L439.19 529.41L442.87 521.96L443.04 516.22L444.75 512.89L445.26 506.23L446.51 503.06L444.27 497.96L445.27 490.35L446.27 488.13L446.1 486.38L448.96 484.61L452.3 477.48L455 476.19L462 464.77L462.81 456.82L460.9 448.09L459.48 446.18L450.1 442.36L439.63 433.77L435.95 434.42L420.62 430L416.62 432.09L415.67 428.09L401.06 421.56L398.36 425.39L397.89 419.49L392.79 418.39L390.57 416L390.24 409.67L388.18 406.5L384.54 395.5L377.06 389.16L370.55 387.25L357.55 386L352.16 382.14L350.74 378.67L347.87 374.36L339.75 371.54L340.26 368.98L337.87 365.64L333.41 364.23L335.18 360.56L327.53 360.73L320.72 363.42L314.82 360.9L305.92 359.43L304.67 358.03L301.82 357.21L298.62 353.21L298.01 356.21L291.33 360.97L292.75 365.41L290.36 369.09L288.94 365.75L290.36 361.93L288.77 356.68L292.28 352.24L289.28 352.41L288.63 353.03L283.07 356.68L278.97 357.15L270.55 362.58L271 366.22L263.87 373.53L263.09 374.65L262.75 371.48L257.02 367.74L253.46 367.17L245.15 370.91L241.15 369.56L234.3 363.56L233.9 360.4L234.72 353.74L235.82 346.24L237.64 340.08L237.5 336.99L235.42 336.41L233.37 333.64L225.27 332.64L222.95 333.99L215.8 334.41L212.23 332.72L215.88 328.72V327.88L216.06 324.14L218.93 319.99L222.61 312.55L223.14 308L225.53 302.91L217.36 302.78L208.86 305.7L206.33 315.24L203.13 318.88L192.6 318.64L187.19 320.23L185.67 318.34L183.36 318L180.19 314.9L177.02 307.05L177.25 302.3L176.68 296.5L177.89 288.72L182.01 278.77L182.1 274.34L183.87 270.05L187.66 267.19L189.79 265.36L205.68 258.29L209.75 259.71L212.75 259.18L214.23 261.06L222.43 261.45L221.96 258.29L219.09 256.54L227.69 256.71L229.81 255.02L231.38 255.42L236.38 254.85L239.64 256.07L241.88 259.48L246.55 257.48L251.24 262.91L250.61 267.08L250.5 270.59L255.22 281.4L257.52 282.75L262.36 276.75L262.21 271.37L261.01 265.94L259.74 260.15L259.57 253.87L261.73 251.18L264.95 245.31L269.81 242.22L276.72 237.44L279.41 236.66L283.27 232.93L288.88 231.98L288.71 228.77L291.41 227.6L293.65 223.46L294.1 218.7L294.84 212.83L295.62 209.88L296.9 214.88L301.04 208.38L302.22 208.28L307.95 203.04L308.02 200.96L315.58 197.32L320.01 196.92L326.86 193.92L327.23 189.23L332.78 183.5L336.94 183.1L338.76 180.81L343.76 179.93L347.7 177.29L359.47 173.29V176L355.75 177.25L350.19 182.51V184.73L352.56 185.6L358.35 179.17L363.26 179.4L373.38 175.4L370.51 173.82L365.37 172.7L362.26 170.14L362.03 167.28L361.16 165.15L362.67 162.93L359.87 161.49L366.37 158.62L366.85 157.15L363.61 155.46L355.43 155.85L349.09 159.37L337.69 165.63L342.96 161.72L347.88 156.02L355.66 153.22L359.66 150.53L369.49 151.08L376.09 150.08L384.34 150.9L397.7 143.58L405.17 143.41L408.25 140.66L409.86 134.23L406.01 131.53L406.3 127.95L398.5 124.85L395.06 118.42L396.41 117.08L396.83 113.79L392.37 100.53L384.65 105.78L378.16 108.88L373.22 106.49L372.3 102.98L375.39 97.2798L369.96 93.5498L365.45 89.1099L363.15 90.3799L352.85 88L348.98 89.8198L347.98 93.25L345.36 96.1899L344.02 102.93L336.6 107.37L339.6 112.37L333 121.15L319.59 127.36L319.42 131L317.82 134.09L317.52 138.87L315 142H312.3L308.3 144.47L305.04 139.55V134.69L307.13 130.41L310.24 125.33L306.73 124.45L301.22 124.39L292.44 119.71L290.83 117.32L283.03 114.45L277.58 115.08L279.46 107.3L275.18 107.07L281.38 97.7002L289.58 91.5698L299.4 87.7002L304.74 87.2798L305.85 85.2798L308.61 84.8301L309.25 83.5298L324.67 76.3301L325.4 74.5098L329.19 73.8599L331.58 70.9399L335.95 70.9902L340.73 69.6499L344.07 71.4102L354.14 65.4102L354.37 62.54L357.54 60.9502L360.1 57.6299L356.1 55.2202L349.5 55.1602L338.16 65.2402L333.81 66.2402L332.35 64.02L335.63 61.02L336.17 59.1401L333.87 57.7002L328.78 60.79L329.6 56.3501L325.6 54.9302L329.33 52.29V47.04L326.93 45.8101ZM274.93 158.2L275.87 160.9L279.54 162.32L278.1 166.59L280.01 170.59L288.57 172.03L291.78 174.4L292.25 179.01L290.03 180.59L287.79 177.26L286.69 179.83L284 181.4L276.5 190.6L279.07 183.45L274.07 183.62L278.87 177.13L274.42 173.79L271.07 176.79L266.16 178.37L262.35 184.57L261.87 188.08L255.52 194.91L253.13 193.47L254.7 186.16L264.25 173.45L272.19 171.88L279.19 172.03L275.54 168.84L269.17 168.37L265.83 169.01L263 167.11L247.75 168.84L257.1 163.61L267.29 158.82L274.93 158.2ZM291.87 188.77L291.21 190.56L285.82 193.06L277.82 196.06L273 196.17L272 194.92L273 193.57L276.8 194.25L281.52 191.69L282.87 190.88L284.56 189.66L291.87 188.77ZM365.81 26L370.25 23.6099L377.88 22.3398L378.52 19.9702L385.52 20.4399L396.32 15.21L395.22 13.9302L402.67 10.27L390.76 9.47998L386.95 6.77979L393.47 7.1001L416.18 3.1001H426.35L436.35 4.22021L447.94 4.37012L455.1 3.41992L460.66 2.9502L467.34 4.8501L455.25 7.56006L441.11 10.73L427.78 15.1899L420.47 15.02L409.35 19.1499L404.59 19.6299L397.91 22.79V24.8599L393.63 25.8599L386.32 26.1602L383.62 25.3701L380.12 26.0098L365.81 26ZM381.21 37L391.71 38.8999L388.04 40.1699L382.16 40.8101L381.21 37ZM357.86 78.9302L362.47 74.1699L370.57 75.7402L375.5 73.2002L385.5 63.52L384.23 61.4502L380.23 59.54L373.87 52.71L372.45 54.4702L357.82 53.6802L353.82 52.0801L348.27 53.2002L341.27 49.2002L344.6 44.4302L351.91 39.3501L363.66 37.75L358 42.7002L356.41 47.6299L359.41 43.6299L367.03 38.3901L376.88 37.7402L376.08 41.8799L383.23 43.4702L391.17 43.1499L397.69 46.4902L407.21 49.8301L410.56 55.8301L405.79 59.1602L409.28 61.8599L417.53 66.1499L419.28 69.8101L410.23 77.9102L404.52 70.7598L395.47 71.0801L399.59 76.4702L401.98 80.1299L400.23 85.2202L396.23 87.1099L387.82 82.98L389.25 87.1099L391.64 91.3999L377.98 86.79L373.37 79.3301L365.59 80.1299L361.3 79.1802L357.86 78.9302ZM350.86 31.5898L354.35 29.2002L356.89 26.2002L360.7 25.8999L362.62 28.4399L377.23 29.2202L380.57 28.27L387.7 28.5898L385.63 31.9302L381.99 34.1499L376.91 34.6299H369.76L362.45 32.4102L350.86 31.5898ZM363.4 14.7598L366.58 18.7598L378.03 17.4902L390.42 15.27L385.96 12.7202L383.41 10.48L378.33 9.06006L363.4 14.7598ZM348.16 18.5498L351.01 20.9502L355.15 21.1001L356.09 20.3198L351.01 18.0801L348.16 18.5498ZM343.08 25.23L348.64 24.1201L351.97 25.1201L350.21 26.2202L343.08 25.23ZM337.82 32.0698L341.16 30.4702L344.83 30.9399L344.98 33.6602L340.86 33.8101L337.82 32.0698ZM331.51 16L334.83 18.7202L340.83 20.6099L343.05 18.54L335.75 16.4902V15.23L331.51 16ZM327.85 43.4902L328.96 41.1001L335.8 36.6699L348.01 37.1401L343.89 40.3101L341.03 41.75L333.56 41.8999L327.85 43.4902ZM324.5 30.1602L329.74 31.1001L335.95 28.4102L338.34 26.02L332.45 25.7002L327.85 25.8701L324.5 30.1602ZM316.25 26.02L318.32 28.2402L321.49 28.5601V26.1699L316.25 26.02ZM306.88 41.4302L305.88 44.6001L312.88 48.1001L322.73 44.29L323.53 39.3599L325.92 36.8198H320.19L315.43 36.02L312.88 38.4102L312.73 40.48L306.88 41.4302ZM300.37 20.9399L304.96 19.6699L309.25 19.3398L308.78 21.4102L305.78 23L300.37 20.9399ZM272.08 32.21C272.73 32.21 278.44 31.8999 278.44 31.8999L282.57 33.1699L305.76 32.3799L310.05 28.3799L304.49 29.5V26.1602H300.2L296.2 30.9199L285.87 25.8599L278.57 27.6099L272.08 32.21ZM259.39 27.1401L265.39 24.1401L276.99 23.6602L282.7 23.1899L280.95 25.1001L272.7 26.52L266.97 28.27L259.39 27.1401ZM291.8 50L296.71 52.8701L296.39 55.2402L291.3 56.2402L289.3 58.6099H278.3L274.01 56.71L260.01 59.4102L250.8 59.8799L247.94 57.6602L241.58 55.5898L243.97 53.2202L258.11 52.5698L245.55 50.8301L244.92 49.71L251.58 48.6099L244.92 46.3901L249.53 43.52L266.36 39.52L267.16 42.3701L272.4 40.9399L276.21 42.54L279.7 40.6201L282.41 42.54L282.24 45.8501L291.14 38.7202L295.14 40.4702L291.8 50ZM224.59 44.4399L226.19 46.9902L230 48.5801L248.75 42.5801L266.37 38.5801L265.42 35.7402L257.15 36.21L254.61 34.2998L242.07 35.4102L224.59 44.4399ZM297 58.5801L305.73 55.2402L310.49 57.48L306.38 59.7002L297 58.5801ZM332.25 72.8799L329.25 75.5801L323.69 82.0801L325.76 85.0801L334.98 81.27L340.98 83.3398L343.2 81.27L340.66 78.1001L337.97 73.4902L332.25 72.8799ZM406.51 144.53L402.32 145.4L391.71 158L384.95 164L393.95 164.57L399.84 163.2L403.33 164.57L403.95 166.39L409.61 167.98L411.83 164.32L409.28 162.97L410.88 159.56V157.02L412.23 153.83L410.63 153.13L404.4 155L402.98 152.46L401.56 150.24L404.97 147.84L406.51 144.53Z" stroke="#B6BABD" stroke-miterlimit="10"/>
<path d="M1052.74 301.18L1052.9 301.51V301.7V301.81V302.02V302.13V302.21H1052.8H1052.68H1052.6V302.12V302.05L1052.67 301.95V301.78V301.58L1052.57 301.25V301.06V300.96L1052.63 301.01V301.08V301.16V301.24V301.31L1052.7 301.22V301.1V301V300.89H1052.78H1052.85V300.99L1052.74 301.18ZM1040.07 301.05L1040.01 301.14L1039.87 301.07L1039.64 300.79V300.69V300.6V300.43V300.35V300.27V300.22H1039.71V300.29V300.63V300.78L1039.81 300.84L1039.92 300.91L1040.07 301.05ZM1052.29 301.05V301.1V301.02L1052.36 300.61V300.35V300.26V300.2L1052.47 300.08V300.14L1052.53 300.32V300.39V300.47L1052.47 300.6V300.77L1052.29 301.05ZM1046.62 300.05V300.16V300.26L1046.55 300.37L1046.46 300.44H1046.38H1046.44V300.38V300.25L1046.75 300.03V300.16V300.24L1046.62 300.05ZM1045.45 300.48V300.25V300.13V300.02L1045.55 299.83L1045.63 299.74H1045.73V299.85L1045.61 300.04L1045.5 300.43L1045.45 300.48ZM1045.51 299.87V299.76L1045.57 299.61L1045.64 299.5H1045.7V299.62L1045.57 299.77L1045.51 299.87ZM1045.9 300.19H1045.83H1045.77V300.12V300.03V299.96V299.91V299.85V299.58H1045.83L1046 299.77L1046.06 299.9L1046.01 300.06L1045.92 300.12L1045.9 300.19ZM1046.73 298.91L1046.64 299.22V299.13V299.08V299.25V299.44V299.61L1046.55 299.73H1046.46V299.67V299.61V299.56L1046.62 299.42L1046.42 299.53V299.58V299.47V299.36L1046.48 299.28H1046.56L1046.68 299.14H1046.74L1046.79 299.08H1046.85L1046.73 298.91ZM1048.27 298.69V299.01V299.12H1048.18L1048.13 299.05V299V298.85V298.74L1048.27 298.69ZM1048.42 298.75L1048.37 298.8V298.53V298.43H1048.44V298.63L1048.42 298.75ZM1048.42 298.32L1048.26 298.6H1048.18V298.53V298.44V298.37V298.15V298.02V298.11V298.21L1048.42 298.32ZM1048.84 299.22L1048.76 299.28H1048.64H1048.57V299.2L1048.7 299.05L1048.79 298.91V298.83V298.59V298.24V297.85H1048.87L1049.02 297.94L1049.12 298.03V298.15L1049.19 298.21V298.39V298.51V298.67L1049.11 298.82V298.9V298.96L1049.05 299.08L1048.96 299.16H1048.89H1048.83L1048.84 299.22ZM1046.84 297.57L1046.9 297.7V297.83V297.95V297.85V297.94V298.14V298.23V298.18V298V297.91V297.72V297.63H1046.84V297.53H1046.92L1046.84 297.57ZM1046.93 297.57V297.27V297.33V297.48V297.57ZM1049.22 297.47H1049.11L1049.02 297.41V297.28L1049.18 297.2L1049.37 297.15V297.24V297.36L1049.28 297.43L1049.22 297.47ZM1051.02 297.71H1050.8L1050.66 297.62L1050.52 297.43L1050.45 297.23V297.06L1050.56 296.81L1050.65 296.76L1051.05 297.3V297.51L1051.02 297.71ZM1047.72 298.96L1047.48 299.34L1047.4 299.41V299.36L1047.29 299.47L1047.17 299.67H1047.11V299.56L1047.17 299.41L1047.25 299.26L1047.31 299.13L1047.05 299.5H1046.98V299.4V299.26V299.11L1047.05 299V298.89V298.71L1047.24 298.29V298.21V298.11V298V297.91V297.77V297.67V297.61V297.52L1047.18 297.22V297.1L1047.11 297.03L1046.85 296.85H1046.78V296.66V296.49L1046.88 296.07V296.02H1046.93H1047.01H1047.09H1047.17V296.17V296.35L1047.23 296.49L1047.31 296.65L1047.37 296.77L1047.44 296.86L1047.51 296.98V297.22L1047.56 297.37L1047.67 297.48L1047.87 297.67L1047.96 297.79L1047.87 298.26V299.07L1047.72 298.96ZM1046.72 295.33L1046.81 295.43H1046.89L1046.97 295.53L1047.04 295.64H1047H1046.84H1046.67L1046.54 295.77H1046.47L1046.41 295.84V295.97V296.05L1046.35 296.13V296.08L1046.29 296.02V296V295.95H1046.17V295.9V295.85V295.71V295.62V295.53V295.46H1046.23H1046.39H1046.46V295.39H1046.68L1046.72 295.33ZM1046.89 294.84L1046.99 294.92H1046.84V294.97V295.02H1046.7V294.92H1046.62H1046.4L1046.33 294.81L1046.42 294.65L1046.57 294.52H1046.68L1046.78 294.61L1046.89 294.84ZM1046.13 294.65V294.44V294.37H1046.34V294.42L1046.27 294.49L1046.13 294.65ZM1046.41 292.96L1046.58 293.09V293.2L1046.42 293.08H1046.33V293.14H1046.25H1046.16L1046.08 293.08L1045.94 292.93V292.86V292.81H1046.06L1046.23 292.87L1046.41 292.96ZM1037.19 276.96L1037.28 277.02L1037.39 277.07H1037.52H1037.58V277.12V277.18H1037.68V277.23V277.31V277.4L1037.78 277.45L1037.84 277.5V277.56V277.66H1037.78L1037.62 277.75L1037.7 277.81L1038.09 277.67L1038.25 277.73V277.81V277.9V277.97H1038.33H1038.4L1038.46 277.8L1038.56 277.74H1038.68L1038.88 277.94L1039.01 277.99L1039.21 277.94L1039.3 277.87V277.77H1039.19V277.66H1039.12V277.51L1039 277.45H1038.87L1038.78 277.34V277.26V277.16L1038.84 277.07L1038.9 277.02H1038.97L1039.05 277.07L1039.12 277.15H1039.22V277.22H1039.3H1039.4V277.29H1039.33V277.43V277.52L1039.42 277.67V277.75V278.07V278.16L1039.48 278.22L1039.78 278.36H1039.84L1039.89 278.43V278.53L1040.05 278.61L1040.16 278.74L1040.24 278.8H1040.33H1040.4L1040.48 278.75L1040.53 278.7L1040.6 278.81H1040.69H1040.94H1041.01L1041.07 278.92V278.98H1041.13V278.85V278.71L1041.32 278.54V278.45V278.39H1042V279H1042.07H1042.12H1042.04H1041.96V278.94V278.85H1042.06V278.79V278.64H1042.16H1042.24V278.71V278.95H1042.3H1042.46H1042.52V279.03V279.12V279.19L1042.58 279.27V279.33V279.4V279.49L1042.67 279.61V279.68H1042.73L1042.79 279.76V279.83L1042.73 279.88H1042.64L1042.73 279.94H1042.8V280.07L1042.61 280.42V280.55L1042.69 281.01L1042.8 281.27V281.47V281.83V282.21L1042.74 282.47V282.6V282.65V282.8V282.98V283.16V283.26H1042.81L1042.98 283.19H1043.15L1044.15 283.62L1044.87 283.78L1045.22 283.94H1045.38L1045.84 283.84H1046.21H1046.39H1046.46H1046.51H1046.61H1046.77V283.79H1046.86H1046.92L1046.98 283.84H1047.05H1047.17L1047.68 283.76L1047.83 283.71L1048.55 283.59H1048.86L1048.96 283.54L1049.18 283.66L1049.85 283.87H1050.03H1050.12H1050.22L1050.3 283.81H1050.38V283.87L1050.45 283.93H1050.53H1050.65H1050.75V283.88V283.8H1050.81V283.74H1050.88H1051.1L1051.58 283.68H1051.84H1051.92H1052.04H1052.19H1052.33L1052.46 283.73V283.8H1052.56H1052.62L1052.68 283.88L1052.75 283.94H1052.81H1052.9H1053.13L1053.2 284.05L1053.33 284.1L1053.44 284.17V284.27H1053.52L1053.66 284.38L1053.78 284.43V284.48V284.56V284.65L1053.72 284.75L1053.56 284.8L1053.28 284.89L1052.97 284.69H1052.8H1052.67V284.78V284.87L1052.73 285.03V285.2V285.27L1052.5 285.94V286.13V286.31V286.38V286.46L1052.43 286.51V286.61V286.92V287.06L1052.34 287.19L1052.23 287.24H1052.1H1051.72V287.3L1051.82 287.47V287.54H1051.73L1051.63 287.47H1051.53V287.56V287.76V287.86L1051.43 288.29V288.38H1051.37H1051.28L1051.14 288.24V288.05H1051.09L1050.8 287.98V288.05V288.15V288.25V288.34V288.41H1050.72H1050.63H1050.55V288.33L1050.47 288.13H1050.42V288.19V288.51V288.62V288.69H1050.36H1050.25H1050.07H1049.9L1049.55 288.62H1049.37L1049.31 288.75V288.95V289.15H1049.25H1049.09H1049.01L1048.95 289.2L1048.9 289.27L1048.75 289.55V289.62V289.69L1048.81 289.81V289.97L1048.72 290.24L1048.67 290.33H1048.59H1048.5H1048.43V290.43V290.54H1048.5H1048.58V290.61V290.7H1048.46V290.82V290.91L1048.59 291.16V291.25V291.41V291.5L1048.67 291.55V291.67L1048.73 291.89L1048.78 291.99H1048.84H1048.9V292.04L1049 292.85L1049.06 293.06L1049.17 293.21H1049.32V293.05L1049.23 292.62V292.4V292.28L1049.28 292.21H1049.38L1049.47 292.28L1049.53 292.37V292.45V292.54L1049.6 292.61V292.77V292.82L1049.71 293.19V293.31V293.48V293.53L1049.77 293.6H1049.83H1049.89H1049.95V293.66V293.71H1050.02V293.66H1050.15H1050.21H1050.33H1050.39L1050.47 293.59L1050.54 293.47V293.41H1050.61L1050.68 293.33V293.27L1050.62 293.11L1050.55 292.77L1050.49 292.61V292.41L1050.58 292.16L1050.71 291.93L1050.83 291.76L1050.9 291.7L1051.15 291.58L1051.22 291.53L1051.28 291.46L1051.39 291.29V291.09L1051.27 290.51V290.2V290.14H1051.34V290.2L1051.4 290.3L1051.59 290.52H1051.66H1051.77L1051.84 290.45L1051.99 290.24L1052.07 290.15L1052.26 290.08L1052.35 290.23V290.42L1052.42 290.51L1052.48 290.44L1052.54 290.2H1052.62L1052.71 290.25V290.36V290.57V290.74L1052.88 291.32V291.56V291.64V291.69V291.83L1052.94 291.88V292.07V292.15V292.2V292.25V292.35L1052.86 292.52V292.6V292.8L1052.98 293.51V293.86V294.02L1053.06 294.16L1053.21 294.22L1053.28 294.3V294.69V294.85V294.92L1053.4 295.03V295.1V295.18V295.57V295.94L1053.46 296.1V296.18L1053.72 297.82V297.94H1053.66L1053.6 297.99L1053.7 298.32L1053.76 298.65V298.74L1053.82 299.04V299.19L1053.74 299.95L1053.81 301.14V301.26V301.51L1053.97 302.01V302.11V302.19L1053.88 302.29L1053.77 302.36H1053.68V302.3V302.19V301.99L1053.59 301.79H1053.48H1053.32H1053.13H1053.03V301.7V301.62V301.53L1052.97 301.45H1052.83L1052.65 301.67H1052.51H1052.44V301.76L1052.37 301.97L1052.25 302.16V302.25V302.35V302.54V302.64V302.79V302.86V302.95V303.02L1052.35 303.12V303.19V303.27L1052.54 303.43V303.62V303.83V304.03V304.21L1052.67 304.41V304.47V304.56L1052.75 304.82V304.88V304.99L1052.65 304.73L1052.34 304.16L1052.26 303.83V303.78L1052.02 303.58V303.51L1051.94 303.37V303.29L1051.74 303.05V302.97V302.86V302.54V302.42V302.33L1051.49 301.86V301.81L1051.44 301.74V301.65V301.57V301.48L1051.5 301.39L1051.57 301.34H1051.66L1051.6 301.28V301.19V301.09V301V300.94L1051.66 300.88V300.81V300.73L1051.72 300.64V300.59V300.54V300.48L1051.66 300.65V300.72H1051.58V300.66V300.58V300.5V300.44V300.53V300.47V300.29H1051.64L1051.71 300.22L1051.64 300.27V300.2H1051.75H1051.54H1051.45H1051.38V300.08V299.97H1051.46V299.92V299.87H1051.52V299.81V299.71V299.51V299.46L1051.46 299.39V299.34V299.15L1051.35 298.64V299H1051.4V299.09V299.01V298.9V298.78V298.65V298.58V298.53V298.45V298.4V298.28L1051.48 298.22H1051.59L1051.69 298.17V298.08L1051.8 297.73H1051.71V297.8V298V298.06L1051.64 298.12H1051.56L1051.45 298.18V298.23V298.31H1051.5H1051.56V298.41L1051.49 298.47H1051.39L1051.32 298.36L1051.24 297.79L1051.19 297.61L1050.89 296.99L1050.31 296.16L1050.16 296.1L1050.08 296.02L1050.02 295.93V295.85V295.8V295.67V295.61V295.47L1050.09 295.26V295.14V295.23L1050.02 295.49V295.55H1049.92L1049.86 295.63V295.74V295.86L1049.79 295.81H1049.73H1049.65V295.86H1049.6H1049.52H1049.29H1049.37H1049.44V295.93H1049.38H1049.3H1049.22H1049.09V295.83H1048.86L1048.92 295.88V295.94H1048.82L1049.08 296.01L1049.2 296.06V296.16V296.22V296.29L1049.14 296.48L1049.05 296.58L1048.97 296.65H1048.85L1048.63 296.7L1048.45 296.61L1048.37 296.47V296.26V296.2V296.11L1048.32 295.96H1048.26L1048.32 296.03L1048.39 296.17V296.31V296.41H1048.3H1048.15H1048.02L1047.96 296.36V296.29L1047.83 296.2V296.15L1047.76 296.06V295.92H1047.71H1047.58V295.74H1047.53V295.65L1047.47 295.56V295.5V295.37V295.19V295.11V295.03V294.95V294.84V294.77L1047.12 294.29V294.15V294.04V293.73V293.53V293.42L1047.17 293.32V293.23V293.13L1047.1 292.97V292.9H1046.98L1046.91 292.8V292.64V292.25V292.14L1047.03 292.07H1047.29L1047.4 292.01V291.83V291.76H1047L1047.08 291.83V291.93H1047L1046.91 291.98H1046.8L1046.73 292.03L1046.66 291.83V291.69L1046.73 291.57L1046.85 291.52V291.47H1046.77L1046.61 291.54V291.61H1046.46H1046.4L1046.28 291.53V291.61L1046.34 291.66H1046.42H1046.49H1046.66V292.17V292.24V292.33V292.41L1046.51 292.34L1045.62 292.17L1045.44 292.1L1045.29 292V292.06V292.11L1045.88 292.47L1045.95 292.53V292.6V292.66V292.71H1046.09L1046.22 292.77H1046.29H1046.59L1046.73 292.97V293.06V293.23V293.18V293.13V293.23V293.53V293.65L1046.61 293.83V293.9H1046.55H1046.46H1046.29H1046.23V293.99V294.13L1046.3 294.29L1046.38 294.44L1046.47 294.56V294.68H1046.53H1046.46H1046.4H1046.33H1046.26L1046.18 294.79V294.96L1046.12 295.1H1045.99L1046.07 295.16V295.23H1046.01H1045.95L1045.85 295.29L1045.92 295.34L1046.05 295.39H1046.14V295.3H1046.22L1046.3 295.37L1046.35 295.44V295.49V295.65V295.81V295.98V296.04H1046.25V296.12V296.4V296.34V296.25V297V296.93H1046.31H1046.4H1046.48L1046.64 297.03L1046.72 297.17L1046.78 297.34L1046.86 297.51H1046.79V297.62V297.71L1046.88 297.89V297.99V298.09V298.3L1046.73 298.68L1046.62 298.85H1046.54L1046.42 298.91V298.96V299.03V299.11L1046.29 299.34V299.39H1046.23H1046.17H1046.1H1046.03V299.26L1046.14 299.02V298.91L1046.08 298.76V298.7V298.54V298.48H1046V298.58V298.8V298.88V298.97V299.04V299.09V299.25V299.31L1045.92 299.44L1045.86 299.51V299.59L1045.77 299.78V299.87V300.06V300.24V300.34V300.41L1045.52 300.63H1045.46H1045.37H1045.28L1045.11 300.56H1045.03H1044.96V300.48V300.42H1045.03V300.35V300.29V300.19V300.25L1044.95 300.45V300.5V300.57L1044.89 300.52V300.39V300L1044.94 299.89V299.83V299.75V299.69V299.63V299.56L1045.13 299.38V299.32L1045.22 299.25L1045.3 299.14V299.01V298.88L1045.21 299.09V299.2L1045.14 299.25H1045.02H1044.95L1044.68 299.55V299.6V299.71L1044.62 299.8H1044.51L1044.37 299.74V299.67V299.59V299.53V299.45V299.3V299.22V299.17V299.11H1044.25V299.2L1044.18 299.44V299.5L1044.06 299.62V299.91L1043.99 299.97H1043.91L1043.84 299.89V299.79V299.74V299.63V299.2V299V298.82V298.73V298.49L1043.93 298.26L1044.31 297.7V297.64V297.58V297.53H1044.37L1044.25 297.62L1044.11 297.77L1044.04 297.85V297.93V298.01H1043.96L1043.83 297.9V298V298.09V298.17V298.28L1043.64 298.65L1043.7 298.76V298.94V299.27V299.53V299.59L1043.63 299.64H1043.56H1043.49H1043H1043.1L1043.18 299.69V299.77V299.89V299.98V300.04L1043.24 300.14V300.23L1043.29 300.29V300.35V300.43H1043.19L1043.07 300.53H1042.99V300.46H1042.94L1042.87 300.51H1042.81H1042.65H1042.57V300.46V300.4L1042.62 300.31L1042.55 300.21L1042.43 300.49V300.58L1042.52 300.7L1042.62 300.81L1042.71 300.86V300.91V301.01L1042.61 301.08H1042.5H1042.44H1042.33L1042.38 301.21V301.26L1042.29 301.35L1042.19 301.28L1042.07 301.08V301V300.79V300.67V300.61L1042.15 300.51V300.43V300.35V299.99V299.7V299.6L1042.26 299.4V299.29V299.19V299.08V298.99L1042.19 298.92V298.85L1042.33 298.66V298.58V298.47V298.37V298.27V298.18V298.24L1042.27 298.38L1042.21 298.43V298.48V298.59V298.64L1042.12 298.7V298.79V298.86L1042.21 299.03V299.09V299.31V299.41V299.73V299.8H1042.13V299.73V299.5V299.45V299.35V299.28L1041.92 298.79V298.69V298.46V298.36L1041.87 298.26V298.59V299.22V299.15V299.08V299.2V299.26V299.31V299.36V299.44V299.56H1041.81V299.64V299.69V299.82V300.09V300.15H1041.75L1041.69 300.21V300.3V300.37V300.45V300.57V300.69V300.78L1041.63 300.86L1041.46 301L1041.35 300.86V300.79V300.66V300.44V300.35L1041.41 300.2V300.08V299.98L1041.33 299.81V299.73V299.8V299.87V299.93V300V300.08L1041.26 300.16V300.22L1041.19 300.41V300.34V300.47V300.66V300.78L1041.11 300.96V301.01H1041.21V301.07L1041.13 301.13H1041.04H1040.95L1040.86 301.08V300.99V300.9H1040.91V300.84L1040.77 300.44V300.34V300.39V300.44H1040.71L1040.61 300.39L1040.5 299.99V299.8V299.59V299.48V299.37L1040.4 299.23V299.15V298.92V298.83L1040.48 298.73V298.6V298.51V298.42L1040.28 298.16V298.05H1040.35L1040.27 297.91V297.85L1040.21 297.59V297.49V297.42V297.31L1040.13 297.11V296.92H1040.07L1039.93 296.86L1040.03 296.79V296.68V296.54V296.41L1039.97 296.31V296.2V296.13L1039.91 295.99V295.9V295.83V295.76V295.69V295.62V295.52V295.36L1039.86 295.31H1039.73V295.24L1039.63 295V294.93L1039.55 294.81V294.76V294.66V294.52V294.26L1039.62 294.13L1039.86 293.86L1039.98 293.76V293.71V293.66H1039L1038.68 293.55H1038.61H1038.55H1038.46L1038.16 293.45L1038.1 293.4V293.3V293.19V293.1L1038.21 292.92L1038.43 292.32V292.21L1038.37 292.16L1038.31 292.21L1038.25 292.29L1038.18 292.16L1038.05 292.07L1037.97 291.99L1037.87 291.79L1037.8 291.71H1037.67V291.66V291.52H1037.62V291.47L1037.72 291.01V291V290.92V290.86L1037.79 290.75V290.56L1037.87 290.5H1038.05H1038.14L1038.2 290.45L1038.37 290.27V290.18V290.07V289.97V289.91V289.81L1038.42 289.74H1038.31V289.67L1038.22 289.6V289.54V289.49V289.39V289.33V289.23V289.18V289.12V289.07H1038.32H1038.39V289.02V288.94V288.78V288.57L1038.29 288.43L1038.14 288.34H1038.04V288.45L1037.97 288.56H1037.87L1037.65 288.48H1037.35H1037.25L1036.91 288.21L1035.72 287.57H1035.59V287.5V287.18L1035.52 287.11V287H1035.45H1035.36V286.84V286.75V286.66V286.44H1035.41V286.31H1035.47L1035.52 286.22L1035.58 286.16V286.09V286L1035.52 285.82L1035.74 285.69H1035.82H1035.91L1035.99 285.74L1036.05 285.83V285.93V286.02L1036.24 286.08H1036.32L1036.4 285.93L1036.56 285.72L1036.61 285.6V285.47L1036.71 285.33L1036.77 285.18V284.85V284.56L1036.82 284.47H1036.97H1037.04L1037.19 284.52H1037.31H1037.4L1037.46 284.45H1037.66H1037.8L1038.07 284.55H1038.34V284.44H1038.44L1038.75 284.56H1038.87L1038.8 284.46H1038.88V284.41V284.34V284.27V284.22L1039.05 284.09V284.04V283.94H1038.83H1038.72L1038.64 283.86H1038.49L1038.39 283.73V283.67V283.58L1038.47 283.4V283.29V283.22H1038.41V283.15L1038.27 283.09V283.18H1038.15V283.23H1038.05L1037.91 283.14L1037.82 283.09H1037.62H1037.53V283.04V282.97L1037.41 282.87V282.77L1037.24 282.68L1037.18 282.61V282.3L1037.06 282.16L1036.73 281.93L1036.45 281.61L1036.31 281.53L1036.1 281.59H1036.03H1035.94H1035.85V281.52V281.43V281.38L1035.78 281.3V281.21V281.13V280.9L1035.87 280.61L1035.96 280.43L1036.07 280.34V280.24V280.19V280.09V279.92V279.86L1036.22 279.76H1036.27H1036.36L1036.62 279.66L1036.7 279.61V279.53V279.35V279.27L1036.77 279.17L1036.84 279.11L1037.05 278.97H1037.1H1037.25H1037.35V278.84L1037.26 278.56L1037.2 278.44L1037.08 278.39L1036.81 278.33H1036.71V278.45H1036.65V278.38V277V276.93L1036.71 276.83L1036.8 276.5V276.43V276.33L1036.86 276.27V276.57L1036.92 276.64L1037.08 276.69H1037.15L1037.21 276.76L1037.27 276.81L1037.32 276.86L1037.19 276.96Z" fill="#464A4D"/>
</g>
</svg>
