<svg width="306" height="178" viewBox="0 0 306 178" fill="none" xmlns="http://www.w3.org/2000/svg">
<path d="M0.379883 112.45L0.379883 177.83L305.81 177.83V112.45L0.379883 112.45Z" fill="#FFFF00"/>
<path d="M4.42188 27.5938H7.48438L10.5938 41.0781C10.7396 41.7031 10.8802 42.3385 11.0156 42.9844C11.1615 43.6302 11.2708 44.1302 11.3438 44.4844C11.4271 44.8281 11.4844 45.0677 11.5156 45.2031L11.8125 46.5781H11.8438C12.5104 43.9844 12.9896 42.151 13.2812 41.0781L16.9531 27.5938H19.9062L23.6406 41.0781L24.9844 46.2188L25.0938 46.5781H25.125L26.2969 41.0781L29.3438 27.5938H32.4219L26.5938 50H23.5469L19.7812 36.8125C19.2188 34.8229 18.7604 33.0938 18.4062 31.625H18.375C17.7812 34.0208 17.3333 35.7604 17.0312 36.8438L13.3125 50H10.2344L4.42188 27.5938ZM47.4219 42.1875C47.4219 42.5312 47.4115 42.7552 47.3906 42.8594H35.25C35.2917 44.6302 35.6875 45.9427 36.4375 46.7969C37.1875 47.651 38.3073 48.0781 39.7969 48.0781C41.1615 48.0781 42.2135 47.7865 42.9531 47.2031C43.7031 46.6198 44.1771 45.7188 44.375 44.5L47.1562 44.7188C46.7917 46.5833 45.9896 47.9948 44.75 48.9531C43.5104 49.9115 41.8698 50.3906 39.8281 50.3906C37.3385 50.3906 35.4219 49.6094 34.0781 48.0469C32.776 46.6198 32.125 44.5938 32.125 41.9688C32.125 39.5312 32.7969 37.5469 34.1406 36.0156C35.5885 34.4115 37.474 33.6094 39.7969 33.6094C41.099 33.6094 42.3073 33.8854 43.4219 34.4375C44.5469 34.9896 45.4219 35.7708 46.0469 36.7812C46.9635 38.25 47.4219 40.0521 47.4219 42.1875ZM36.0625 37.6875C35.5938 38.5104 35.3385 39.4583 35.2969 40.5312H44.4375C44.4167 40.0625 44.3281 39.5625 44.1719 39.0312C44.026 38.4896 43.8281 38.0417 43.5781 37.6875C42.8073 36.5312 41.5573 35.9531 39.8281 35.9531C38.9531 35.9531 38.1875 36.1094 37.5312 36.4219C36.875 36.724 36.3854 37.1458 36.0625 37.6875ZM72.3906 50C71.901 50.0833 71.3021 50.125 70.5938 50.125C68.8333 50.125 67.875 49.2917 67.7188 47.625C66.8229 49.4688 65.0312 50.3906 62.3438 50.3906C60.8438 50.3906 59.5729 49.9844 58.5312 49.1719C57.4896 48.3594 56.9688 47.2292 56.9688 45.7812C56.9688 45.1458 57.0677 44.5729 57.2656 44.0625C57.4635 43.5521 57.724 43.1302 58.0469 42.7969C58.3698 42.4531 58.776 42.151 59.2656 41.8906C59.7552 41.6302 60.2448 41.4271 60.7344 41.2812C61.224 41.125 61.7812 40.9896 62.4062 40.875L67.6875 39.8594C67.6875 39.0156 67.651 38.3906 67.5781 37.9844C67.5156 37.5781 67.3698 37.2292 67.1406 36.9375C66.9323 36.6146 66.5677 36.3594 66.0469 36.1719C65.5365 35.9844 64.9323 35.8906 64.2344 35.8906C62.849 35.8906 61.849 36.1615 61.2344 36.7031C60.6302 37.2448 60.3281 38.125 60.3281 39.3438L57.5156 38.9531C57.6094 36.9635 58.2708 35.5781 59.5 34.7969C60.6979 34.0052 62.3281 33.6094 64.3906 33.6094C66.3906 33.6094 67.901 34.0573 68.9219 34.9531C69.9531 35.8385 70.4688 37.151 70.4688 38.8906V46.5469C70.4688 47.0469 70.5208 47.375 70.625 47.5312C70.7292 47.6875 70.9896 47.7656 71.4062 47.7656C71.6562 47.7656 71.9635 47.7188 72.3281 47.625L72.3906 50ZM67.6875 42L62.8594 43.0625C61.8177 43.3021 61.0625 43.6042 60.5938 43.9688C60.1354 44.3333 59.9062 44.9271 59.9062 45.75C59.9062 46.4583 60.1771 47.026 60.7188 47.4531C61.2708 47.8698 61.9635 48.0781 62.7969 48.0781C64.4115 48.0781 65.6302 47.7135 66.4531 46.9844C67.276 46.2448 67.6875 45.2344 67.6875 43.9531V42ZM84.0156 33.6094L83.9375 36.3438C83.8125 36.3125 83.5677 36.2969 83.2031 36.2969C82.3385 36.2969 81.599 36.3854 80.9844 36.5625C80.3802 36.7396 79.8385 37.0469 79.3594 37.4844C78.8906 37.9219 78.5365 38.5521 78.2969 39.375C78.0677 40.1875 77.9531 41.2031 77.9531 42.4219V50H75.0781V34H77.9531V36.8125C78.1823 36.0104 78.7604 35.3073 79.6875 34.7031C80.6146 34.0885 81.7031 33.7344 82.9531 33.6406C83.0573 33.6198 83.4115 33.6094 84.0156 33.6094ZM99.4219 42.1875C99.4219 42.5312 99.4115 42.7552 99.3906 42.8594H87.25C87.2917 44.6302 87.6875 45.9427 88.4375 46.7969C89.1875 47.651 90.3073 48.0781 91.7969 48.0781C93.1615 48.0781 94.2135 47.7865 94.9531 47.2031C95.7031 46.6198 96.1771 45.7188 96.375 44.5L99.1562 44.7188C98.7917 46.5833 97.9896 47.9948 96.75 48.9531C95.5104 49.9115 93.8698 50.3906 91.8281 50.3906C89.3385 50.3906 87.4219 49.6094 86.0781 48.0469C84.776 46.6198 84.125 44.5938 84.125 41.9688C84.125 39.5312 84.7969 37.5469 86.1406 36.0156C87.5885 34.4115 89.474 33.6094 91.7969 33.6094C93.099 33.6094 94.3073 33.8854 95.4219 34.4375C96.5469 34.9896 97.4219 35.7708 98.0469 36.7812C98.9635 38.25 99.4219 40.0521 99.4219 42.1875ZM88.0625 37.6875C87.5938 38.5104 87.3385 39.4583 87.2969 40.5312H96.4375C96.4167 40.0625 96.3281 39.5625 96.1719 39.0312C96.026 38.4896 95.8281 38.0417 95.5781 37.6875C94.8073 36.5312 93.5573 35.9531 91.8281 35.9531C90.9531 35.9531 90.1875 36.1094 89.5312 36.4219C88.875 36.724 88.3854 37.1458 88.0625 37.6875ZM20.7031 98C20.2135 98.0833 19.6146 98.125 18.9062 98.125C17.1458 98.125 16.1875 97.2917 16.0312 95.625C15.1354 97.4688 13.3438 98.3906 10.6562 98.3906C9.15625 98.3906 7.88542 97.9844 6.84375 97.1719C5.80208 96.3594 5.28125 95.2292 5.28125 93.7812C5.28125 93.1458 5.38021 92.5729 5.57812 92.0625C5.77604 91.5521 6.03646 91.1302 6.35938 90.7969C6.68229 90.4531 7.08854 90.151 7.57812 89.8906C8.06771 89.6302 8.55729 89.4271 9.04688 89.2812C9.53646 89.125 10.0938 88.9896 10.7188 88.875L16 87.8594C16 87.0156 15.9635 86.3906 15.8906 85.9844C15.8281 85.5781 15.6823 85.2292 15.4531 84.9375C15.2448 84.6146 14.8802 84.3594 14.3594 84.1719C13.849 83.9844 13.2448 83.8906 12.5469 83.8906C11.1615 83.8906 10.1615 84.1615 9.54688 84.7031C8.94271 85.2448 8.64062 86.125 8.64062 87.3438L5.82812 86.9531C5.92188 84.9635 6.58333 83.5781 7.8125 82.7969C9.01042 82.0052 10.6406 81.6094 12.7031 81.6094C14.7031 81.6094 16.2135 82.0573 17.2344 82.9531C18.2656 83.8385 18.7812 85.151 18.7812 86.8906V94.5469C18.7812 95.0469 18.8333 95.375 18.9375 95.5312C19.0417 95.6875 19.3021 95.7656 19.7188 95.7656C19.9688 95.7656 20.276 95.7188 20.6406 95.625L20.7031 98ZM16 90L11.1719 91.0625C10.1302 91.3021 9.375 91.6042 8.90625 91.9688C8.44792 92.3333 8.21875 92.9271 8.21875 93.75C8.21875 94.4583 8.48958 95.026 9.03125 95.4531C9.58333 95.8698 10.276 96.0781 11.1094 96.0781C12.724 96.0781 13.9427 95.7135 14.7656 94.9844C15.5885 94.2448 16 93.2344 16 91.9531V90ZM44.375 88.5V98H41.3906V88.6562C41.3906 87.5938 41.3385 86.8281 41.2344 86.3594C41.1302 85.8906 40.8646 85.4167 40.4375 84.9375C40.0625 84.5625 39.6615 84.3177 39.2344 84.2031C38.8073 84.0781 38.2604 84.0156 37.5938 84.0156C36.5208 84.0156 35.5573 84.3802 34.7031 85.1094C33.849 85.8073 33.4219 87.1615 33.4219 89.1719V98H30.5469V82H33.4219V84.4688C34.2552 82.5625 35.901 81.6094 38.3594 81.6094C40.4323 81.6094 42.0208 82.2083 43.125 83.4062C43.6667 84.0312 44.0104 84.7135 44.1562 85.4531C44.3021 86.1927 44.375 87.2083 44.375 88.5ZM62.7969 90.1875C62.7969 90.5312 62.7865 90.7552 62.7656 90.8594H50.625C50.6667 92.6302 51.0625 93.9427 51.8125 94.7969C52.5625 95.651 53.6823 96.0781 55.1719 96.0781C56.5365 96.0781 57.5885 95.7865 58.3281 95.2031C59.0781 94.6198 59.5521 93.7188 59.75 92.5L62.5312 92.7188C62.1667 94.5833 61.3646 95.9948 60.125 96.9531C58.8854 97.9115 57.2448 98.3906 55.2031 98.3906C52.7135 98.3906 50.7969 97.6094 49.4531 96.0469C48.151 94.6198 47.5 92.5938 47.5 89.9688C47.5 87.5312 48.1719 85.5469 49.5156 84.0156C50.9635 82.4115 52.849 81.6094 55.1719 81.6094C56.474 81.6094 57.6823 81.8854 58.7969 82.4375C59.9219 82.9896 60.7969 83.7708 61.4219 84.7812C62.3385 86.25 62.7969 88.0521 62.7969 90.1875ZM51.4375 85.6875C50.9688 86.5104 50.7135 87.4583 50.6719 88.5312H59.8125C59.7917 88.0625 59.7031 87.5625 59.5469 87.0312C59.401 86.4896 59.2031 86.0417 58.9531 85.6875C58.1823 84.5312 56.9323 83.9531 55.2031 83.9531C54.3281 83.9531 53.5625 84.1094 52.9062 84.4219C52.25 84.724 51.7604 85.1458 51.4375 85.6875ZM66.3906 94.4219V84.4062H64.0781V82H66.3906V77.5469H69.2344V82H72.5V84.4062H69.2344V94.3125C69.2344 94.8125 69.349 95.1458 69.5781 95.3125C69.8073 95.4792 70.2448 95.5625 70.8906 95.5625C71.1927 95.5625 71.6823 95.5104 72.3594 95.4062L72.4375 98C71.6562 98.1042 71.0677 98.1562 70.6719 98.1562C69.1823 98.1562 68.0938 97.8594 67.4062 97.2656C66.7292 96.6615 66.3906 95.7135 66.3906 94.4219ZM73.4062 82H76.5156L79.0156 90.5469C79.0365 90.6302 79.4635 92.1979 80.2969 95.25L81.375 90.5469L83.5312 82H86.2188L88.3281 90.5469C88.5781 91.5469 88.9271 93.1146 89.375 95.25C90.0208 92.8021 90.4479 91.2344 90.6562 90.5469L93.2188 82H96.3281L90.9844 98H87.875L85.7344 89.75C85.6302 89.3438 85.3281 87.9427 84.8281 85.5469C84.4427 87.651 84.1562 89.0521 83.9688 89.75L81.8906 98H78.75L73.4062 82ZM97.3125 90C97.3125 87.5208 98.0417 85.5052 99.5 83.9531C100.958 82.3906 102.896 81.6094 105.312 81.6094C107.698 81.6094 109.62 82.3958 111.078 83.9688C112.547 85.5312 113.281 87.5417 113.281 90C113.281 92.5104 112.547 94.5365 111.078 96.0781C109.62 97.6198 107.698 98.3906 105.312 98.3906C102.823 98.3906 100.865 97.6458 99.4375 96.1562C98.0208 94.6667 97.3125 92.6146 97.3125 90ZM109 94.5781C109.781 93.5573 110.172 92.0312 110.172 90C110.172 87.9688 109.781 86.4427 109 85.4219C108.229 84.401 107 83.8906 105.312 83.8906C103.604 83.8906 102.359 84.401 101.578 85.4219C100.797 86.4323 100.406 87.9583 100.406 90C100.406 92.0521 100.792 93.5833 101.562 94.5938C102.333 95.6042 103.583 96.1094 105.312 96.1094C107 96.1094 108.229 95.599 109 94.5781ZM125.484 81.6094L125.406 84.3438C125.281 84.3125 125.036 84.2969 124.672 84.2969C123.807 84.2969 123.068 84.3854 122.453 84.5625C121.849 84.7396 121.307 85.0469 120.828 85.4844C120.359 85.9219 120.005 86.5521 119.766 87.375C119.536 88.1875 119.422 89.2031 119.422 90.4219V98H116.547V82H119.422V84.8125C119.651 84.0104 120.229 83.3073 121.156 82.7031C122.083 82.0885 123.172 81.7344 124.422 81.6406C124.526 81.6198 124.88 81.6094 125.484 81.6094ZM132.953 89.7812L130.703 91.8906V98H127.828V75.5938H130.703V88.625L137.406 82H141.297L135 87.8906L141.594 98H138.234L132.953 89.7812ZM148.938 90C148.938 87.5208 149.667 85.5052 151.125 83.9531C152.583 82.3906 154.521 81.6094 156.938 81.6094C159.323 81.6094 161.245 82.3958 162.703 83.9688C164.172 85.5312 164.906 87.5417 164.906 90C164.906 92.5104 164.172 94.5365 162.703 96.0781C161.245 97.6198 159.323 98.3906 156.938 98.3906C154.448 98.3906 152.49 97.6458 151.062 96.1562C149.646 94.6667 148.938 92.6146 148.938 90ZM160.625 94.5781C161.406 93.5573 161.797 92.0312 161.797 90C161.797 87.9688 161.406 86.4427 160.625 85.4219C159.854 84.401 158.625 83.8906 156.938 83.8906C155.229 83.8906 153.984 84.401 153.203 85.4219C152.422 86.4323 152.031 87.9583 152.031 90C152.031 92.0521 152.417 93.5833 153.188 94.5938C153.958 95.6042 155.208 96.1094 156.938 96.1094C158.625 96.1094 159.854 95.599 160.625 94.5781ZM168.453 84.4062H166.141V82H168.453V79.1875C168.453 77.8958 168.797 76.9479 169.484 76.3438C170.182 75.7396 171.266 75.4375 172.734 75.4375C173.234 75.4375 173.823 75.4896 174.5 75.5938L174.438 78.1562C173.792 78.0521 173.276 78 172.891 78C172.286 78 171.87 78.0885 171.641 78.2656C171.411 78.4323 171.297 78.7604 171.297 79.25V82H174.562V84.4062H171.297V98H168.453V84.4062ZM29.1484 134V157.578C29.1484 160.797 28.1172 163.312 26.0547 165.125C24.0078 166.938 21.1875 167.844 17.5938 167.844C14.4844 167.844 11.9453 167.18 9.97656 165.852C8.02344 164.523 6.97656 162.5 6.83594 159.781L12.3438 159.383C12.4375 160.883 12.9297 161.969 13.8203 162.641C14.7266 163.328 16.0625 163.672 17.8281 163.672C19.6875 163.672 21.0938 163.156 22.0469 162.125C23 161.109 23.4766 159.609 23.4766 157.625V153.922C21.8828 156.516 19.5156 157.812 16.375 157.812C13.1406 157.812 10.5312 156.672 8.54688 154.391C6.57812 152.109 5.59375 149.102 5.59375 145.367C5.59375 141.852 6.58594 138.984 8.57031 136.766C10.5547 134.531 13.1094 133.414 16.2344 133.414C19.3906 133.414 21.8047 134.648 23.4766 137.117V134H29.1484ZM23.6875 145.367C23.6875 142.867 23.1875 140.961 22.1875 139.648C21.1875 138.32 19.7188 137.656 17.7812 137.656C15.6719 137.656 14.1406 138.281 13.1875 139.531C12.25 140.781 11.7812 142.727 11.7812 145.367C11.7812 148.242 12.2266 150.336 13.1172 151.648C14.0078 152.945 15.5312 153.594 17.6875 153.594C19.7344 153.594 21.2422 152.875 22.2109 151.438C23.1953 149.984 23.6875 147.961 23.6875 145.367ZM34.9609 124.391H40.6328V158H34.9609V124.391ZM45.0625 146C45.0625 142.281 46.1719 139.258 48.3906 136.93C50.625 134.586 53.6094 133.414 57.3438 133.414C61.0156 133.414 63.9609 134.594 66.1797 136.953C68.4141 139.297 69.5312 142.312 69.5312 146C69.5312 149.781 68.4141 152.828 66.1797 155.141C63.9609 157.438 61.0156 158.586 57.3438 158.586C53.5 158.586 50.4922 157.469 48.3203 155.234C46.1484 153 45.0625 149.922 45.0625 146ZM63.4844 146C63.4844 143.094 62.9922 140.969 62.0078 139.625C61.0234 138.281 59.4688 137.609 57.3438 137.609C55.1562 137.609 53.5781 138.281 52.6094 139.625C51.6406 140.953 51.1562 143.078 51.1562 146C51.1562 148.922 51.6328 151.055 52.5859 152.398C53.5547 153.727 55.1406 154.391 57.3438 154.391C59.5156 154.391 61.0781 153.727 62.0312 152.398C63 151.055 63.4844 148.922 63.4844 146ZM97.6797 146C97.6797 149.844 96.6797 152.906 94.6797 155.188C92.6797 157.453 90.0625 158.586 86.8281 158.586C85.3125 158.586 83.9141 158.234 82.6328 157.531C81.3672 156.828 80.3828 155.883 79.6797 154.695V158H74.0078V124.391H79.6797V136.977C80.4766 135.82 81.5078 134.93 82.7734 134.305C84.0391 133.68 85.4375 133.367 86.9688 133.367C90.1406 133.367 92.7188 134.531 94.7031 136.859C96.6875 139.172 97.6797 142.219 97.6797 146ZM90.0625 152.375C91 151.031 91.4688 148.906 91.4688 146C91.4688 143.094 91 140.969 90.0625 139.625C89.125 138.281 87.5781 137.609 85.4219 137.609C83.3594 137.609 81.8594 138.328 80.9219 139.766C79.9844 141.188 79.5156 143.281 79.5156 146.047C79.5156 148.781 80.0078 150.859 80.9922 152.281C81.9922 153.688 83.4844 154.391 85.4688 154.391C87.6094 154.391 89.1406 153.719 90.0625 152.375ZM100.984 151.367C100.984 150.164 101.195 149.133 101.617 148.273C102.039 147.398 102.664 146.688 103.492 146.141C104.336 145.578 105.234 145.133 106.188 144.805C107.141 144.477 108.297 144.188 109.656 143.938L116.828 142.602C116.828 141.602 116.781 140.852 116.688 140.352C116.594 139.852 116.398 139.383 116.102 138.945C115.508 138.086 114.227 137.656 112.258 137.656C110.586 137.656 109.359 138.008 108.578 138.711C107.797 139.398 107.406 140.531 107.406 142.109L101.852 141.383C101.992 138.617 102.984 136.586 104.828 135.289C106.672 134.039 109.273 133.414 112.633 133.414C115.742 133.414 118.125 134.094 119.781 135.453C121.453 136.797 122.289 138.758 122.289 141.336V153.688C122.289 155.125 122.562 156.5 123.109 157.812V158H117.438C117.219 157.016 117.109 155.883 117.109 154.602C116.453 155.867 115.453 156.852 114.109 157.555C112.781 158.242 111.172 158.586 109.281 158.586C106.891 158.586 104.906 157.961 103.328 156.711C101.766 155.445 100.984 153.664 100.984 151.367ZM116.828 148.789V146.586L110.57 147.922C109.258 148.203 108.305 148.594 107.711 149.094C107.133 149.594 106.844 150.336 106.844 151.32C106.844 152.258 107.18 152.992 107.852 153.523C108.523 154.039 109.414 154.297 110.523 154.297C112.539 154.297 114.094 153.82 115.188 152.867C116.281 151.914 116.828 150.555 116.828 148.789ZM127.82 124.391H133.492V158H127.82V124.391ZM150.953 152V138.57H147.508V134H150.953V127.32H156.531V134H161.477V138.57H156.531V151.461C156.531 152.133 156.727 152.602 157.117 152.867C157.508 153.117 158.164 153.242 159.086 153.242C159.539 153.242 160.273 153.164 161.289 153.008L161.383 157.953C160.43 158.141 159.375 158.234 158.219 158.234C155.797 158.234 153.977 157.734 152.758 156.734C151.555 155.719 150.953 154.141 150.953 152ZM164.406 151.367C164.406 150.164 164.617 149.133 165.039 148.273C165.461 147.398 166.086 146.688 166.914 146.141C167.758 145.578 168.656 145.133 169.609 144.805C170.562 144.477 171.719 144.188 173.078 143.938L180.25 142.602C180.25 141.602 180.203 140.852 180.109 140.352C180.016 139.852 179.82 139.383 179.523 138.945C178.93 138.086 177.648 137.656 175.68 137.656C174.008 137.656 172.781 138.008 172 138.711C171.219 139.398 170.828 140.531 170.828 142.109L165.273 141.383C165.414 138.617 166.406 136.586 168.25 135.289C170.094 134.039 172.695 133.414 176.055 133.414C179.164 133.414 181.547 134.094 183.203 135.453C184.875 136.797 185.711 138.758 185.711 141.336V153.688C185.711 155.125 185.984 156.5 186.531 157.812V158H180.859C180.641 157.016 180.531 155.883 180.531 154.602C179.875 155.867 178.875 156.852 177.531 157.555C176.203 158.242 174.594 158.586 172.703 158.586C170.312 158.586 168.328 157.961 166.75 156.711C165.188 155.445 164.406 153.664 164.406 151.367ZM180.25 148.789V146.586L173.992 147.922C172.68 148.203 171.727 148.594 171.133 149.094C170.555 149.594 170.266 150.336 170.266 151.32C170.266 152.258 170.602 152.992 171.273 153.523C171.945 154.039 172.836 154.297 173.945 154.297C175.961 154.297 177.516 153.82 178.609 152.867C179.703 151.914 180.25 150.555 180.25 148.789ZM191.242 124.391H196.914V158H191.242V124.391ZM224.992 146.82V147.594H207.133C207.227 152.062 209.258 154.297 213.227 154.297C216.586 154.297 218.539 152.828 219.086 149.891L224.617 150.312C224.023 153.016 222.75 155.07 220.797 156.477C218.859 157.883 216.352 158.586 213.273 158.586C209.664 158.586 206.773 157.477 204.602 155.258C202.461 153.117 201.391 150.016 201.391 145.953C201.391 142.172 202.461 139.117 204.602 136.789C206.758 134.539 209.633 133.414 213.227 133.414C215.117 133.414 216.836 133.758 218.383 134.445C219.93 135.133 221.219 136.117 222.25 137.398C224.078 139.711 224.992 142.852 224.992 146.82ZM208.398 139.812C207.727 140.703 207.32 141.867 207.18 143.305H219.18C219.133 141.867 218.688 140.625 217.844 139.578C216.781 138.328 215.242 137.703 213.227 137.703C211.039 137.703 209.43 138.406 208.398 139.812ZM251.055 143.516V158H245.289V143.938C245.289 142.562 245.203 141.539 245.031 140.867C244.859 140.18 244.492 139.57 243.93 139.039C243.477 138.586 242.977 138.281 242.43 138.125C241.898 137.969 241.203 137.891 240.344 137.891C239.688 137.891 239.07 138 238.492 138.219C237.93 138.438 237.383 138.797 236.852 139.297C236.32 139.781 235.898 140.5 235.586 141.453C235.273 142.406 235.117 143.539 235.117 144.852V158H229.445V134H235.07V137.609C236.242 134.812 238.656 133.414 242.312 133.414C243.812 133.414 245.094 133.617 246.156 134.023C247.234 134.414 248.195 135.031 249.039 135.875C249.836 136.688 250.367 137.688 250.633 138.875C250.914 140.047 251.055 141.594 251.055 143.516ZM257.734 152V138.57H254.289V134H257.734V127.32H263.312V134H268.258V138.57H263.312V151.461C263.312 152.133 263.508 152.602 263.898 152.867C264.289 153.117 264.945 153.242 265.867 153.242C266.32 153.242 267.055 153.164 268.07 153.008L268.164 157.953C267.211 158.141 266.156 158.234 265 158.234C262.578 158.234 260.758 157.734 259.539 156.734C258.336 155.719 257.734 154.141 257.734 152ZM270.789 150.359L276.133 149.75C276.148 151.266 276.633 152.438 277.586 153.266C278.539 154.078 279.844 154.484 281.5 154.484C283.109 154.484 284.328 154.219 285.156 153.688C285.984 153.141 286.398 152.352 286.398 151.32C286.32 150.711 286.078 150.234 285.672 149.891C285.281 149.531 284.836 149.266 284.336 149.094C283.836 148.922 282.867 148.656 281.43 148.297C281.352 148.281 281.297 148.266 281.266 148.25L279.812 147.922C279 147.703 278.312 147.516 277.75 147.359C277.203 147.188 276.617 146.984 275.992 146.75C275.383 146.5 274.875 146.25 274.469 146C274.062 145.734 273.656 145.43 273.25 145.086C272.859 144.727 272.547 144.344 272.312 143.938C272.078 143.516 271.883 143.031 271.727 142.484C271.586 141.922 271.5 141.305 271.469 140.633C271.469 139.43 271.719 138.359 272.219 137.422C272.734 136.484 273.43 135.734 274.305 135.172C275.18 134.594 276.18 134.156 277.305 133.859C278.43 133.562 279.633 133.414 280.914 133.414C283.914 133.414 286.305 134.039 288.086 135.289C289.867 136.539 290.891 138.461 291.156 141.055L285.906 141.922C285.844 140.469 285.383 139.375 284.523 138.641C283.664 137.891 282.461 137.516 280.914 137.516C279.727 137.516 278.75 137.75 277.984 138.219C277.219 138.688 276.836 139.344 276.836 140.188C276.836 141.016 277.242 141.641 278.055 142.062C278.867 142.484 280.227 142.898 282.133 143.305C284.523 143.82 286.289 144.305 287.43 144.758C288.57 145.211 289.555 145.914 290.383 146.867C291.305 147.883 291.766 149.258 291.766 150.992C291.766 153.68 290.789 155.617 288.836 156.805C286.883 157.992 284.422 158.586 281.453 158.586C279.453 158.586 277.672 158.297 276.109 157.719C274.562 157.141 273.305 156.227 272.336 154.977C271.367 153.711 270.852 152.172 270.789 150.359Z" fill="#464A4D"/>
</svg>
