<svg width="213" height="47" viewBox="0 0 213 47" fill="none" xmlns="http://www.w3.org/2000/svg">
<path d="M0.129883 24.3901V0.390137H6.76987L10.6699 12.7201C11.5699 15.6068 12.2666 18.0501 12.7599 20.0501H12.8099C13.0499 19.0968 13.3599 17.9368 13.7399 16.5701C14.1299 15.2001 14.4999 13.9201 14.8699 12.7501L18.7899 0.390137H25.3599V24.3901H21.3599V10.3001C21.3599 9.62014 21.3599 8.68014 21.4099 7.47014C21.4599 6.26014 21.4799 5.17014 21.5099 4.21014H21.4299C20.4899 7.46347 19.8465 9.62347 19.4999 10.6901L14.9999 24.3901H10.3999L5.99988 10.6201C5.94988 10.4601 5.64986 9.48014 5.10986 7.62014L4.10986 4.17014H3.99988C4.09988 7.28347 4.14987 9.34347 4.14987 10.3501V24.3501L0.129883 24.3901Z" fill="#54575A"/>
<path d="M37.5498 24.81C35.9234 24.8532 34.3128 24.4815 32.8698 23.73C31.5784 23.025 30.5321 21.9438 29.8698 20.63C29.1586 19.129 28.8158 17.48 28.8698 15.82C28.8389 14.21 29.2029 12.6169 29.9298 11.18C30.604 9.86059 31.6369 8.75833 32.9098 7.99998C34.3364 7.24517 35.9258 6.85059 37.5398 6.85059C39.1537 6.85059 40.7432 7.24517 42.1698 7.99998C43.4731 8.75558 44.5318 9.8698 45.2198 11.21C45.9273 12.6651 46.2949 14.262 46.2949 15.88C46.2949 17.498 45.9273 19.0949 45.2198 20.55C44.5245 21.8761 43.4576 22.9708 42.1498 23.7C40.7406 24.4678 39.154 24.8507 37.5498 24.81ZM37.5498 21.81C38.1855 21.869 38.8258 21.7682 39.4127 21.5167C39.9995 21.2652 40.5141 20.871 40.9098 20.37C41.6937 18.985 42.0422 17.3959 41.9098 15.81C42.0352 14.2277 41.6871 12.6439 40.9098 11.26C40.4756 10.8047 39.9534 10.4422 39.375 10.1946C38.7966 9.94692 38.174 9.81923 37.5448 9.81923C36.9156 9.81923 36.293 9.94692 35.7146 10.1946C35.1362 10.4422 34.614 10.8047 34.1798 11.26C33.3973 12.6419 33.0488 14.2273 33.1798 15.81C33.1428 16.9563 33.2914 18.1011 33.6198 19.2C33.8345 20.0116 34.3307 20.7204 35.0198 21.2C35.7849 21.6482 36.6641 21.8637 37.5498 21.82V21.81Z" fill="#54575A"/>
<path d="M63.15 8.59979C63.7511 9.21304 64.1611 9.9878 64.33 10.8298C64.5258 11.8849 64.6162 12.9568 64.6 14.0298V24.3898H60.47V14.3898C60.4915 13.6624 60.4345 12.9349 60.3 12.2198C60.188 11.7071 59.9189 11.2421 59.53 10.8898C59.2155 10.5825 58.8312 10.356 58.41 10.2298C57.9284 10.1161 57.4347 10.0623 56.94 10.0698C56.3414 10.0709 55.7517 10.2149 55.22 10.4898C54.5973 10.8314 54.0972 11.3595 53.79 11.9998C53.3599 12.9391 53.161 13.9678 53.21 14.9998V24.3998H49.21V7.25979H53.21V9.81979C53.6047 8.86628 54.3093 8.07363 55.21 7.56979C56.1925 7.05542 57.2915 6.80394 58.4 6.83979C59.3408 6.81576 60.2785 6.95794 61.17 7.25979C61.9198 7.55674 62.5956 8.01409 63.15 8.59979Z" fill="#54575A"/>
<path d="M74.82 24.8102C73.5293 24.8267 72.2459 24.6134 71.03 24.1802C69.9462 23.7959 69 23.1001 68.31 22.1802C67.5954 21.2323 67.2092 20.0773 67.21 18.8902L71 18.5002C70.98 18.9714 71.0668 19.4409 71.2538 19.8738C71.4408 20.3067 71.7232 20.6918 72.08 21.0002C72.8727 21.6134 73.8591 21.922 74.86 21.8702C75.7641 21.9277 76.666 21.7265 77.46 21.2902C77.7454 21.115 77.9791 20.8672 78.1372 20.572C78.2954 20.2768 78.3722 19.9449 78.36 19.6102C78.3632 19.4197 78.3236 19.2309 78.2439 19.0578C78.1643 18.8847 78.0467 18.7317 77.9 18.6102C77.5622 18.3307 77.1708 18.1231 76.75 18.0002C76.28 17.8502 75.59 17.6602 74.69 17.4402L73.69 17.1902C72.6301 16.9339 71.5906 16.5997 70.58 16.1902C69.7956 15.8465 69.1085 15.314 68.58 14.6402C68.0156 13.8832 67.7327 12.9532 67.78 12.0102C67.7403 10.9613 68.0694 9.93169 68.71 9.10021C69.3585 8.31415 70.2141 7.72527 71.18 7.40022C72.2545 7.03182 73.384 6.8492 74.52 6.86022C76.2964 6.78725 78.0553 7.23568 79.58 8.15022C80.2566 8.61697 80.8131 9.23719 81.2042 9.9602C81.5952 10.6832 81.8097 11.4885 81.83 12.3102L78.08 12.9302C78.0918 12.4882 78.0087 12.0488 77.8362 11.6416C77.6637 11.2345 77.4058 10.8691 77.08 10.5702C76.3431 10.0133 75.4321 9.73686 74.51 9.79022C73.7866 9.76518 73.0693 9.9307 72.43 10.2702C72.1738 10.407 71.9607 10.6121 71.8141 10.8628C71.6676 11.1135 71.5935 11.3999 71.6 11.6902C71.5988 11.8804 71.6394 12.0685 71.7189 12.2413C71.7984 12.4141 71.9148 12.5673 72.06 12.6902C72.4181 12.9934 72.8378 13.2152 73.29 13.3402C73.9769 13.5561 74.6745 13.7363 75.38 13.8802C76.6032 14.137 77.809 14.471 78.99 14.8802C79.874 15.2017 80.6643 15.7378 81.29 16.4402C81.9941 17.2759 82.3518 18.3492 82.29 19.4402C82.3532 20.2568 82.1919 21.0751 81.8235 21.8066C81.4552 22.5381 80.8937 23.1549 80.2 23.5902C78.5579 24.4969 76.6925 24.9198 74.82 24.8102Z" fill="#54575A"/>
<path d="M91.3099 24.5602C89.9432 24.6568 88.5846 24.2828 87.4599 23.5002C86.9929 23.0713 86.6309 22.5406 86.402 21.9493C86.1731 21.3579 86.0834 20.7218 86.14 20.0902V10.5002H83.6799V7.26024H86.14V2.49023H90.14V7.26024H93.6299V10.5002H90.14V19.7402C90.1144 19.9282 90.1389 20.1197 90.2108 20.2952C90.2828 20.4708 90.3998 20.6243 90.5499 20.7402C90.9772 20.9529 91.454 21.0462 91.9299 21.0102C92.4568 21.0004 92.9819 20.9469 93.4999 20.8502L93.5699 24.3602C92.8246 24.4981 92.0679 24.5651 91.3099 24.5602Z" fill="#54575A"/>
<path d="M101.48 24.8102C100.45 24.828 99.4285 24.6305 98.4799 24.2302C97.5759 23.8671 96.8068 23.2326 96.2785 22.4141C95.7501 21.5957 95.4886 20.6335 95.5298 19.6602C95.4811 18.6552 95.7775 17.6636 96.3698 16.8502C96.9411 16.13 97.6934 15.5744 98.5498 15.2402C99.576 14.8439 100.637 14.5459 101.72 14.3502L106.84 13.4002C106.849 12.8721 106.819 12.344 106.75 11.8202C106.683 11.459 106.536 11.1173 106.32 10.8202C106.068 10.4884 105.718 10.2437 105.32 10.1202C104.755 9.95646 104.168 9.88222 103.58 9.90023C102.65 9.82011 101.723 10.0794 100.97 10.6302C100.661 10.9544 100.425 11.3405 100.277 11.7628C100.128 12.1852 100.071 12.6342 100.11 13.0802L96.1098 12.5602C96.09 11.7185 96.2722 10.8843 96.6411 10.1275C97.0099 9.37068 97.5547 8.71324 98.2299 8.21023C99.9128 7.21275 101.857 6.74577 103.81 6.87024C105.651 6.72722 107.484 7.22538 109 8.28023C109.605 8.79411 110.081 9.44261 110.39 10.1737C110.699 10.9048 110.833 11.6982 110.78 12.4902V21.3102C110.763 22.3407 110.964 23.3631 111.37 24.3102V24.4402H107.32C107.156 23.6441 107.075 22.833 107.08 22.0202C106.603 22.8879 105.879 23.5945 105 24.0502C103.91 24.5972 102.699 24.8587 101.48 24.8102ZM102.37 21.7502C103.565 21.8389 104.751 21.4828 105.7 20.7502C106.097 20.3833 106.408 19.9329 106.61 19.4315C106.812 18.93 106.901 18.39 106.87 17.8502V16.2402L102.4 17.2402C101.682 17.3614 101 17.6379 100.4 18.0502C100.168 18.2461 99.9869 18.4943 99.8704 18.7743C99.7539 19.0543 99.7057 19.358 99.7299 19.6602C99.7119 19.9644 99.7702 20.2682 99.8994 20.5441C100.029 20.82 100.225 21.0593 100.47 21.2402C101.028 21.619 101.697 21.7986 102.37 21.7502Z" fill="#54575A"/>
<path d="M123.94 6.8501H124.69L124.59 10.5601C124.314 10.5424 124.036 10.5424 123.76 10.5601C122.774 10.5253 121.793 10.7133 120.89 11.1101C120.091 11.4995 119.459 12.1633 119.11 12.9801C118.646 14.1283 118.434 15.3629 118.49 16.6001V24.4501H114.44V7.2601H118.44V10.3501C118.739 9.30586 119.421 8.41299 120.35 7.8501C121.434 7.19849 122.675 6.85291 123.94 6.8501Z" fill="#54575A"/>
<path d="M130.81 24.3901H126.76V0.390137H130.81V24.3901Z" fill="#54575A"/>
<path d="M139.72 24.8099C138.69 24.8298 137.668 24.6322 136.72 24.2299C135.809 23.8712 135.032 23.2393 134.495 22.421C133.958 21.6027 133.687 20.6382 133.72 19.6599C133.67 18.6532 133.97 17.6602 134.57 16.8499C135.137 16.1301 135.886 15.5743 136.74 15.2399C137.767 14.8449 138.828 14.547 139.91 14.3499L145.04 13.3999C145.046 12.8715 145.013 12.3433 144.94 11.8199C144.876 11.4594 144.733 11.1177 144.52 10.8199C144.268 10.4881 143.918 10.2434 143.52 10.1199C142.955 9.95469 142.368 9.88042 141.78 9.89994C140.851 9.82255 139.924 10.0816 139.17 10.6299C138.863 10.9546 138.628 11.341 138.481 11.7634C138.335 12.1858 138.28 12.6346 138.32 13.0799L134.32 12.5599C134.3 11.7171 134.483 10.8818 134.853 10.1246C135.224 9.36747 135.772 8.71072 136.45 8.20994C138.129 7.21209 140.071 6.74501 142.02 6.86994C143.838 6.75428 145.64 7.26227 147.13 8.30994C147.747 8.81217 148.237 9.45188 148.562 10.1778C148.886 10.9037 149.036 11.6956 149 12.4899V21.3099C148.984 22.3392 149.182 23.3607 149.58 24.3099V24.4399H145.58C145.419 23.6435 145.342 22.8324 145.35 22.0199C144.867 22.9093 144.128 23.6338 143.23 24.0999C142.138 24.628 140.931 24.8722 139.72 24.8099ZM140.6 21.7499C141.795 21.8387 142.981 21.4825 143.93 20.7499C144.331 20.3852 144.645 19.9355 144.849 19.4337C145.053 18.9319 145.142 18.3907 145.11 17.8499V16.2399L140.64 17.2399C139.921 17.3576 139.238 17.6344 138.64 18.0499C138.409 18.2459 138.227 18.494 138.111 18.774C137.994 19.054 137.946 19.3577 137.97 19.6599C137.951 19.9632 138.008 20.2664 138.135 20.5423C138.263 20.8181 138.457 21.0579 138.7 21.2399C139.258 21.6187 139.927 21.7983 140.6 21.7499Z" fill="#54575A"/>
<path d="M161.92 6.79993C163.336 6.77157 164.728 7.1649 165.92 7.92992C167.108 8.70336 168.045 9.80446 168.62 11.0999C169.26 12.6018 169.59 14.2174 169.59 15.8499C169.59 17.4824 169.26 19.098 168.62 20.5999C168.035 21.8881 167.082 22.9739 165.88 23.7199C164.677 24.4549 163.29 24.8329 161.88 24.8099C160.832 24.8236 159.798 24.5652 158.88 24.0599C158.014 23.5891 157.286 22.8995 156.77 22.0599V24.4199H152.72V0.419922H156.77V9.41992C157.33 8.60394 158.091 7.94613 158.98 7.50993C159.893 7.05326 160.899 6.81047 161.92 6.79993ZM160.87 21.7999C161.502 21.8621 162.139 21.7593 162.719 21.5017C163.299 21.244 163.802 20.8403 164.18 20.3299C164.936 18.9418 165.283 17.3674 165.18 15.7899C165.29 14.2183 164.943 12.6485 164.18 11.2699C163.799 10.7587 163.292 10.3547 162.708 10.0971C162.125 9.83954 161.485 9.73717 160.85 9.79993C160.214 9.74479 159.575 9.86473 159.002 10.1468C158.429 10.4288 157.944 10.8621 157.6 11.3999C156.877 12.7607 156.531 14.2904 156.6 15.8299C156.496 17.3875 156.869 18.9398 157.67 20.2799C158.024 20.7925 158.505 21.2046 159.066 21.4762C159.627 21.7478 160.248 21.8697 160.87 21.8299V21.7999Z" fill="#54575A"/>
<path d="M193 4.8299H188.57V0.399902H193V4.8299ZM193 24.3899H188.57V19.9999H193V24.3899ZM208.13 4.8299V0.399902H212.56V4.8299H208.13ZM212.56 24.3899H208.13V19.9999H212.56V24.3899Z" fill="#54575A"/>
<path d="M0.129883 33.23H6.57986V34.39H1.41989V37.6H6.04987V38.75H1.41989V42.06H6.57986V43.21H0.129883V33.23Z" fill="#54575A"/>
<path d="M14.2599 39.0001V43.2301H12.9298V39.0701C12.9298 38.4101 12.9299 37.8301 12.5099 37.4201C12.3399 37.2643 12.1388 37.1462 11.9199 37.0738C11.701 37.0014 11.4692 36.9763 11.2398 37.0001C10.6098 37.0001 9.37985 37.2601 9.37985 39.3001V43.2301H8.09985V36.1101H9.37985V37.1901C9.56819 36.776 9.88192 36.4315 10.2767 36.2054C10.6715 35.9793 11.1273 35.883 11.5798 35.9301C11.9699 35.9032 12.3613 35.9608 12.7271 36.0989C13.093 36.2369 13.4248 36.4522 13.6999 36.7301C14.1548 37.3942 14.3537 38.2006 14.2599 39.0001Z" fill="#54575A"/>
<path d="M16.3999 41.6199V37.1498H15.3999V36.0898H16.3999V34.0898H17.6699V36.0898H19.1199V37.1498H17.6699V41.5698C17.6699 42.0398 17.8799 42.1298 18.4099 42.1298C18.6279 42.1217 18.8451 42.0983 19.0599 42.0598V43.2098C18.8022 43.2541 18.5414 43.2775 18.2799 43.2798C16.9999 43.2798 16.3999 42.7699 16.3999 41.6199Z" fill="#54575A"/>
<path d="M26.6598 40H21.2598C21.2598 41.57 21.9398 42.33 23.2598 42.33C23.4968 42.3606 23.7376 42.3431 23.9678 42.2786C24.1979 42.2141 24.4128 42.1039 24.5994 41.9546C24.7861 41.8052 24.9407 41.6199 25.0542 41.4095C25.1676 41.1991 25.2376 40.968 25.2598 40.73L26.4998 40.83C26.3809 41.5869 25.977 42.2696 25.3708 42.7382C24.7646 43.2068 24.0022 43.4257 23.2397 43.35C22.7636 43.3884 22.285 43.3183 21.8399 43.1451C21.3948 42.9719 20.9947 42.7001 20.6698 42.35C20.095 41.5747 19.7847 40.6351 19.7847 39.67C19.7847 38.7049 20.095 37.7653 20.6698 36.99C20.9867 36.6391 21.3763 36.3615 21.8116 36.1767C22.2468 35.9919 22.7172 35.9043 23.1898 35.92C23.7357 35.9006 24.2775 36.0208 24.764 36.2693C25.2505 36.5178 25.6655 36.8863 25.9698 37.34C26.4585 38.1386 26.6987 39.0645 26.6598 40ZM21.6097 37.69C21.3907 38.0777 21.2737 38.5147 21.2697 38.96H25.3498C25.3216 38.5119 25.188 38.0767 24.9597 37.69C24.7752 37.4276 24.5243 37.2189 24.2326 37.0854C23.9409 36.9518 23.619 36.8982 23.2997 36.93C22.9739 36.9052 22.6472 36.9649 22.3511 37.1033C22.0551 37.2417 21.7997 37.4541 21.6097 37.72V37.69Z" fill="#54575A"/>
<path d="M32.0899 35.9102V37.1301C31.9802 37.1186 31.8696 37.1186 31.7599 37.1301C30.4099 37.1301 29.4299 37.5602 29.4299 39.8502V43.2302H28.1399V36.1102H29.4299V37.3602C29.6225 36.9346 29.9352 36.5745 30.3296 36.324C30.7239 36.0735 31.1828 35.9436 31.6499 35.9501C31.7956 35.9281 31.9425 35.9147 32.0899 35.9102Z" fill="#54575A"/>
<path d="M39.9999 39.65C39.9999 41.9 38.6899 43.38 36.7599 43.38C36.3171 43.408 35.8743 43.3226 35.4736 43.1319C35.0729 42.9411 34.7275 42.6514 34.4699 42.29V46.06H33.1799V36.06H34.4699V37.06C34.7018 36.6742 35.0328 36.3576 35.4285 36.1431C35.8242 35.9285 36.2701 35.8239 36.7199 35.84C38.5699 35.91 39.9999 37.33 39.9999 39.65ZM38.5899 39.65C38.5899 37.98 38.1599 36.93 36.4899 36.93C35.1199 36.93 34.42 37.84 34.42 39.64C34.42 40.96 34.72 42.36 36.42 42.36C38.12 42.36 38.5499 41.36 38.5499 39.65H38.5899Z" fill="#54575A"/>
<path d="M45.4 35.9102V37.1301C45.2936 37.1189 45.1863 37.1189 45.08 37.1301C43.72 37.1301 42.74 37.5602 42.74 39.8502V43.2302H41.46V36.1102H42.74V37.3602C42.9326 36.9346 43.2453 36.5745 43.6396 36.324C44.034 36.0735 44.4928 35.9436 44.96 35.9501C45.1057 35.9281 45.2526 35.9147 45.4 35.9102Z" fill="#54575A"/>
<path d="M46.46 33.23H47.74V34.75H46.46V33.23ZM46.46 36.09H47.74V43.21H46.46V36.09Z" fill="#54575A"/>
<path d="M49.16 40.88L50.3299 40.76C50.3299 41.76 51.05 42.37 52.16 42.37C53.27 42.37 53.91 41.97 53.91 41.22C53.91 40.47 52.6 40.3 51.62 40.05C50.46 39.75 49.32 39.41 49.32 38.05C49.32 36.69 50.69 35.96 51.96 35.96C53.47 35.96 54.78 36.56 54.96 38.3L53.76 38.49C53.76 37.49 53.09 36.98 51.96 36.98C51.27 36.98 50.54 37.3 50.54 37.98C50.54 38.66 51.39 38.82 52.25 38.98C53.68 39.28 55.14 39.52 55.14 41.19C55.14 42.86 53.65 43.42 52.21 43.42C50.59 43.38 49.15 42.64 49.16 40.88Z" fill="#54575A"/>
<path d="M62.9998 40H57.5999C57.5999 41.57 58.2799 42.33 59.5999 42.33C59.8369 42.3606 60.0777 42.3431 60.3079 42.2786C60.538 42.2141 60.7529 42.1039 60.9395 41.9546C61.1262 41.8053 61.2808 41.6199 61.3943 41.4095C61.5077 41.1991 61.5776 40.968 61.5999 40.73L62.8398 40.83C62.721 41.5888 62.3156 42.2731 61.7072 42.7419C61.0989 43.2108 60.3339 43.4284 59.5699 43.35C59.0954 43.3869 58.6187 43.3161 58.1754 43.1429C57.7322 42.9698 57.3337 42.6987 57.0099 42.35C56.4351 41.5747 56.1248 40.6352 56.1248 39.67C56.1248 38.7049 56.4351 37.7653 57.0099 36.99C57.3595 36.6234 57.7854 36.338 58.2574 36.1541C58.7295 35.9701 59.2362 35.8921 59.7417 35.9255C60.2472 35.9589 60.7393 36.1029 61.183 36.3473C61.6268 36.5917 62.0114 36.9306 62.3098 37.34C62.7986 38.1386 63.0388 39.0646 62.9998 40ZM57.9499 37.69C57.7308 38.0778 57.6138 38.5147 57.6098 38.96H61.6898C61.6617 38.5119 61.5281 38.0767 61.2998 37.69C61.113 37.4276 60.8602 37.2191 60.567 37.0856C60.2738 36.9522 59.9505 36.8985 59.6299 36.93C59.2974 36.8971 58.9621 36.9528 58.6582 37.0916C58.3543 37.2303 58.0927 37.4472 57.8998 37.72L57.9499 37.69Z" fill="#54575A"/>
<path d="M67.1399 40.0001L68.5099 39.8601C68.502 40.2079 68.5686 40.5534 68.7053 40.8733C68.8419 41.1933 69.0454 41.4803 69.302 41.7152C69.5587 41.9501 69.8625 42.1273 70.1933 42.2351C70.5241 42.3429 70.8741 42.3787 71.2199 42.3401C72.6799 42.3401 73.9399 41.9001 73.9399 40.4401C73.9399 38.9801 72.1699 39.0901 70.6699 38.7301C69.1699 38.3701 67.4099 37.8201 67.4099 35.9101C67.4099 34.0001 69.3199 33.1001 70.9399 33.1001C73.0099 33.1001 74.7099 33.9201 74.9399 36.2801L73.5999 36.5201C73.5999 35.0301 72.5999 34.1701 70.9399 34.1701C69.9399 34.1701 68.7499 34.6901 68.7499 35.8501C68.7499 37.0101 70.2699 37.3401 71.6199 37.5501C73.6199 37.8601 75.2999 38.2201 75.2999 40.3401C75.2999 42.7701 73.1999 43.4201 71.2999 43.4201C69.0599 43.3801 67.1399 42.2901 67.1399 40.0001Z" fill="#54575A"/>
<path d="M76.2698 39.6502C76.303 38.9548 76.5395 38.2843 76.9499 37.7219C77.3603 37.1594 77.9266 36.7297 78.5788 36.4858C79.231 36.2419 79.9403 36.1946 80.619 36.3498C81.2978 36.5049 81.9162 36.8557 82.3976 37.3587C82.879 37.8617 83.2024 38.4949 83.3276 39.1798C83.4529 39.8647 83.3746 40.5713 83.1024 41.2121C82.8301 41.8529 82.376 42.3999 81.7961 42.7853C81.2162 43.1706 80.536 43.3775 79.8398 43.3802C77.6098 43.3802 76.2698 42.0002 76.2698 39.6502ZM81.9998 39.6502C81.9998 37.9702 81.4498 36.9302 79.8398 36.9302C78.2298 36.9302 77.6598 37.9302 77.6598 39.6502C77.6598 41.3702 78.1798 42.3702 79.8398 42.3702C81.4998 42.3702 81.9998 41.3302 81.9998 39.6502Z" fill="#54575A"/>
<path d="M84.8398 33.23H86.1198V43.23H84.8398V33.23Z" fill="#54575A"/>
<path d="M94.0898 36.0898V43.2098H92.8098V42.1398C92.6072 42.5412 92.2899 42.8733 91.8982 43.094C91.5065 43.3148 91.0581 43.4143 90.6098 43.3798C90.2222 43.4059 89.8334 43.3489 89.4695 43.2127C89.1057 43.0764 88.7751 42.8641 88.4998 42.5898C88.0392 41.9395 87.8361 41.1413 87.9298 40.3498V36.0898H89.2599V40.2798C89.2073 40.5635 89.2168 40.8551 89.2875 41.1347C89.3583 41.4143 89.4887 41.6754 89.6699 41.8998C89.8465 42.0542 90.0532 42.1703 90.2769 42.2409C90.5007 42.3114 90.7366 42.3349 90.9699 42.3098C91.6099 42.3098 92.8098 42.1598 92.8098 40.0898V36.0898H94.0898Z" fill="#54575A"/>
<path d="M96.3699 41.6199V37.1498H95.3699V36.0898H96.3699V34.0898H97.6399V36.0898H99.0899V37.1498H97.6399V41.5698C97.6399 42.0398 97.8499 42.1298 98.3799 42.1298C98.6012 42.1218 98.8218 42.0984 99.0399 42.0598V43.2098C98.7788 43.2541 98.5146 43.2775 98.2499 43.2798C96.9999 43.2798 96.3699 42.7699 96.3699 41.6199Z" fill="#54575A"/>
<path d="M100.35 33.23H101.63V34.75H100.35V33.23ZM100.35 36.09H101.63V43.21H100.35V36.09Z" fill="#54575A"/>
<path d="M103.08 39.6502C103.113 38.9548 103.35 38.2843 103.76 37.7219C104.17 37.1594 104.737 36.7297 105.389 36.4858C106.041 36.2419 106.75 36.1946 107.429 36.3498C108.108 36.5049 108.726 36.8557 109.208 37.3587C109.689 37.8617 110.012 38.4949 110.138 39.1798C110.263 39.8647 110.185 40.5713 109.912 41.2121C109.64 41.8529 109.186 42.3999 108.606 42.7853C108.026 43.1706 107.346 43.3775 106.65 43.3802C104.42 43.3802 103.08 42.0002 103.08 39.6502ZM108.81 39.6502C108.81 37.9702 108.26 36.9302 106.65 36.9302C105.04 36.9302 104.47 37.9302 104.47 39.6502C104.47 41.3702 104.99 42.3702 106.65 42.3702C108.31 42.3702 108.81 41.3302 108.81 39.6502Z" fill="#54575A"/>
<path d="M117.81 39.0001V43.2301H116.48V39.0701C116.48 38.4101 116.48 37.8301 116.06 37.4201C115.89 37.2643 115.689 37.1462 115.47 37.0738C115.251 37.0014 115.019 36.9763 114.79 37.0001C114.16 37.0001 112.93 37.2601 112.93 39.3001V43.2301H111.65V36.1101H112.93V37.1901C113.118 36.776 113.432 36.4315 113.827 36.2054C114.222 35.9793 114.677 35.883 115.13 35.9301C115.52 35.9032 115.911 35.9608 116.277 36.0989C116.643 36.2369 116.975 36.4522 117.25 36.7301C117.705 37.3942 117.904 38.2006 117.81 39.0001Z" fill="#54575A"/>
<path d="M119.16 40.88L120.33 40.76C120.33 41.76 121.04 42.37 122.16 42.37C123.28 42.37 123.91 41.97 123.91 41.22C123.91 40.47 122.6 40.3 121.61 40.05C120.46 39.75 119.32 39.41 119.32 38.05C119.32 36.69 120.69 35.96 121.96 35.96C123.47 35.96 124.78 36.56 124.96 38.3L123.76 38.49C123.76 37.49 123.09 36.98 121.96 36.98C121.26 36.98 120.54 37.3 120.54 37.98C120.54 38.66 121.39 38.82 122.25 38.98C123.67 39.28 125.14 39.52 125.14 41.19C125.14 42.86 123.64 43.42 122.2 43.42C120.59 43.38 119.15 42.64 119.16 40.88Z" fill="#54575A"/>
</svg>
