<svg width="280" height="46" viewBox="0 0 280 46" fill="none" xmlns="http://www.w3.org/2000/svg">
    <path d="M0.21875 10H3.32812L5.82812 18.5469C5.84896 18.6302 6.27604 20.1979 7.10938 23.25L8.1875 18.5469L10.3438 10H13.0312L15.1406 18.5469C15.3906 19.5469 15.7396 21.1146 16.1875 23.25C16.8333 20.8021 17.2604 19.2344 17.4688 18.5469L20.0312 10H23.1406L17.7969 26H14.6875L12.5469 17.75C12.4427 17.3438 12.1406 15.9427 11.6406 13.5469C11.2552 15.651 10.9688 17.0521 10.7812 17.75L8.70312 26H5.5625L0.21875 10ZM25.4844 10H28.3594V26H25.4844V10ZM25.4844 3.59375H28.3594V6.98438H25.4844V3.59375ZM33.4844 22.4219V12.4062H31.1719V10H33.4844V5.54688H36.3281V10H39.5938V12.4062H36.3281V22.3125C36.3281 22.8125 36.4427 23.1458 36.6719 23.3125C36.901 23.4792 37.3385 23.5625 37.9844 23.5625C38.2865 23.5625 38.776 23.5104 39.4531 23.4062L39.5312 26C38.75 26.1042 38.1615 26.1562 37.7656 26.1562C36.276 26.1562 35.1875 25.8594 34.5 25.2656C33.8229 24.6615 33.4844 23.7135 33.4844 22.4219ZM56.2188 16.4375V26H53.2344V16.5938C53.224 15.9583 53.2135 15.5417 53.2031 15.3438C53.1927 15.1354 53.1562 14.849 53.0938 14.4844C53.0417 14.1198 52.9479 13.8333 52.8125 13.625C52.6875 13.4062 52.5104 13.1771 52.2812 12.9375C51.9062 12.5625 51.5052 12.3177 51.0781 12.2031C50.651 12.0781 50.1042 12.0156 49.4375 12.0156C46.6562 12.0156 45.2656 13.6823 45.2656 17.0156V26H42.3906V3.59375H45.2656V12.4062C45.6927 11.4792 46.3281 10.7812 47.1719 10.3125C48.026 9.84375 49.0365 9.60938 50.2031 9.60938C52.276 9.60938 53.8646 10.2083 54.9688 11.4062C55.5208 11.9792 55.8646 12.6406 56 13.3906C56.1458 14.1302 56.2188 15.1458 56.2188 16.4375Z" fill="#464A4D"/>
    <path d="M74.9707 25.2033V2.09628H81.3251L85.08 13.9386C85.9465 16.7307 86.6205 19.0414 87.1019 20.967H87.1981C87.3907 20.1005 87.6796 18.9451 88.0647 17.5972C88.4498 16.2493 88.8349 15.094 89.1237 13.9386L92.8786 2H99.233V25.107H95.3819V11.6279C95.3819 10.954 95.3819 10.0875 95.4782 8.9321C95.4782 7.77675 95.5745 6.71768 95.5745 5.75488H95.4782C94.6117 8.83582 93.9377 10.954 93.6489 12.013L89.3163 25.2033H84.8875L80.6512 11.9168C80.5549 11.7242 80.2661 10.8577 79.7847 9.02838L78.8219 5.75488H78.7256C78.8219 8.73954 78.9182 10.7614 78.9182 11.7242V25.2033H74.9707Z" fill="#54575A"/>
    <path d="M111.076 25.5881C109.342 25.5881 107.802 25.2029 106.55 24.529C105.299 23.855 104.336 22.796 103.662 21.5443C102.988 20.2927 102.699 18.656 102.699 16.9229C102.699 15.2862 103.084 13.7457 103.758 12.4941C104.432 11.1462 105.395 10.1834 106.647 9.41316C107.898 8.64293 109.439 8.25781 111.076 8.25781C112.809 8.25781 114.253 8.64293 115.504 9.41316C116.756 10.1834 117.719 11.1462 118.393 12.4941C119.067 13.842 119.452 15.2862 119.452 16.9229C119.452 18.656 119.067 20.1964 118.393 21.4481C117.719 22.796 116.756 23.7588 115.408 24.529C114.156 25.2029 112.712 25.5881 111.076 25.5881ZM111.076 22.6997C112.616 22.6997 113.675 22.2183 114.349 21.3518C115.023 20.389 115.312 18.9448 115.312 16.9229C115.312 14.9011 115.023 13.4569 114.349 12.4941C113.675 11.5313 112.616 11.1462 111.076 11.1462C109.535 11.1462 108.476 11.6276 107.802 12.4941C107.128 13.4569 106.839 14.9011 106.839 16.9229C106.839 18.2709 106.936 19.3299 107.224 20.1964C107.513 21.0629 107.995 21.6406 108.572 22.122C109.15 22.5071 110.016 22.6997 111.076 22.6997Z" fill="#54575A"/>
    <path d="M135.626 9.99164C136.204 10.5693 136.589 11.3396 136.782 12.1098C136.974 12.9763 137.071 13.9391 137.071 15.1907V25.2038H133.123V15.5758C133.123 14.7093 133.027 13.9391 132.931 13.4577C132.834 12.9763 132.546 12.4949 132.16 12.2061C131.775 11.9172 131.486 11.6284 131.101 11.5321C130.716 11.4358 130.235 11.3395 129.657 11.3395C129.079 11.3395 128.502 11.4358 128.02 11.7247C127.443 12.0135 127.058 12.4949 126.672 13.1689C126.287 13.8428 126.095 14.8056 126.095 16.0572V25.1075H122.244V8.74001H126.095V11.2433C126.48 10.2805 127.154 9.51024 128.02 9.12512C128.887 8.64373 129.85 8.45117 131.101 8.45117C132.16 8.45117 133.027 8.54745 133.797 8.83629C134.471 8.93257 135.145 9.41396 135.626 9.99164Z" fill="#54575A"/>
    <path d="M146.891 25.5889C145.543 25.5889 144.291 25.3963 143.232 25.0112C142.173 24.6261 141.307 23.9521 140.633 23.1819C139.959 22.3154 139.574 21.2563 139.574 20.0047L143.232 19.6196C143.232 20.6786 143.617 21.4489 144.291 22.0265C144.965 22.6042 145.832 22.8931 146.987 22.8931C148.046 22.8931 148.913 22.7005 149.49 22.3154C150.068 21.9303 150.357 21.4489 150.357 20.6786C150.357 20.2935 150.164 20.0047 149.876 19.7158C149.587 19.427 149.202 19.2344 148.72 19.1382C148.239 18.9456 147.565 18.8493 146.698 18.5605L145.736 18.2716C144.58 17.9828 143.521 17.5977 142.751 17.3089C141.981 16.9237 141.307 16.4423 140.825 15.8647C140.344 15.1907 140.055 14.4205 140.055 13.3614C140.055 12.2061 140.344 11.3395 140.922 10.5693C141.499 9.79908 142.27 9.31768 143.329 8.93257C144.291 8.54745 145.35 8.45117 146.506 8.45117C148.528 8.45117 150.068 8.83629 151.416 9.7028C152.668 10.5693 153.438 11.8209 153.63 13.7465L150.068 14.3242C150.068 13.3614 149.683 12.5912 149.105 12.0135C148.528 11.5321 147.661 11.2433 146.602 11.2433C145.832 11.2433 145.158 11.4358 144.58 11.7247C144.003 12.0135 143.81 12.4949 143.81 13.0726C143.81 13.4577 144.003 13.8428 144.291 14.0354C144.58 14.3242 144.965 14.5168 145.447 14.7093C145.928 14.9019 146.602 14.9982 147.469 15.1907C148.913 15.4796 150.068 15.8647 150.935 16.1535C151.801 16.4423 152.571 16.9237 153.149 17.694C153.727 18.3679 154.112 19.3307 154.112 20.5824C154.112 22.4117 153.438 23.7596 152.09 24.6261C150.646 25.2038 149.009 25.5889 146.891 25.5889Z" fill="#54575A"/>
    <path d="M162.777 25.3968C161.14 25.3968 159.889 25.0117 159.119 24.3378C158.252 23.6638 157.867 22.6047 157.867 21.0643V11.8215H155.46V8.74055H157.867V4.11914H161.718V8.74055H165.088V11.8215H161.718V20.6792C161.718 21.1606 161.814 21.4494 162.103 21.642C162.392 21.8345 162.777 21.9308 163.451 21.9308C163.836 21.9308 164.318 21.8345 164.992 21.7382L165.088 25.108C164.318 25.3006 163.547 25.3968 162.777 25.3968Z" fill="#54575A"/>
    <path d="M172.597 25.5881C171.538 25.5881 170.575 25.3955 169.709 25.0104C168.842 24.6253 168.168 24.0476 167.591 23.3736C167.109 22.6034 166.82 21.7369 166.82 20.6778C166.82 19.5225 167.109 18.656 167.591 17.982C168.168 17.3081 168.842 16.8267 169.709 16.4415C170.575 16.0564 171.538 15.7676 172.79 15.575L177.7 14.6122C177.7 13.9383 177.7 13.4569 177.604 13.0718C177.507 12.6867 177.411 12.3978 177.218 12.109C177.026 11.8201 176.641 11.6276 176.256 11.435C175.871 11.2425 175.293 11.2425 174.619 11.2425C173.464 11.2425 172.597 11.435 172.116 11.9164C171.538 12.3978 171.345 13.168 171.249 14.2271L167.398 13.7457C167.494 11.8201 168.168 10.4722 169.42 9.50944C170.671 8.64292 172.501 8.25781 174.811 8.25781C176.93 8.25781 178.566 8.7392 179.722 9.60572C180.877 10.5685 181.455 11.9164 181.455 13.6494V22.122C181.455 23.0848 181.647 24.0476 182.032 24.9141V25.0104H178.181C177.989 24.2402 177.989 23.4699 177.989 22.6997C177.507 23.5662 176.833 24.2402 175.967 24.7216C175.004 25.3955 173.945 25.5881 172.597 25.5881ZM173.464 22.6034C174.811 22.6034 175.871 22.3146 176.641 21.6406C177.411 20.9667 177.796 20.0039 177.796 18.8485V17.3081L173.464 18.2708C172.597 18.4634 172.019 18.7522 171.538 19.0411C171.153 19.4262 170.864 19.9076 170.864 20.5815C170.864 21.2555 171.057 21.7369 171.538 22.122C172.116 22.5071 172.693 22.6034 173.464 22.6034Z" fill="#54575A"/>
    <path d="M194.164 8.35449C194.261 8.35449 194.55 8.35449 194.935 8.35449L194.838 11.9168C194.646 11.9168 194.357 11.8205 194.068 11.8205C193.009 11.8205 192.046 12.0131 191.276 12.3019C190.506 12.6871 189.928 13.2647 189.543 14.1312C189.158 14.9978 188.965 16.1531 188.965 17.5973V25.1071H185.114V8.73961H188.965V11.7243C189.254 10.7615 189.832 9.89496 190.795 9.31728C191.758 8.73961 192.817 8.35449 194.164 8.35449Z" fill="#54575A"/>
    <path d="M200.807 25.2027H196.956V2.0957H200.807V25.2027Z" fill="#54575A"/>
    <path d="M209.376 25.5881C208.317 25.5881 207.354 25.3955 206.488 25.0104C205.621 24.6253 204.948 24.0476 204.37 23.3736C203.888 22.6034 203.6 21.7369 203.6 20.6778C203.6 19.5225 203.888 18.656 204.37 17.982C204.948 17.3081 205.621 16.8267 206.488 16.4415C207.354 16.0564 208.317 15.7676 209.569 15.575L214.479 14.6122C214.479 13.9383 214.479 13.4569 214.383 13.0718C214.287 12.6867 214.19 12.3978 213.998 12.109C213.805 11.8201 213.42 11.6276 213.035 11.435C212.65 11.2425 212.072 11.2425 211.398 11.2425C210.243 11.2425 209.376 11.435 208.895 11.9164C208.317 12.3978 208.125 13.168 208.028 14.2271L204.177 13.7457C204.274 11.8201 204.948 10.4722 206.199 9.50944C207.451 8.64292 209.28 8.25781 211.591 8.25781C213.709 8.25781 215.346 8.7392 216.501 9.60572C217.656 10.5685 218.234 11.9164 218.234 13.6494V22.122C218.234 23.0848 218.427 24.0476 218.812 24.9141V25.0104H214.961C214.768 24.2402 214.768 23.4699 214.768 22.6997C214.287 23.5662 213.613 24.2402 212.746 24.7216C211.783 25.3955 210.724 25.5881 209.376 25.5881ZM210.243 22.6034C211.591 22.6034 212.65 22.3146 213.42 21.6406C214.19 20.9667 214.575 20.0039 214.575 18.8485V17.3081L210.243 18.2708C209.376 18.4634 208.799 18.7522 208.317 19.0411C207.932 19.4262 207.643 19.9076 207.643 20.5815C207.643 21.2555 207.836 21.7369 208.317 22.122C208.895 22.5071 209.473 22.6034 210.243 22.6034Z" fill="#54575A"/>
    <path d="M230.751 8.25757C232.195 8.25757 233.446 8.64269 234.602 9.31664C235.757 9.9906 236.624 11.0497 237.201 12.3976C237.779 13.7455 238.164 15.1897 238.164 16.9227C238.164 18.6557 237.875 20.1962 237.201 21.5441C236.527 22.892 235.661 23.8548 234.602 24.5288C233.543 25.2027 232.195 25.5878 230.751 25.5878C229.692 25.5878 228.729 25.299 227.862 24.8176C226.996 24.3362 226.322 23.6622 225.84 22.892V25.2027H221.989V2.0957H225.84V10.7608C226.418 9.9906 227.092 9.31664 227.959 8.93153C228.729 8.45013 229.692 8.25757 230.751 8.25757ZM229.788 22.6995C231.328 22.6995 232.387 22.2181 232.965 21.2553C233.543 20.2925 233.928 18.8483 233.928 16.9227C233.928 14.9971 233.639 13.4567 232.965 12.5901C232.291 11.6273 231.232 11.146 229.788 11.146C228.344 11.146 227.285 11.6273 226.611 12.6864C226.033 13.7455 225.648 15.0934 225.648 16.9227C225.648 18.8483 226.033 20.1962 226.707 21.2553C227.381 22.2181 228.44 22.6995 229.788 22.6995Z" fill="#54575A"/>
    <path d="M260.693 6.33199H256.457V2.0957H260.693V6.33199ZM260.693 25.2027H256.457V20.9664H260.693V25.2027ZM275.231 6.33199V2.0957H279.467V6.33199H275.231ZM279.467 25.2027H275.231V20.9664H279.467V25.2027Z" fill="#54575A"/>
    <path d="M74.9707 33.6758H81.1326V34.8311H76.126V37.9121H80.5549V39.0674H76.126V42.2446H81.1326V43.4H74.9707V33.6758Z" fill="#54575A"/>
    <path d="M88.6417 39.2606V43.3043H87.39V39.2606C87.39 38.5867 87.39 38.1053 87.0049 37.6239C86.6198 37.2388 86.1384 37.2388 85.7533 37.2388C85.1756 37.2388 83.924 37.5276 83.924 39.4532V43.2081H82.6724V36.3722H83.924V37.4313C84.3091 36.6611 84.9831 36.1797 86.0421 36.1797C86.9086 36.1797 87.5826 36.4685 88.064 36.9499C88.5454 37.6239 88.6417 38.4904 88.6417 39.2606Z" fill="#54575A"/>
    <path d="M90.664 41.7625V37.43H89.7012V36.3709H90.664V34.4453H91.9156V36.3709H93.3598V37.43H91.9156V41.6663C91.9156 42.1477 92.1082 42.2439 92.5895 42.2439C92.7821 42.2439 92.9747 42.2439 93.2635 42.1477V43.303C93.071 43.303 92.7821 43.3993 92.4933 43.3993C91.2416 43.3993 90.664 42.9179 90.664 41.7625Z" fill="#54575A"/>
    <path d="M100.581 40.2234H95.3818C95.3818 41.7639 96.0557 42.4378 97.3073 42.4378C98.4627 42.4378 99.1366 41.9564 99.2329 40.8974L100.388 40.9936C100.099 42.6304 98.9441 43.4006 97.2111 43.4006C96.152 43.4006 95.2855 43.1118 94.7078 42.4378C94.1301 41.7639 93.8413 40.8974 93.8413 39.8383C93.8413 38.7792 94.1301 37.9127 94.7078 37.2388C95.2855 36.5648 96.152 36.1797 97.1148 36.1797C98.1739 36.1797 99.2329 36.6611 99.8106 37.5276C100.388 38.2978 100.581 39.2606 100.581 40.2234ZM95.6706 38.009C95.3818 38.3941 95.3818 38.8755 95.3818 39.2606H99.3292C99.3292 38.8755 99.1367 38.3941 98.9441 38.009C98.559 37.5276 98.0776 37.2388 97.3073 37.2388C96.5371 37.335 95.9594 37.6239 95.6706 38.009Z" fill="#54575A"/>
    <path d="M105.78 36.2754V37.4307C105.684 37.4307 105.588 37.4307 105.491 37.4307C104.144 37.4307 103.277 37.8159 103.277 40.0303V43.3038H102.025V36.4679H103.277V37.7196C103.47 37.0456 104.336 36.4679 105.395 36.3717C105.395 36.2754 105.684 36.2754 105.78 36.2754Z" fill="#54575A"/>
    <path d="M113.386 39.8383C113.386 42.0527 112.135 43.4006 110.305 43.4006C109.343 43.4006 108.572 43.1118 108.091 42.3416V46.0002H106.839V36.3722H108.091V37.335C108.572 36.5648 109.343 36.1797 110.305 36.1797C112.038 36.276 113.386 37.6239 113.386 39.8383ZM111.942 39.8383C111.942 38.2015 111.557 37.2388 109.92 37.2388C108.572 37.2388 107.898 38.1053 107.898 39.8383C107.898 41.0899 108.187 42.4378 109.824 42.4378C111.461 42.5341 111.942 41.5713 111.942 39.8383Z" fill="#54575A"/>
    <path d="M118.585 36.2754V37.4307C118.489 37.4307 118.392 37.4307 118.296 37.4307C116.948 37.4307 116.082 37.8159 116.082 40.0303V43.3038H114.83V36.4679H116.082V37.7196C116.274 37.0456 117.141 36.4679 118.2 36.3717C118.2 36.2754 118.489 36.2754 118.585 36.2754Z" fill="#54575A"/>
    <path d="M119.644 33.6758H120.896V35.12H119.644V33.6758ZM119.644 36.4679H120.896V43.3037H119.644V36.4679Z" fill="#54575A"/>
    <path d="M122.244 41.0899L123.399 40.9936C123.399 41.9564 124.073 42.5341 125.132 42.5341C126.287 42.5341 126.865 42.149 126.865 41.3788C126.865 40.6085 125.613 40.5122 124.651 40.2234C123.495 39.9346 122.436 39.6457 122.436 38.2015C122.436 36.7574 123.784 36.1797 124.939 36.1797C126.384 36.1797 127.635 36.7574 127.828 38.3941L126.672 38.5867C126.672 37.6239 125.999 37.1425 124.939 37.1425C124.266 37.1425 123.592 37.4313 123.592 38.1053C123.592 38.7792 124.458 38.8755 125.228 39.0681C126.576 39.3569 128.02 39.5495 128.02 41.1862C128.02 42.823 126.576 43.3043 125.228 43.3043C123.592 43.4969 122.244 42.7267 122.244 41.0899Z" fill="#54575A"/>
    <path d="M135.434 40.2234H130.235C130.235 41.7639 130.909 42.4378 132.161 42.4378C133.316 42.4378 133.99 41.9564 134.086 40.8974L135.242 40.9936C134.953 42.6304 133.798 43.4006 132.065 43.4006C131.006 43.4006 130.139 43.1118 129.561 42.4378C128.984 41.7639 128.695 40.8974 128.695 39.8383C128.695 38.7792 128.984 37.9127 129.561 37.2388C130.139 36.5648 131.006 36.1797 131.968 36.1797C133.027 36.1797 134.086 36.6611 134.664 37.5276C135.338 38.2978 135.531 39.2606 135.434 40.2234ZM130.62 38.009C130.332 38.3941 130.332 38.8755 130.332 39.2606H134.279C134.279 38.8755 134.086 38.3941 133.894 38.009C133.509 37.5276 133.027 37.2388 132.257 37.2388C131.487 37.335 130.909 37.6239 130.62 38.009Z" fill="#54575A"/>
    <path d="M139.478 40.2228L140.826 40.1265C140.826 41.667 141.981 42.5335 143.425 42.5335C144.87 42.5335 146.025 42.1484 146.025 40.7042C146.025 39.3563 144.292 39.3563 142.848 39.0674C141.307 38.6823 139.671 38.2009 139.671 36.3716C139.671 34.446 141.5 33.6758 143.04 33.6758C145.062 33.6758 146.699 34.446 146.892 36.7567L145.64 36.9493C145.64 35.5051 144.677 34.6386 143.04 34.6386C142.078 34.6386 140.922 35.12 140.922 36.2753C140.922 37.3344 142.366 37.7195 143.714 37.9121C145.64 38.2009 147.277 38.586 147.277 40.6079C147.277 42.9186 145.255 43.5925 143.425 43.5925C141.404 43.4963 139.478 42.4372 139.478 40.2228Z" fill="#54575A"/>
    <path d="M148.335 39.8377C148.335 37.7196 149.683 36.2754 151.802 36.2754C153.92 36.2754 155.171 37.8159 155.171 39.8377C155.171 41.9559 153.823 43.4001 151.802 43.4001C149.587 43.4963 148.335 42.1484 148.335 39.8377ZM153.823 39.8377C153.823 38.201 153.246 37.2382 151.705 37.2382C150.165 37.2382 149.587 38.201 149.587 39.8377C149.587 41.4745 150.068 42.4373 151.705 42.4373C153.246 42.5335 153.823 41.4745 153.823 39.8377Z" fill="#54575A"/>
    <path d="M156.52 33.6758H157.771V43.3037H156.52V33.6758Z" fill="#54575A"/>
    <path d="M165.473 36.4683V43.3042H164.222V42.2451C163.836 43.0153 163.066 43.4005 162.103 43.4005C161.237 43.4005 160.563 43.1116 160.082 42.6302C159.504 42.0525 159.504 41.186 159.504 40.5121V36.3721H160.756V40.4158C160.756 41.0897 160.756 41.5712 161.141 41.9563C161.526 42.3414 162.007 42.3414 162.392 42.3414C162.97 42.3414 164.125 42.1488 164.125 40.2232V36.3721H165.473V36.4683Z" fill="#54575A"/>
    <path d="M167.687 41.7625V37.43H166.725V36.3709H167.687V34.4453H168.939V36.3709H170.383V37.43H168.939V41.6663C168.939 42.1477 169.132 42.2439 169.613 42.2439C169.806 42.2439 169.998 42.2439 170.287 42.1477V43.303C170.094 43.303 169.806 43.3993 169.517 43.3993C168.265 43.3993 167.687 42.9179 167.687 41.7625Z" fill="#54575A"/>
    <path d="M171.442 33.6758H172.694V35.12H171.442V33.6758ZM171.442 36.4679H172.694V43.3037H171.442V36.4679Z" fill="#54575A"/>
    <path d="M174.138 39.8377C174.138 37.7196 175.486 36.2754 177.604 36.2754C179.722 36.2754 180.974 37.8159 180.974 39.8377C180.974 41.9559 179.626 43.4001 177.604 43.4001C175.39 43.4963 174.138 42.1484 174.138 39.8377ZM179.626 39.8377C179.626 38.201 179.048 37.2382 177.508 37.2382C175.967 37.2382 175.39 38.201 175.39 39.8377C175.39 41.4745 175.871 42.4373 177.508 42.4373C179.145 42.5335 179.626 41.4745 179.626 39.8377Z" fill="#54575A"/>
    <path d="M188.292 39.2606V43.3043H187.04V39.2606C187.04 38.5867 187.04 38.1053 186.655 37.6239C186.27 37.2388 185.788 37.2388 185.403 37.2388C184.826 37.2388 183.574 37.5276 183.574 39.4532V43.2081H182.322V36.3722H183.574V37.4313C183.959 36.6611 184.633 36.1797 185.692 36.1797C186.559 36.1797 187.233 36.4685 187.714 36.9499C188.292 37.6239 188.292 38.4904 188.292 39.2606Z" fill="#54575A"/>
    <path d="M189.639 41.0899L190.795 40.9936C190.795 41.9564 191.469 42.5341 192.528 42.5341C193.683 42.5341 194.261 42.149 194.261 41.3788C194.261 40.6085 193.009 40.5122 192.046 40.2234C190.891 39.9346 189.832 39.6457 189.832 38.2015C189.832 36.7574 191.18 36.1797 192.335 36.1797C193.779 36.1797 195.031 36.7574 195.224 38.3941L194.068 38.5867C194.068 37.6239 193.394 37.1425 192.335 37.1425C191.661 37.1425 190.987 37.4313 190.987 38.1053C190.987 38.7792 191.854 38.8755 192.624 39.0681C193.972 39.3569 195.416 39.5495 195.416 41.1862C195.416 42.823 193.972 43.3043 192.624 43.3043C190.987 43.4969 189.543 42.7267 189.639 41.0899Z" fill="#54575A"/>
</svg>
