<svg width="222" height="49" viewBox="0 0 222 49" fill="none" xmlns="http://www.w3.org/2000/svg">
    <path d="M0.900391 25.9307V1.04023H7.74527L11.79 13.7966C12.7234 16.8042 13.4493 19.2932 13.9679 21.3674H14.0716C14.279 20.434 14.5902 19.1895 15.005 17.7376C15.4198 16.2856 15.8346 15.0411 16.1458 13.7966L20.1905 0.936523H27.0354V25.827H22.8869V11.3075C22.8869 10.5816 22.887 9.64818 22.9907 8.40366C22.9907 7.15914 23.0944 6.01832 23.0944 4.98122H22.9907C22.0573 8.29995 21.3313 10.5816 21.0202 11.7224L16.3532 25.9307H11.5825L7.01929 11.6187C6.91558 11.4113 6.60445 10.4779 6.0859 8.50737L5.0488 4.98122H4.94508C5.04879 8.19624 5.15252 10.3742 5.15252 11.4113V25.9307H0.900391Z" fill="#54575A"/>
    <path d="M39.7918 26.3456C37.9251 26.3456 36.2657 25.9307 34.9175 25.2048C33.5692 24.4788 32.5321 23.338 31.8061 21.9897C31.0802 20.6415 30.769 18.8784 30.769 17.0117C30.769 15.2486 31.1839 13.5892 31.9099 12.241C32.6358 10.789 33.6729 9.75194 35.0212 8.92225C36.3694 8.09257 38.0288 7.67773 39.7918 7.67773C41.6586 7.67773 43.2143 8.09257 44.5625 8.92225C45.9108 9.75194 46.9479 10.789 47.6738 12.241C48.3998 13.6929 48.8146 15.2486 48.8146 17.0117C48.8146 18.8784 48.3998 20.5378 47.6738 21.886C46.9479 23.338 45.9108 24.3751 44.4588 25.2048C43.1106 25.9307 41.5549 26.3456 39.7918 26.3456ZM39.7918 23.2343C41.4512 23.2343 42.592 22.7157 43.318 21.7823C44.044 20.7452 44.3551 19.1896 44.3551 17.0117C44.3551 14.8337 44.044 13.2781 43.318 12.241C42.592 11.2039 41.4512 10.789 39.7918 10.789C38.1325 10.789 36.9917 11.3076 36.2657 12.241C35.5397 13.2781 35.2286 14.8337 35.2286 17.0117C35.2286 18.4636 35.3323 19.6044 35.6434 20.5378C35.9546 21.4712 36.4731 22.0935 37.0954 22.612C37.7176 23.0268 38.651 23.2343 39.7918 23.2343Z" fill="#54575A"/>
    <path d="M66.238 9.5451C66.8602 10.1674 67.2751 10.9971 67.4825 11.8267C67.6899 12.7601 67.7936 13.7972 67.7936 15.1455V25.9313H63.5415V15.5603C63.5415 14.6269 63.4378 13.7972 63.3341 13.2787C63.2304 12.7601 62.9193 12.2416 62.5044 11.9304C62.0896 11.6193 61.7784 11.3082 61.3636 11.2045C60.9488 11.1008 60.4302 10.997 59.8079 10.997C59.1857 10.997 58.5634 11.1008 58.0449 11.4119C57.4226 11.723 57.0078 12.2416 56.5929 12.9675C56.1781 13.6935 55.9707 14.7306 55.9707 16.0789V25.8276H51.8223V8.19688H55.9707V10.8933C56.3855 9.85624 57.1115 9.02655 58.0449 8.61171C58.9783 8.09316 60.0154 7.88574 61.3636 7.88574C62.5044 7.88574 63.4378 7.98945 64.2675 8.30058C64.9935 8.4043 65.7194 8.92284 66.238 9.5451Z" fill="#54575A"/>
    <path d="M78.3717 26.3462C76.9198 26.3462 75.5715 26.1387 74.4307 25.7239C73.2899 25.3091 72.3565 24.5831 71.6305 23.7534C70.9046 22.82 70.4897 21.6792 70.4897 20.331L74.4307 19.9161C74.4307 21.0569 74.8456 21.8866 75.5715 22.5089C76.2975 23.1311 77.2309 23.4423 78.4754 23.4423C79.6162 23.4423 80.5496 23.2349 81.1719 22.82C81.7942 22.4052 82.1053 21.8866 82.1053 21.0569C82.1053 20.6421 81.8979 20.331 81.5867 20.0198C81.2756 19.7087 80.8608 19.5013 80.3422 19.3976C79.8237 19.1902 79.0977 19.0864 78.1643 18.7753L77.1272 18.4642C75.8827 18.1531 74.7419 17.7382 73.9122 17.4271C73.0825 17.0122 72.3565 16.4937 71.838 15.8714C71.3194 15.1455 71.0083 14.3158 71.0083 13.175C71.0083 11.9304 71.3194 10.997 71.9417 10.1674C72.5639 9.33768 73.3936 8.81913 74.5344 8.40429C75.5715 7.98945 76.7123 7.88574 77.9569 7.88574C80.1348 7.88574 81.7942 8.30059 83.2461 9.23398C84.5943 10.1674 85.424 11.5156 85.6314 13.5898L81.7942 14.2121C81.7942 13.175 81.3793 12.3453 80.7571 11.723C80.1348 11.2045 79.2014 10.8933 78.0606 10.8933C77.2309 10.8933 76.5049 11.1008 75.8827 11.4119C75.2604 11.723 75.053 12.2416 75.053 12.8638C75.053 13.2787 75.2604 13.6935 75.5715 13.9009C75.8827 14.2121 76.2975 14.4195 76.816 14.6269C77.3346 14.8343 78.0606 14.938 78.994 15.1455C80.5496 15.4566 81.7942 15.8714 82.7275 16.1826C83.6609 16.4937 84.4906 17.0122 85.1129 17.8419C85.7351 18.5679 86.15 19.605 86.15 20.9532C86.15 22.9237 85.424 24.3757 83.9721 25.3091C82.4164 25.9313 80.6533 26.3462 78.3717 26.3462Z" fill="#54575A"/>
    <path d="M95.484 26.1387C93.7209 26.1387 92.3727 25.7239 91.543 24.9979C90.6096 24.2719 90.1948 23.1311 90.1948 21.4718V11.5156H87.6021V8.19685H90.1948V3.21875H94.3432V8.19685H97.9731V11.5156H94.3432V21.0569C94.3432 21.5755 94.4469 21.8866 94.7581 22.094C95.0692 22.3014 95.484 22.4051 96.21 22.4051C96.6248 22.4051 97.1434 22.3014 97.8694 22.1977L97.9731 25.8276C97.1434 26.035 96.3137 26.1387 95.484 26.1387Z" fill="#54575A"/>
    <path d="M106.062 26.3456C104.921 26.3456 103.884 26.1382 102.951 25.7233C102.017 25.3085 101.291 24.6862 100.669 23.9602C100.15 23.1306 99.8394 22.1972 99.8394 21.0564C99.8394 19.8118 100.15 18.8784 100.669 18.1525C101.291 17.4265 102.017 16.9079 102.951 16.4931C103.884 16.0783 104.921 15.7671 106.269 15.5597L111.559 14.5226C111.559 13.7966 111.559 13.2781 111.455 12.8632C111.351 12.4484 111.247 12.1373 111.04 11.8261C110.833 11.515 110.418 11.3076 110.003 11.1002C109.588 10.8927 108.966 10.8928 108.24 10.8928C106.995 10.8928 106.062 11.1002 105.543 11.6187C104.921 12.1373 104.714 12.967 104.61 14.1078L100.462 13.5892C100.565 11.515 101.291 10.0631 102.64 9.02596C103.988 8.09257 105.958 7.67773 108.447 7.67773C110.729 7.67773 112.492 8.19628 113.737 9.12967C114.981 10.1668 115.603 11.6187 115.603 13.4855V22.612C115.603 23.6491 115.811 24.6862 116.226 25.6196V25.7233H112.077C111.87 24.8936 111.87 24.064 111.87 23.2343C111.351 24.1677 110.625 24.8936 109.692 25.4122C108.655 26.1382 107.514 26.3456 106.062 26.3456ZM106.995 23.1306C108.447 23.1306 109.588 22.8194 110.418 22.0935C111.247 21.3675 111.662 20.3304 111.662 19.0859V17.4265L106.995 18.4636C106.062 18.671 105.44 18.9821 104.921 19.2933C104.506 19.7081 104.195 20.2267 104.195 20.9526C104.195 21.6786 104.403 22.1972 104.921 22.612C105.543 23.0268 106.166 23.1306 106.995 23.1306Z" fill="#54575A"/>
    <path d="M129.293 7.78125C129.397 7.78125 129.708 7.78125 130.123 7.78125L130.019 11.6185C129.812 11.6185 129.501 11.5148 129.189 11.5148C128.049 11.5148 127.012 11.7222 126.182 12.0334C125.352 12.4482 124.73 13.0705 124.315 14.0039C123.9 14.9373 123.693 16.1818 123.693 17.7374V25.8268H119.544V8.19609H123.693V11.4111C124.004 10.374 124.626 9.44061 125.663 8.81835C126.7 8.19609 127.841 7.78125 129.293 7.78125Z" fill="#54575A"/>
    <path d="M136.45 25.9305H132.301V1.04004H136.45V25.9305Z" fill="#54575A"/>
    <path d="M145.68 26.3456C144.539 26.3456 143.502 26.1382 142.568 25.7233C141.635 25.3085 140.909 24.6862 140.287 23.9602C139.768 23.1306 139.457 22.1972 139.457 21.0564C139.457 19.8118 139.768 18.8784 140.287 18.1525C140.909 17.4265 141.635 16.9079 142.568 16.4931C143.502 16.0783 144.539 15.7671 145.887 15.5597L151.176 14.5226C151.176 13.7966 151.176 13.2781 151.073 12.8632C150.969 12.4484 150.865 12.1373 150.658 11.8261C150.45 11.515 150.035 11.3076 149.621 11.1002C149.206 10.8927 148.584 10.8928 147.858 10.8928C146.613 10.8928 145.68 11.1002 145.161 11.6187C144.539 12.1373 144.331 12.967 144.228 14.1078L140.079 13.5892C140.183 11.515 140.909 10.0631 142.257 9.02596C143.605 8.09257 145.576 7.67773 148.065 7.67773C150.347 7.67773 152.11 8.19628 153.354 9.12967C154.599 10.1668 155.221 11.6187 155.221 13.4855V22.612C155.221 23.6491 155.428 24.6862 155.843 25.6196V25.7233H151.695C151.487 24.8936 151.487 24.064 151.487 23.2343C150.969 24.1677 150.243 24.8936 149.31 25.4122C148.272 26.1382 147.132 26.3456 145.68 26.3456ZM146.613 23.1306C148.065 23.1306 149.206 22.8194 150.035 22.0935C150.865 21.3675 151.28 20.3304 151.28 19.0859V17.4265L146.613 18.4636C145.68 18.671 145.057 18.9821 144.539 19.2933C144.124 19.7081 143.813 20.2267 143.813 20.9526C143.813 21.6786 144.02 22.1972 144.539 22.612C145.161 23.0268 145.783 23.1306 146.613 23.1306Z" fill="#54575A"/>
    <path d="M168.704 7.6775C170.26 7.6775 171.608 8.09234 172.853 8.81831C174.097 9.54428 175.031 10.6851 175.653 12.137C176.275 13.589 176.69 15.1446 176.69 17.0114C176.69 18.8782 176.379 20.5376 175.653 21.9895C174.927 23.4415 173.993 24.4786 172.853 25.2045C171.712 25.9305 170.26 26.3453 168.704 26.3453C167.563 26.3453 166.526 26.0342 165.593 25.5157C164.66 24.9971 163.934 24.2711 163.415 23.4415V25.9305H159.267V1.04004H163.415V10.374C164.037 9.54428 164.763 8.81831 165.697 8.40347C166.526 7.88491 167.563 7.6775 168.704 7.6775ZM167.667 23.234C169.327 23.234 170.467 22.7155 171.09 21.6784C171.712 20.6413 172.127 19.0856 172.127 17.0114C172.127 14.9372 171.816 13.2779 171.09 12.3445C170.364 11.3074 169.223 10.7888 167.667 10.7888C166.111 10.7888 164.971 11.3074 164.245 12.4482C163.622 13.589 163.208 15.0409 163.208 17.0114C163.208 19.0856 163.622 20.5376 164.348 21.6784C165.074 22.7155 166.215 23.234 167.667 23.234Z" fill="#54575A"/>
    <path d="M200.957 5.60329H196.394V1.04004H200.957V5.60329ZM200.957 25.9305H196.394V21.3672H200.957V25.9305ZM216.618 5.60329V1.04004H221.181V5.60329H216.618ZM221.181 25.9305H216.618V21.3672H221.181V25.9305Z" fill="#54575A"/>
    <path d="M0.900391 35.0566H7.53784V36.3012H2.14489V39.6199H6.91557V40.8644H2.14489V44.2869H7.53784V45.5314H0.900391V35.0566Z" fill="#54575A"/>
    <path d="M15.6273 41.0726V45.4285H14.2791V41.0726C14.2791 40.3467 14.2791 39.8281 13.8642 39.3096C13.4494 38.8947 12.9308 38.8947 12.516 38.8947C11.8937 38.8947 10.5455 39.2058 10.5455 41.28V45.3248H9.19727V37.9613H10.5455V39.1021C10.9603 38.2725 11.6863 37.7539 12.8271 37.7539C13.7605 37.7539 14.4865 38.065 15.005 38.5836C15.5236 39.3096 15.6273 40.2429 15.6273 41.0726Z" fill="#54575A"/>
    <path d="M17.8047 43.7677V39.1008H16.7676V37.9599H17.8047V35.8857H19.1529V37.9599H20.7086V39.1008H19.1529V43.664C19.1529 44.1826 19.3603 44.2863 19.8789 44.2863C20.0863 44.2863 20.2937 44.2863 20.6049 44.1826V45.4271C20.3974 45.4271 20.0863 45.5308 19.7752 45.5308C18.4269 45.5308 17.8047 45.0122 17.8047 43.7677Z" fill="#54575A"/>
    <path d="M28.4873 42.1097H22.8869C22.8869 43.7691 23.6128 44.4951 24.9611 44.4951C26.2056 44.4951 26.9316 43.9765 27.0353 42.8357L28.2798 42.9394C27.9687 44.7025 26.7242 45.5322 24.8574 45.5322C23.7166 45.5322 22.7832 45.221 22.1609 44.4951C21.5387 43.7691 21.2275 42.8357 21.2275 41.6949C21.2275 40.5541 21.5387 39.6207 22.1609 38.8947C22.7832 38.1687 23.7166 37.7539 24.7537 37.7539C25.8945 37.7539 27.0353 38.2725 27.6576 39.2058C28.2798 40.0355 28.4873 41.0726 28.4873 42.1097ZM23.198 39.7244C22.8869 40.1392 22.8869 40.6578 22.8869 41.0726H27.139C27.139 40.6578 26.9316 40.1392 26.7242 39.7244C26.3093 39.2058 25.7908 38.8947 24.9611 38.8947C24.1314 38.9984 23.5092 39.3096 23.198 39.7244Z" fill="#54575A"/>
    <path d="M34.0877 37.8564V39.101C33.984 39.101 33.8802 39.101 33.7765 39.101C32.3246 39.101 31.3912 39.5158 31.3912 41.9011V45.4273H30.043V38.0639H31.3912V39.4121C31.5986 38.6861 32.532 38.0639 33.6728 37.9602C33.6728 37.8564 33.984 37.8564 34.0877 37.8564Z" fill="#54575A"/>
    <path d="M42.2813 41.6949C42.2813 44.0802 40.933 45.5322 38.9625 45.5322C37.9254 45.5322 37.0958 45.221 36.5772 44.3914V48.3323H35.229V37.9613H36.5772V38.9984C37.0958 38.1687 37.9254 37.7539 38.9625 37.7539C40.8293 37.8576 42.2813 39.3096 42.2813 41.6949ZM40.7256 41.6949C40.7256 39.9318 40.3108 38.8947 38.5477 38.8947C37.0958 38.8947 36.3698 39.8281 36.3698 41.6949C36.3698 43.0431 36.6809 44.4951 38.444 44.4951C40.2071 44.5988 40.7256 43.5617 40.7256 41.6949Z" fill="#54575A"/>
    <path d="M47.8806 37.8564V39.101C47.7769 39.101 47.6732 39.101 47.5695 39.101C46.1176 39.101 45.1842 39.5158 45.1842 41.9011V45.4273H43.8359V38.0639H45.1842V39.4121C45.3916 38.6861 46.325 38.0639 47.4658 37.9602C47.4658 37.8564 47.7769 37.8564 47.8806 37.8564Z" fill="#54575A"/>
    <path d="M49.0215 35.0566H50.3697V36.6123H49.0215V35.0566ZM49.0215 38.0642H50.3697V45.4277H49.0215V38.0642Z" fill="#54575A"/>
    <path d="M51.8223 43.0431L53.0668 42.9394C53.0668 43.9765 53.7928 44.5988 54.9336 44.5988C56.1781 44.5988 56.8003 44.1839 56.8003 43.3543C56.8003 42.5246 55.4521 42.4209 54.415 42.1097C53.1705 41.7986 52.0297 41.4875 52.0297 39.9318C52.0297 38.3762 53.4816 37.7539 54.7261 37.7539C56.2818 37.7539 57.63 38.3762 57.8374 40.1392L56.5929 40.3467C56.5929 39.3096 55.867 38.791 54.7261 38.791C54.0002 38.791 53.2742 39.1021 53.2742 39.8281C53.2742 40.5541 54.2076 40.6578 55.0373 40.8652C56.4892 41.1763 58.0449 41.3838 58.0449 43.1468C58.0449 44.9099 56.4892 45.4285 55.0373 45.4285C53.2742 45.6359 51.8223 44.8062 51.8223 43.0431Z" fill="#54575A"/>
    <path d="M66.0307 42.1097H60.4304C60.4304 43.7691 61.1563 44.4951 62.5046 44.4951C63.7491 44.4951 64.4751 43.9765 64.5788 42.8357L65.8233 42.9394C65.5122 44.7025 64.2676 45.5322 62.4009 45.5322C61.26 45.5322 60.3266 45.221 59.7044 44.4951C59.0821 43.7691 58.771 42.8357 58.771 41.6949C58.771 40.5541 59.0821 39.6207 59.7044 38.8947C60.3266 38.1687 61.26 37.7539 62.2971 37.7539C63.438 37.7539 64.5788 38.2725 65.201 39.2058C65.927 40.0355 66.1344 41.0726 66.0307 42.1097ZM60.8452 39.7244C60.5341 40.1392 60.5341 40.6578 60.5341 41.0726H64.7862C64.7862 40.6578 64.5788 40.1392 64.3713 39.7244C63.9565 39.2058 63.438 38.8947 62.6083 38.8947C61.7786 38.9984 61.1563 39.3096 60.8452 39.7244Z" fill="#54575A"/>
    <path d="M70.3867 42.1089L71.8387 42.0052C71.8387 43.6646 73.0832 44.598 74.6388 44.598C76.1945 44.598 77.439 44.1831 77.439 42.6275C77.439 41.1755 75.5722 41.1756 74.0166 40.8644C72.3572 40.4496 70.5941 39.931 70.5941 37.9605C70.5941 35.8863 72.5646 35.0566 74.224 35.0566C76.4019 35.0566 78.165 35.8863 78.3724 38.3754L77.0242 38.5828C77.0242 37.0271 75.9871 36.0937 74.224 36.0937C73.1869 36.0937 71.9424 36.6123 71.9424 37.8568C71.9424 38.9976 73.498 39.4125 74.95 39.6199C77.0242 39.931 78.7873 40.3459 78.7873 42.5238C78.7873 45.0128 76.6093 45.7388 74.6388 45.7388C72.4609 45.6351 70.3867 44.4943 70.3867 42.1089Z" fill="#54575A"/>
    <path d="M79.9277 41.6937C79.9277 39.4121 81.3797 37.8564 83.6613 37.8564C85.9429 37.8564 87.2912 39.5158 87.2912 41.6937C87.2912 43.9753 85.8392 45.531 83.6613 45.531C81.276 45.6347 79.9277 44.1828 79.9277 41.6937ZM85.8392 41.6937C85.8392 39.9306 85.217 38.8935 83.5576 38.8935C81.8982 38.8935 81.276 39.9306 81.276 41.6937C81.276 43.4568 81.7945 44.4939 83.5576 44.4939C85.217 44.5976 85.8392 43.4568 85.8392 41.6937Z" fill="#54575A"/>
    <path d="M88.7437 35.0566H90.0919V45.4277H88.7437V35.0566Z" fill="#54575A"/>
    <path d="M98.3881 38.0637V45.4271H97.0398V44.2863C96.625 45.116 95.7953 45.5308 94.7582 45.5308C93.8248 45.5308 93.0988 45.2197 92.5803 44.7011C91.958 44.0789 91.958 43.1455 91.958 42.4195V37.96H93.3063V42.3158C93.3063 43.0418 93.3063 43.5603 93.7211 43.9752C94.1359 44.39 94.6545 44.39 95.0693 44.39C95.6916 44.39 96.9361 44.1826 96.9361 42.1084V37.96H98.3881V38.0637Z" fill="#54575A"/>
    <path d="M100.773 43.7677V39.1008H99.7363V37.9599H100.773V35.8857H102.122V37.9599H103.677V39.1008H102.122V43.664C102.122 44.1826 102.329 44.2863 102.848 44.2863C103.055 44.2863 103.262 44.2863 103.574 44.1826V45.4271C103.366 45.4271 103.055 45.5308 102.744 45.5308C101.396 45.5308 100.773 45.0122 100.773 43.7677Z" fill="#54575A"/>
    <path d="M104.818 35.0566H106.167V36.6123H104.818V35.0566ZM104.818 38.0642H106.167V45.4277H104.818V38.0642Z" fill="#54575A"/>
    <path d="M107.722 41.6937C107.722 39.4121 109.174 37.8564 111.456 37.8564C113.737 37.8564 115.086 39.5158 115.086 41.6937C115.086 43.9753 113.634 45.531 111.456 45.531C109.07 45.6347 107.722 44.1828 107.722 41.6937ZM113.634 41.6937C113.634 39.9306 113.011 38.8935 111.352 38.8935C109.693 38.8935 109.07 39.9306 109.07 41.6937C109.07 43.4568 109.589 44.4939 111.352 44.4939C113.115 44.5976 113.634 43.4568 113.634 41.6937Z" fill="#54575A"/>
    <path d="M122.968 41.0726V45.4285H121.619V41.0726C121.619 40.3467 121.619 39.8281 121.205 39.3096C120.79 38.8947 120.271 38.8947 119.856 38.8947C119.234 38.8947 117.886 39.2058 117.886 41.28V45.3248H116.538V37.9613H117.886V39.1021C118.301 38.2725 119.027 37.7539 120.167 37.7539C121.101 37.7539 121.827 38.065 122.345 38.5836C122.968 39.3096 122.968 40.2429 122.968 41.0726Z" fill="#54575A"/>
    <path d="M124.419 43.0431L125.664 42.9394C125.664 43.9765 126.39 44.5988 127.531 44.5988C128.775 44.5988 129.398 44.1839 129.398 43.3543C129.398 42.5246 128.049 42.4209 127.012 42.1097C125.768 41.7986 124.627 41.4875 124.627 39.9318C124.627 38.3762 126.079 37.7539 127.323 37.7539C128.879 37.7539 130.227 38.3762 130.435 40.1392L129.19 40.3467C129.19 39.3096 128.464 38.791 127.323 38.791C126.597 38.791 125.871 39.1021 125.871 39.8281C125.871 40.5541 126.805 40.6578 127.634 40.8652C129.086 41.1763 130.642 41.3838 130.642 43.1468C130.642 44.9099 129.086 45.4285 127.634 45.4285C125.871 45.6359 124.316 44.8062 124.419 43.0431Z" fill="#54575A"/>
</svg>
