<svg width="319" height="40" viewBox="0 0 319 40" fill="none" xmlns="http://www.w3.org/2000/svg">
    <path d="M292.92 26.8701H286.63V33.1499H292.92V26.8701Z" fill="#464A4D"/>
    <path d="M318.06 26.8701H311.77V33.1499H318.06V26.8701Z" fill="#464A4D"/>
    <path d="M318.06 1.75H311.77V8.02979H318.06V1.75Z" fill="#464A4D"/>
    <path d="M292.92 1.75H286.63V8.02979H292.92V1.75Z" fill="#464A4D"/>
    <path d="M44 32.6201H49.21V14.6201C49.21 13.5601 49.08 9.37018 49.04 6.68018H49.12C50.01 9.68018 51.12 13.4302 51.6 14.9302L57.29 32.6602H63.21L69 15C69.49 13.5 70.46 10.1902 71.48 6.66016H71.56C71.48 9.35016 71.39 13.4098 71.39 14.5098V32.6401H76.6V1.77002H68.08L63.08 17.6899C62.16 20.6899 61.08 24.69 60.44 27.04H60.39C59.82 24.7 58.89 21.4801 57.7 17.6401L52.7 1.77002H44V32.6201Z" fill="#464A4D"/>
    <path d="M92.0998 29.3101C87.9498 29.3101 86.3998 26.8398 86.3998 21.5898C86.3998 16.3398 87.9898 13.8799 92.0998 13.8799C96.2098 13.8799 97.6998 16.3398 97.6998 21.5898C97.6998 26.8398 96.1598 29.3101 92.0998 29.3101ZM92.0998 33.1401C98.8998 33.1401 103.31 28.5098 103.31 21.5898C103.31 14.9298 99.0298 10.04 92.0998 10.04C85.1698 10.04 80.7998 14.8898 80.7998 21.5898C80.7998 28.7798 84.9998 33.1401 92.0998 33.1401Z" fill="#464A4D"/>
    <path d="M125.21 12.29C123.71 10.74 121.9 10.04 119.03 10.04C115.86 10.04 113.47 11.2299 112.37 13.9199V10.5698H107.16V32.6201H112.41V20.5298C112.41 15.1998 115.28 14.1401 117.22 14.1401C117.817 14.0676 118.423 14.1247 118.996 14.3076C119.569 14.4906 120.096 14.7951 120.54 15.2002C121.68 16.2602 121.77 17.6702 121.77 19.7002V32.6201H127.07V19.2998C127.07 16.6498 126.94 14.05 125.21 12.29Z" fill="#464A4D"/>
    <path d="M140.33 33.1401C145.18 33.1401 149.82 31.5101 149.82 26.1401C149.82 20.7701 145.1 20.0101 140.95 19.0801C138.12 18.4701 136.09 17.9402 136.09 16.2202C136.09 14.5002 137.9 13.75 139.84 13.75C142.62 13.75 144.3 15.0698 144.43 17.7998L149.24 17.0098C148.76 11.7598 144.65 10.0098 139.84 10.0098C135.43 10.0098 131.15 11.9101 131.15 16.6201C131.15 21.0801 134.9 22.3101 138.83 23.3301C142.14 24.1601 144.83 24.52 144.83 26.46C144.83 28.4 143.29 29.3701 140.33 29.3701C137.37 29.3701 135.43 27.87 135.39 25L130.49 25.5698C130.7 30.8998 135.16 33.1401 140.33 33.1401Z" fill="#464A4D"/>
    <path d="M161.53 32.8398C162.507 32.8378 163.48 32.7474 164.44 32.5698L164.35 28.0298C163.69 28.1543 163.022 28.2281 162.35 28.25C160.76 28.25 160.06 27.9401 160.06 26.6201V14.7598H164.56V10.5698H160V4.43994H154.83V10.5698H151.65V14.7598H154.83V27.0601C154.86 31.2001 157.33 32.8398 161.53 32.8398Z" fill="#464A4D"/>
    <path d="M175.82 29.2202C173.93 29.2202 172.43 28.3402 172.43 26.4902C172.43 24.6402 173.79 23.7999 175.87 23.3599L181.61 22.1201V24.1201C181.61 27.3701 179.53 29.2202 175.82 29.2202ZM174.68 33.1401C178.34 33.1401 180.68 31.65 181.87 29.48C181.856 30.5349 181.96 31.5882 182.18 32.6201H187.39V32.4399C186.893 31.2384 186.638 29.9503 186.64 28.6499V17.3101C186.64 12.5101 183.42 10.04 177.77 10.04C174.68 10.04 172.25 10.6098 170.57 11.7598C168.89 12.9098 167.97 14.7599 167.83 17.3599L172.96 18.02C172.96 15.02 174.41 13.9199 177.41 13.9199C179.27 13.9199 180.41 14.3199 180.95 15.1099C181.515 16.1299 181.746 17.3017 181.61 18.46L175 19.7002C171 20.4502 167 21.7698 167 26.5298C167 30.9998 170.62 33.1401 174.68 33.1401Z" fill="#464A4D"/>
    <path d="M203.73 10C200.07 10.13 197.46 11.81 196.67 14.5V10.5H191.46V32.5498H196.71V22.4502C196.71 16.3602 199.31 14.6899 203.46 14.6899C203.83 14.6683 204.2 14.6683 204.57 14.6899L204.7 9.93018L203.73 10Z" fill="#464A4D"/>
    <path d="M212.74 1.75H207.49V32.6201H212.74V1.75Z" fill="#464A4D"/>
    <path d="M225.6 29.2202C223.7 29.2202 222.2 28.3402 222.2 26.4902C222.2 24.6402 223.57 23.7999 225.64 23.3599L231.38 22.1201V24.1201C231.38 27.3701 229.31 29.2202 225.6 29.2202ZM224.45 33.1401C228.11 33.1401 230.45 31.65 231.65 29.48C231.639 30.5343 231.739 31.587 231.95 32.6201H237.16V32.4399C236.663 31.2384 236.408 29.9503 236.41 28.6499V17.3101C236.41 12.5101 233.19 10.04 227.54 10.04C224.45 10.04 222.02 10.6098 220.35 11.7598C219.475 12.403 218.769 13.2485 218.292 14.2236C217.815 15.1988 217.581 16.2747 217.61 17.3599L222.73 18.02C222.73 15.02 224.19 13.9199 227.19 13.9199C229.04 13.9199 230.14 14.3199 230.72 15.1099C231.29 16.1282 231.521 17.3016 231.38 18.46L224.8 19.7002C220.8 20.4502 216.8 21.7698 216.8 26.5298C216.81 30.9998 220.39 33.1401 224.45 33.1401Z" fill="#464A4D"/>
    <path d="M251.831 29.3101C248.161 29.3101 246.35 26.6201 246.35 21.6401C246.35 17.2301 247.541 13.8799 251.781 13.8799C256.021 13.8799 257.341 16.5198 257.341 21.5898C257.341 26.6598 256.001 29.3101 251.831 29.3101ZM253.19 10C251.887 9.95669 250.593 10.235 249.423 10.8105C248.252 11.3861 247.242 12.241 246.48 13.2998V1.75H241.23V32.6201H246.48V29.5698C247.177 30.6815 248.148 31.5947 249.301 32.2202C250.454 32.8457 251.749 33.1626 253.06 33.1401C258.93 33.1401 263.06 28.7398 263.06 21.5898C263 14.6198 259 10 253.19 10Z" fill="#464A4D"/>
    <path d="M7.87118 31.7289C6.76512 31.7289 5.76133 31.5206 4.85982 31.1039C3.9583 30.6797 3.24239 30.0698 2.71209 29.2744C2.18179 28.4713 1.91664 27.5016 1.91664 26.3653C1.91664 25.3653 2.11361 24.5547 2.50755 23.9335C2.90149 23.3047 3.428 22.8122 4.08709 22.4562C4.74618 22.1001 5.47346 21.835 6.26891 21.6607C7.07194 21.4789 7.87876 21.335 8.68936 21.2289C9.74997 21.0926 10.6098 20.9903 11.2689 20.9221C11.9356 20.8463 12.4204 20.7213 12.7235 20.5471C13.0341 20.3729 13.1894 20.0698 13.1894 19.638V19.5471C13.1894 18.4259 12.8825 17.5547 12.2689 16.9335C11.6628 16.3122 10.7424 16.0016 9.50755 16.0016C8.22724 16.0016 7.22346 16.2819 6.49618 16.8426C5.76891 17.4032 5.25755 18.0016 4.96209 18.638L2.41664 17.7289C2.87118 16.6683 3.47724 15.8426 4.23482 15.2516C4.99997 14.6532 5.8333 14.2365 6.73482 14.0016C7.64391 13.7592 8.53785 13.638 9.41664 13.638C9.97724 13.638 10.6212 13.7062 11.3485 13.8426C12.0833 13.9713 12.7916 14.2403 13.4735 14.6494C14.1628 15.0585 14.7348 15.6759 15.1894 16.5016C15.6439 17.3274 15.8712 18.4335 15.8712 19.8198V31.3198H13.1894V28.9562H13.053C12.8712 29.335 12.5682 29.7403 12.1439 30.1721C11.7197 30.6039 11.1553 30.9713 10.4507 31.2744C9.74618 31.5774 8.88633 31.7289 7.87118 31.7289ZM8.28027 29.3198C9.34088 29.3198 10.2348 29.1115 10.9621 28.6948C11.6969 28.2782 12.25 27.7403 12.6212 27.0812C13 26.4221 13.1894 25.7289 13.1894 25.0016V22.5471C13.0757 22.6835 12.8257 22.8085 12.4394 22.9221C12.0606 23.0282 11.6212 23.1229 11.1212 23.2062C10.6288 23.2819 10.1477 23.3501 9.678 23.4107C9.21588 23.4638 8.84088 23.5092 8.553 23.5471C7.85603 23.638 7.20452 23.7857 6.59846 23.9903C5.99997 24.1872 5.51512 24.4865 5.14391 24.888C4.78027 25.2819 4.59846 25.8198 4.59846 26.5016C4.59846 27.4335 4.94315 28.138 5.63255 28.6153C6.32952 29.085 7.21209 29.3198 8.28027 29.3198ZM28.357 13.8653V16.138H19.3115V13.8653H28.357ZM21.9479 9.68346H24.6297V26.3198C24.6297 27.0774 24.7396 27.6456 24.9593 28.0244C25.1865 28.3956 25.4744 28.6456 25.8229 28.7744C26.1789 28.8956 26.5539 28.9562 26.9479 28.9562C27.2433 28.9562 27.4858 28.941 27.6752 28.9107C27.8646 28.8729 28.0161 28.8426 28.1297 28.8198L28.6752 31.2289C28.4933 31.2971 28.2396 31.3653 27.9138 31.4335C27.588 31.5092 27.1752 31.5471 26.6752 31.5471C25.9176 31.5471 25.1752 31.3842 24.4479 31.0585C23.7282 30.7327 23.1297 30.2365 22.6524 29.5698C22.1827 28.9032 21.9479 28.0622 21.9479 27.0471V9.68346Z" fill="#464A4D"/>
</svg>
