<svg width="276" height="60" viewBox="0 0 276 60" fill="none" xmlns="http://www.w3.org/2000/svg">
    <path d="M0.269531 31.8203V0.820312H8.86951L13.8695 16.8203C15.0362 20.5603 15.9395 23.7198 16.5795 26.2998H16.6495C16.9495 25.0798 17.3495 23.5698 17.8495 21.7998C18.3495 20.0298 18.8496 18.3804 19.3096 16.8604L24.3795 0.860352H32.8895V31.8604H27.6696V13.6299C27.6696 12.7499 27.6695 11.52 27.7295 9.95996C27.7895 8.39996 27.8195 6.96 27.8595 5.75H27.7595C26.5395 9.95 25.7062 12.7432 25.2595 14.1299L19.5295 31.8604H13.5295L7.78955 14.04C7.71955 13.84 7.33953 12.56 6.63953 10.21L5.29956 5.75H5.21948C5.34948 9.75 5.40955 12.44 5.40955 13.75V31.8701L0.269531 31.8203Z" fill="white"/>
    <path d="M48.6998 32.3604C46.5948 32.4174 44.5097 31.9385 42.6399 30.9697C40.9574 30.0687 39.5924 28.6723 38.7299 26.9697C37.7796 25.0371 37.3129 22.9029 37.3699 20.75C37.3308 18.6671 37.8047 16.6065 38.7499 14.75C39.6341 13.0198 41.0031 11.5848 42.6898 10.6201C44.538 9.64034 46.598 9.12793 48.6898 9.12793C50.7817 9.12793 52.8417 9.64034 54.6898 10.6201C56.3712 11.6005 57.7381 13.0396 58.6299 14.7695C59.5416 16.6525 60.0151 18.7175 60.0151 20.8096C60.0151 22.9017 59.5416 24.9666 58.6299 26.8496C57.7217 28.5697 56.3317 29.9876 54.6299 30.9297C52.8122 31.9165 50.7675 32.4103 48.6998 32.3604ZM48.6998 28.4902C49.5221 28.5634 50.3497 28.432 51.1088 28.1074C51.8678 27.7829 52.5348 27.2749 53.0499 26.6299C53.9299 25.3799 54.3699 23.4205 54.3699 20.7305C54.3699 18.0405 53.9299 16.0898 53.0399 14.8398C52.4794 14.2498 51.8047 13.78 51.0569 13.459C50.3091 13.1379 49.5037 12.9727 48.6898 12.9727C47.876 12.9727 47.0707 13.1379 46.3229 13.459C45.5751 13.78 44.9004 14.2498 44.3399 14.8398C43.4532 16.0932 43.0066 18.0571 42.9999 20.7305C42.9559 22.2148 43.1482 23.6963 43.5698 25.1201C43.8652 26.1488 44.5085 27.0433 45.3899 27.6504C46.3849 28.2539 47.5375 28.5463 48.6998 28.4902Z" fill="white"/>
    <path d="M81.8199 11.3803C82.6003 12.1742 83.1321 13.1782 83.35 14.2699C83.6113 15.6373 83.732 17.0283 83.71 18.4203V31.8207H78.36V18.8207C78.3848 17.8789 78.3111 16.9366 78.14 16.0101C77.9886 15.3488 77.6398 14.7492 77.14 14.2904C76.7313 13.8905 76.2296 13.5988 75.6801 13.4408C75.0588 13.287 74.4199 13.2164 73.78 13.2308C73.0045 13.2326 72.2404 13.4167 71.55 13.7699C70.7402 14.2246 70.0957 14.925 69.71 15.7699C69.1473 16.9901 68.8866 18.3281 68.95 19.6703V31.8402H63.71V9.67029H68.9301V13.0004C69.4247 11.7745 70.32 10.7519 71.47 10.1C72.7412 9.43127 74.1643 9.10472 75.6 9.15076C76.8199 9.1185 78.0357 9.30457 79.1899 9.70056C80.1796 10.0601 81.0777 10.6334 81.8199 11.3803Z" fill="white"/>
    <path d="M96.9302 32.36C95.2617 32.3827 93.6025 32.1079 92.0302 31.5495C90.6363 31.065 89.411 30.1908 88.5001 29.0299C87.5789 27.7969 87.0808 26.2986 87.0801 24.7594L92.0201 24.1998C91.9889 24.8088 92.0948 25.4166 92.3302 25.9791C92.5656 26.5417 92.9244 27.0446 93.3801 27.4498C94.4074 28.242 95.6847 28.6395 96.9801 28.57C98.1484 28.6422 99.3133 28.3821 100.34 27.82C100.708 27.5927 101.009 27.2724 101.212 26.8912C101.416 26.5101 101.515 26.0819 101.5 25.65C101.508 25.4036 101.46 25.1584 101.359 24.9332C101.259 24.7081 101.109 24.508 100.92 24.3493C100.476 23.9918 99.9664 23.7235 99.4202 23.5592C98.8202 23.3692 97.9301 23.1195 96.7601 22.8395L95.4202 22.5094C94.0544 22.1705 92.717 21.7257 91.4202 21.1793C90.3902 20.7379 89.4839 20.0513 88.7802 19.1793C88.0628 18.1962 87.7093 16.9949 87.7802 15.7799C87.7253 14.4198 88.154 13.0836 88.9901 12.0094C89.8252 10.9905 90.931 10.2278 92.1802 9.80922C93.5693 9.32943 95.0306 9.09341 96.5001 9.11C98.7985 9.0136 101.075 9.58973 103.05 10.7692C103.93 11.3732 104.654 12.1779 105.162 13.1168C105.669 14.0558 105.946 15.1024 105.97 16.1696L101.12 16.9694C101.137 16.3967 101.03 15.8274 100.808 15.2995C100.585 14.7715 100.252 14.2977 99.8301 13.9098C98.8754 13.1888 97.694 12.834 96.5001 12.9098C95.5676 12.8751 94.6426 13.0892 93.8201 13.5299C93.4847 13.7034 93.2054 13.968 93.0143 14.2936C92.8232 14.6192 92.7281 14.9924 92.7401 15.3698C92.7309 15.6246 92.7791 15.8783 92.8812 16.112C92.9834 16.3456 93.1368 16.553 93.3301 16.7194C93.8019 17.0979 94.3416 17.3828 94.9202 17.5592C95.8108 17.8366 96.7153 18.0673 97.6301 18.2496C99.21 18.5827 100.769 19.0063 102.3 19.5192C103.455 19.9178 104.488 20.6065 105.3 21.5192C106.189 22.5868 106.64 23.9525 106.56 25.3395C106.642 26.3957 106.434 27.4545 105.958 28.401C105.483 29.3475 104.757 30.1457 103.86 30.7096C101.751 31.9007 99.3494 32.473 96.9302 32.36Z" fill="white"/>
    <path d="M118.26 32C116.485 32.1255 114.72 31.6385 113.26 30.6201C112.655 30.0687 112.185 29.3845 111.888 28.6211C111.591 27.8577 111.476 27.0354 111.55 26.2197V13.8096H108.37V9.61035H111.55V3.44043H116.73V9.61035H121.25V13.8096H116.73V25.7598C116.699 26.0047 116.733 26.2535 116.828 26.4814C116.922 26.7094 117.075 26.9085 117.27 27.0596C117.818 27.333 118.429 27.4545 119.04 27.4102C119.712 27.3941 120.381 27.3208 121.04 27.1904L121.12 31.7402C120.177 31.9172 119.22 32.004 118.26 32Z" fill="white"/>
    <path d="M131.43 32.3604C130.11 32.3739 128.801 32.122 127.58 31.6201C126.411 31.1442 125.417 30.3199 124.734 29.2588C124.05 28.1977 123.71 26.9516 123.76 25.6904C123.699 24.39 124.088 23.1074 124.86 22.0596C125.591 21.1245 126.562 20.4064 127.67 19.9805C128.997 19.4674 130.37 19.0819 131.77 18.8301L138.4 17.5898C138.41 16.9211 138.37 16.2526 138.28 15.5898C138.205 15.106 138.017 14.647 137.73 14.25C137.407 13.8157 136.95 13.4991 136.43 13.3496C135.701 13.1325 134.941 13.0345 134.18 13.0596C132.976 12.9573 131.775 13.2949 130.8 14.0098C130.403 14.4281 130.099 14.9268 129.909 15.4717C129.72 16.0166 129.648 16.5953 129.7 17.1699L124.56 16.5C124.536 15.4102 124.773 14.33 125.251 13.3506C125.73 12.3711 126.436 11.521 127.31 10.8701C128.99 9.71012 131.39 9.13965 134.52 9.13965C137.4 9.13965 139.6 9.76 141.14 11C141.924 11.6669 142.542 12.508 142.943 13.4561C143.344 14.4041 143.517 15.4328 143.45 16.46V27.8701C143.44 29.1778 143.695 30.4735 144.2 31.6797V31.8496H139C138.795 30.8157 138.694 29.764 138.7 28.71C138.078 29.8639 137.123 30.8047 135.96 31.4102C134.554 32.1019 132.996 32.4288 131.43 32.3604ZM132.58 28.3604C134.131 28.4603 135.665 27.9869 136.89 27.0303C137.404 26.5541 137.806 25.9695 138.067 25.3193C138.328 24.6692 138.442 23.9689 138.4 23.2695V21.2695L132.62 22.5C131.698 22.6446 130.819 22.9856 130.04 23.5C129.742 23.7558 129.509 24.0782 129.359 24.4414C129.21 24.8046 129.149 25.1983 129.18 25.5898C129.161 25.9881 129.242 26.3848 129.417 26.7432C129.592 27.1015 129.855 27.4096 130.18 27.6396C130.878 28.1447 131.719 28.412 132.58 28.4004V28.3604Z" fill="white"/>
    <path d="M160.49 9.12988C160.63 9.12988 160.96 9.12988 161.49 9.12988L161.36 13.9297C159.732 13.7514 158.085 13.9717 156.56 14.5703C155.529 15.0811 154.713 15.9423 154.26 17C153.657 18.4872 153.381 20.0871 153.45 21.6904V31.8398H148.21V9.66992H153.41V13.6699C153.797 12.3205 154.679 11.1674 155.88 10.4404C157.268 9.59093 158.863 9.13733 160.49 9.12988Z" fill="white"/>
    <path d="M169.381 31.8203H164.141V0.820312H169.381V31.8203Z" fill="white"/>
    <path d="M180.91 32.3604C179.59 32.375 178.281 32.1231 177.06 31.6201C175.891 31.1442 174.897 30.3199 174.214 29.2588C173.53 28.1977 173.19 26.9516 173.24 25.6904C173.176 24.3912 173.561 23.1087 174.33 22.0596C175.067 21.1262 176.041 20.4088 177.15 19.9805C178.477 19.4661 179.85 19.0805 181.25 18.8301L187.88 17.5898C187.89 16.9211 187.85 16.2526 187.76 15.5898C187.685 15.106 187.497 14.647 187.21 14.25C186.887 13.8157 186.431 13.4991 185.91 13.3496C185.181 13.1325 184.421 13.0345 183.66 13.0596C182.456 12.9573 181.255 13.2949 180.28 14.0098C179.883 14.4287 179.579 14.9271 179.388 15.4717C179.197 16.0162 179.122 16.5947 179.17 17.1699L174.04 16.5C174.016 15.4102 174.253 14.33 174.732 13.3506C175.21 12.3711 175.916 11.521 176.79 10.8701C178.47 9.71012 180.87 9.13965 184 9.13965C186.88 9.13965 189.08 9.76 190.62 11C191.403 11.6674 192.019 12.5089 192.418 13.457C192.818 14.4052 192.99 15.4335 192.92 16.46V27.8701C192.913 29.1785 193.172 30.4742 193.68 31.6797V31.8496H188.44C188.235 30.8157 188.135 29.764 188.14 28.71C187.518 29.8639 186.563 30.8047 185.4 31.4102C184.006 32.0953 182.463 32.422 180.91 32.3604ZM182.05 28.3604C183.602 28.4641 185.137 27.9903 186.36 27.0303C186.875 26.5546 187.279 25.9704 187.542 25.3203C187.805 24.6702 187.92 23.9696 187.88 23.2695V21.2695L182.1 22.5C181.178 22.6446 180.299 22.9856 179.52 23.5C179.221 23.7554 178.986 24.0773 178.835 24.4404C178.684 24.8036 178.621 25.1976 178.65 25.5898C178.632 25.9879 178.714 26.384 178.889 26.7422C179.063 27.1004 179.325 27.409 179.65 27.6396C180.348 28.1447 181.189 28.412 182.05 28.4004V28.3604Z" fill="white"/>
    <path d="M209.64 9.05957C211.467 9.02879 213.264 9.53297 214.81 10.5098C216.336 11.5222 217.543 12.9479 218.29 14.6201C219.121 16.5639 219.55 18.6554 219.55 20.7695C219.55 22.8836 219.121 24.9761 218.29 26.9199C217.516 28.5638 216.287 29.9517 214.75 30.9199C213.175 31.8666 211.366 32.3521 209.53 32.3203C208.175 32.3288 206.841 31.9841 205.66 31.3203C204.533 30.702 203.588 29.7984 202.92 28.7002V31.7002H197.68V0.700195H202.92V12.3301C203.644 11.2737 204.629 10.4231 205.78 9.86035C206.987 9.29842 208.308 9.02377 209.64 9.05957ZM208.28 28.5098C210.28 28.5098 211.706 27.8729 212.56 26.5996C213.4 25.3296 213.82 23.3805 213.82 20.7305C213.82 18.0805 213.39 16.1399 212.54 14.8799C211.69 13.6199 210.25 12.9805 208.23 12.9805C207.406 12.9061 206.577 13.0597 205.834 13.4248C205.092 13.7899 204.464 14.3518 204.02 15.0498C203.102 16.8147 202.673 18.7938 202.78 20.7803C202.647 22.7956 203.129 24.8034 204.16 26.54C204.624 27.1902 205.245 27.7121 205.966 28.0566C206.686 28.4012 207.482 28.5568 208.28 28.5098Z" fill="white"/>
    <path d="M249.81 6.50977H244.07V0.769531H249.81V6.50977ZM249.81 31.8203H244.07V26.0801H249.81V31.8203ZM269.38 6.50977V0.769531H275.12V6.50977H269.38ZM275.12 31.8203H269.38V26.0801H275.12V31.8203Z" fill="white"/>
    <path d="M0.280273 43.2598H8.62024V44.7598H1.94019V48.9102H7.94019V50.4004H1.94019V54.6797H8.62024V56.1797H0.280273V43.2598Z" fill="white"/>
    <path d="M18.5599 50.7003V56.1798H16.8398V50.7901C16.9043 50.4148 16.8886 50.03 16.7938 49.6612C16.699 49.2924 16.5273 48.9482 16.2899 48.6505C16.0696 48.4511 15.8094 48.3004 15.5267 48.2091C15.244 48.1177 14.9452 48.0875 14.6499 48.1202C13.8399 48.1202 12.2499 48.4502 12.2499 51.1202V56.21H10.5898V47.0001H12.2499V48.4102C12.4911 47.8739 12.8956 47.4276 13.4056 47.1348C13.9157 46.8421 14.5051 46.7181 15.0898 46.7803C15.5932 46.7387 16.0996 46.806 16.5743 46.9786C17.049 47.1512 17.4808 47.4251 17.8398 47.7803C18.426 48.6342 18.682 49.6718 18.5599 50.7003Z" fill="white"/>
    <path d="M21.3199 54.1104V48.3398H20V47H21.3199V44.4404H23V47H24.88V48.3896H23V54.1104C23 54.7104 23.27 54.8203 24 54.8203C24.2854 54.815 24.5698 54.7851 24.85 54.7305V56.2305C24.519 56.2822 24.1849 56.3122 23.85 56.3203C22.08 56.2703 21.3199 55.6004 21.3199 54.1104Z" fill="white"/>
    <path d="M34.5996 52.0599H27.5996C27.5996 54.0599 28.4896 55.0599 30.2196 55.0599C31.7896 55.0599 32.6396 54.4006 32.8596 52.9906L34.4696 53.1205C34.0596 55.2805 32.5796 56.39 30.2396 56.39C29.6203 56.4288 29.0003 56.3278 28.4255 56.0941C27.8507 55.8604 27.3361 55.5004 26.9196 55.0404C26.1252 54.053 25.726 52.8056 25.7996 51.5404C25.7442 50.2923 26.1579 49.069 26.9596 48.1107C27.4114 47.6357 27.9619 47.2657 28.5724 47.0267C29.1828 46.7877 29.8382 46.685 30.4924 46.7269C31.1466 46.7689 31.7836 46.9539 32.3585 47.2689C32.9334 47.5839 33.4321 48.0214 33.8195 48.5502C34.4228 49.6166 34.6944 50.8384 34.5996 52.0599ZM28.0695 49.0599C27.7828 49.5627 27.6313 50.1315 27.6296 50.7103H32.9096C32.876 50.1285 32.7046 49.5626 32.4096 49.0599C32.1705 48.7168 31.8445 48.4437 31.4649 48.2679C31.0854 48.0922 30.6659 48.0203 30.2496 48.0599C29.8302 48.0279 29.4096 48.1038 29.0279 48.2806C28.6463 48.4575 28.3163 48.73 28.0695 49.0707V49.0599Z" fill="white"/>
    <path d="M41.6298 46.7305V48.2998C41.49 48.2883 41.3495 48.2883 41.2097 48.2998C39.4597 48.2998 38.2097 48.8503 38.2097 51.8203V56.2002H36.5498V47H38.2097V48.6299C38.4602 48.0781 38.866 47.6111 39.3774 47.2861C39.8889 46.9612 40.4838 46.7922 41.0897 46.7998C41.1497 46.7298 41.4998 46.7305 41.6298 46.7305Z" fill="white"/>
    <path d="M51.8101 51.5593C51.8101 54.4793 50.12 56.4001 47.63 56.4001C47.0503 56.4395 46.4701 56.3294 45.9449 56.0808C45.4198 55.8322 44.967 55.4535 44.63 54.9802V59.8698H43V46.9997H44.66V48.3493C44.9634 47.8541 45.3923 47.4483 45.9034 47.1726C46.4146 46.8968 46.9895 46.7616 47.5699 46.78C49.9999 46.73 51.8101 48.5593 51.8101 51.5593ZM49.99 51.5593C49.99 49.4093 49.43 48.0397 47.28 48.0397C45.5 48.0397 44.6 49.2195 44.6 51.5495C44.6 53.2595 44.99 55.07 47.24 55.07C49.3 55.07 50 53.7793 50 51.5593H49.99Z" fill="white"/>
    <path d="M58.8602 46.7305V48.2998C58.7205 48.2886 58.58 48.2886 58.4402 48.2998C56.6802 48.2998 55.4402 48.8503 55.4402 51.8203V56.2002H53.7803V47H55.4402V48.6299C55.6907 48.0781 56.0965 47.6111 56.6079 47.2861C57.1193 46.9612 57.7143 46.7922 58.3202 46.7998C58.3802 46.7298 58.7302 46.7305 58.8602 46.7305Z" fill="white"/>
    <path d="M60.2197 43.2598H61.8798V45.2598H60.2197V43.2598ZM60.2197 46.9502H61.8798V56.1797H60.2197V46.9502Z" fill="white"/>
    <path d="M63.7306 53.1504L65.2406 53C65.2406 54.29 66.1606 55.0898 67.6006 55.0898C69.0406 55.0898 69.8706 54.5698 69.8706 53.5898C69.8706 52.6098 68.1706 52.4101 66.8706 52.0801C65.3806 51.6901 63.8706 51.2497 63.8706 49.4297C63.8706 47.6097 65.6407 46.7305 67.2807 46.7305C69.2807 46.7305 70.9407 47.5105 71.1407 49.7305L69.5906 49.9697C69.5906 48.6897 68.7207 47.9697 67.2607 47.9697C66.3607 47.9697 65.4207 48.4002 65.4207 49.2402C65.4207 50.0802 66.5307 50.3303 67.6307 50.5703C69.4807 50.9603 71.3807 51.2697 71.3807 53.4297C71.3807 55.5897 69.4406 56.3301 67.5806 56.3301C65.5706 56.4001 63.7106 55.4404 63.7306 53.1504Z" fill="white"/>
    <path d="M81.56 52.0599H74.56C74.56 54.0599 75.45 55.0599 77.18 55.0599C78.75 55.0599 79.5999 54.4006 79.8199 52.9906L81.42 53.1205C81.02 55.2805 79.5399 56.39 77.1999 56.39C76.5807 56.4288 75.9607 56.3278 75.3859 56.0941C74.8112 55.8604 74.2964 55.5004 73.88 55.0404C73.0828 54.054 72.6801 52.8068 72.75 51.5404C72.6973 50.291 73.1148 49.0675 73.92 48.1107C74.3718 47.6357 74.9222 47.2657 75.5327 47.0267C76.1431 46.7877 76.7986 46.685 77.4528 46.7269C78.107 46.7689 78.744 46.9539 79.3189 47.2689C79.8938 47.5839 80.3926 48.0214 80.78 48.5502C81.3833 49.6166 81.6549 50.8384 81.56 52.0599ZM75.03 49.0599C74.7432 49.5627 74.5916 50.1315 74.5899 50.7103H79.87C79.8363 50.1285 79.6649 49.5626 79.37 49.0599C79.1308 48.7168 78.8048 48.4437 78.4253 48.2679C78.0457 48.0922 77.6263 48.0203 77.2099 48.0599C76.7856 48.0226 76.3589 48.0968 75.9715 48.2738C75.5841 48.4508 75.2494 48.7254 75 49.0707L75.03 49.0599Z" fill="white"/>
    <path d="M87 52L88.77 51.8203C88.77 53.8803 90.28 55.0303 92.27 55.0303C94.26 55.0303 95.79 54.4503 95.79 52.5703C95.79 50.6903 93.5099 50.8204 91.5699 50.3604C89.6299 49.9004 87.35 49.18 87.35 46.71C87.35 44.07 89.82 43.0703 91.92 43.0703C94.6 43.0703 96.7899 44.0704 97.0699 47.1904L95.33 47.5C95.33 45.56 94.01 44.5 91.88 44.5C90.63 44.5 89.0601 45.1599 89.0601 46.6699C89.0601 48.1799 91.06 48.5901 92.77 48.8701C95.33 49.2701 97.53 49.7305 97.53 52.4805C97.53 55.6205 94.82 56.4805 92.33 56.4805C89.48 56.4005 87 55 87 52Z" fill="white"/>
    <path d="M98.8105 51.5593C98.8105 48.7593 100.561 46.7302 103.421 46.7302C104.049 46.7129 104.673 46.8273 105.254 47.0671C105.835 47.307 106.359 47.6663 106.792 48.1218C107.225 48.5773 107.557 49.1194 107.767 49.7117C107.977 50.304 108.06 50.9329 108.01 51.5593C108.01 54.4593 106.191 56.4002 103.421 56.4002C100.651 56.4002 98.8105 54.5693 98.8105 51.5593ZM106.22 51.5593C106.22 49.3893 105.501 48.0398 103.421 48.0398C101.341 48.0398 100.6 49.3893 100.6 51.5593C100.6 53.7293 101.281 55.0896 103.421 55.0896C105.561 55.0896 106.22 53.7393 106.22 51.5593Z" fill="white"/>
    <path d="M109.891 43.2598H111.551V56.1797H109.891V43.2598Z" fill="white"/>
    <path d="M121.86 47V56.2305H120.2V54.8398C119.939 55.3588 119.53 55.7886 119.024 56.0752C118.519 56.3617 117.94 56.4925 117.36 56.4502C116.86 56.4895 116.357 56.4206 115.886 56.248C115.415 56.0755 114.987 55.8033 114.63 55.4502C114.03 54.6138 113.769 53.5806 113.9 52.5596V47H115.61V52.4297C115.547 52.798 115.563 53.1762 115.656 53.5381C115.749 53.9 115.917 54.2381 116.15 54.5303C116.376 54.7309 116.641 54.8813 116.929 54.9727C117.217 55.064 117.52 55.0934 117.82 55.0596C118.65 55.0596 120.2 54.8604 120.2 52.1904V47H121.86Z" fill="white"/>
    <path d="M124.81 54.1104V48.3398H123.49V47H124.81V44.4404H126.46V47H128.34V48.3896H126.46V54.1104C126.46 54.7104 126.73 54.8203 127.46 54.8203C127.742 54.8145 128.023 54.7845 128.3 54.7305V56.2305C127.969 56.2822 127.635 56.3122 127.3 56.3203C125.57 56.2703 124.81 55.6004 124.81 54.1104Z" fill="white"/>
    <path d="M130 43.2598H131.66V45.2598H130V43.2598ZM130 46.9502H131.66V56.1797H130V46.9502Z" fill="white"/>
    <path d="M133.5 51.5596C133.5 48.7596 135.25 46.7305 138.11 46.7305C138.739 46.7117 139.365 46.8253 139.947 47.0645C140.529 47.3037 141.054 47.6625 141.488 48.1182C141.922 48.5739 142.255 49.116 142.466 49.709C142.676 50.302 142.759 50.9323 142.71 51.5596C142.71 54.4596 140.88 56.4004 138.11 56.4004C135.34 56.4004 133.5 54.5696 133.5 51.5596ZM140.92 51.5596C140.92 49.3896 140.2 48.0401 138.11 48.0401C136.02 48.0401 135.29 49.3896 135.29 51.5596C135.29 53.7296 135.97 55.0899 138.11 55.0899C140.25 55.0899 140.92 53.7396 140.92 51.5596Z" fill="white"/>
    <path d="M152.56 50.7003V56.1798H150.84V50.7901C150.904 50.4148 150.889 50.03 150.794 49.6612C150.699 49.2924 150.527 48.9482 150.29 48.6505C150.07 48.4511 149.809 48.3004 149.527 48.2091C149.244 48.1177 148.945 48.0875 148.65 48.1202C147.83 48.1202 146.25 48.4502 146.25 51.1202V56.21H144.59V47.0001H146.25V48.4102C146.491 47.8739 146.896 47.4276 147.406 47.1348C147.916 46.8421 148.505 46.7181 149.09 46.7803C149.593 46.7387 150.1 46.806 150.574 46.9786C151.049 47.1512 151.481 47.4251 151.84 47.7803C152.426 48.6342 152.682 49.6718 152.56 50.7003Z" fill="white"/>
    <path d="M154.311 53.1504L155.821 53C155.821 54.29 156.741 55.0898 158.181 55.0898C159.621 55.0898 160.451 54.5698 160.451 53.5898C160.451 52.6098 158.751 52.4101 157.451 52.0801C155.961 51.6901 154.451 51.2497 154.451 49.4297C154.451 47.6097 156.221 46.7305 157.861 46.7305C159.861 46.7305 161.521 47.5105 161.721 49.7305L160.171 49.9697C160.171 48.6897 159.301 47.9697 157.841 47.9697C156.941 47.9697 156.001 48.4002 156.001 49.2402C156.001 50.0802 157.111 50.3303 158.211 50.5703C160.061 50.9603 161.961 51.2697 161.961 53.4297C161.961 55.5897 160.021 56.3301 158.161 56.3301C156.151 56.4001 154.291 55.4404 154.311 53.1504Z" fill="white"/>
</svg>
